<?xml version="1.0" standalone="no"?>
<!DOCTYPE svg PUBLIC "-//W3C//DTD SVG 20010904//EN"
 "http://www.w3.org/TR/2001/REC-SVG-20010904/DTD/svg10.dtd">
<svg version="1.0" xmlns="http://www.w3.org/2000/svg"
 width="300.000000pt" height="300.000000pt" viewBox="0 0 300.000000 300.000000"
 preserveAspectRatio="xMidYMid meet">
<metadata>
Created by potrace 1.11, written by Peter Selinger 2001-2013
</metadata>
<g transform="translate(0.000000,300.000000) scale(0.100000,-0.100000)"
fill="#000000" stroke="none">
<path d="M215 2989 c-4 -6 -5 -12 -2 -15 2 -3 7 2 10 11 7 17 1 20 -8 4z"/>
<path d="M251 2978 c9 -18 9 -21 -1 -11 -10 9 -18 6 -35 -13 -24 -26 -40 -32
-30 -11 4 6 0 3 -9 -7 -8 -10 -13 -24 -10 -30 3 -6 -2 -2 -11 9 -15 19 -16 19
-10 -15 3 -23 2 -30 -4 -21 -5 7 -14 10 -20 6 -9 -5 -7 -11 6 -21 17 -13 17
-14 -1 -7 -13 4 -17 3 -12 -5 5 -8 1 -10 -10 -5 -13 5 -16 3 -11 -10 4 -11 2
-14 -9 -10 -13 5 -20 -14 -15 -41 1 -5 -5 -6 -14 -2 -11 4 -14 2 -9 -6 10 -15
12 -58 3 -52 -11 7 -18 -23 -8 -35 6 -7 5 -8 -2 -2 -15 12 -39 3 -39 -16 0 -9
5 -11 13 -7 9 6 9 5 -1 -8 -18 -22 -13 -2419 5 -2426 7 -2 13 4 13 14 0 25 8
14 14 -20 3 -16 11 -33 18 -38 11 -6 11 -8 0 -8 -7 0 -10 -5 -7 -10 3 -6 1
-10 -6 -10 -7 0 -9 -3 -6 -6 4 -4 13 -1 21 5 11 9 16 9 22 0 4 -7 3 -9 -3 -6
-6 4 -13 -4 -16 -19 -3 -20 1 -28 19 -36 22 -10 28 -20 26 -40 -1 -3 5 -9 14
-12 12 -4 12 -2 4 14 -7 14 -7 21 2 26 7 4 10 4 6 -1 -4 -4 -3 -14 3 -22 9
-10 8 -17 -2 -29 -12 -15 -11 -16 11 -9 24 7 24 7 5 -8 -18 -14 110 -16 1335
-16 745 -1 1360 2 1365 7 13 10 18 35 5 27 -5 -3 -10 -1 -10 4 0 10 21 16 42
12 4 0 5 6 1 15 -5 13 -8 13 -15 2 -8 -10 -9 -10 -5 2 2 8 12 14 21 14 13 -2
14 1 6 11 -9 11 -7 12 9 8 33 -8 50 48 21 68 -11 8 -10 9 8 4 22 -6 23 -5 12
14 -6 12 -7 21 -3 20 18 -3 27 2 16 9 -9 5 -6 12 10 21 20 13 21 13 8 -2 -7
-10 -10 -17 -6 -17 4 0 1 -7 -6 -17 -13 -15 -12 -15 8 -2 l23 14 0 1255 -1
1256 -24 2 c-14 1 -25 -3 -25 -10 0 -6 -3 -9 -6 -6 -3 4 0 16 6 28 10 18 14
19 28 8 9 -7 6 0 -8 15 -14 16 -32 26 -41 24 -17 -5 -20 16 -4 30 4 4 5 3 2
-3 -3 -6 0 -11 8 -11 11 0 12 4 4 14 -6 7 -15 10 -20 7 -5 -3 -9 4 -9 15 0 25
-46 62 -68 54 -10 -4 -6 3 8 15 23 19 11 26 -17 9 -6 -4 -15 -2 -19 4 -4 8 -3
9 4 5 7 -4 12 -2 12 4 0 7 -8 9 -20 5 -21 -7 -28 10 -7 18 6 3 -2 4 -19 2 -21
-2 -34 2 -42 16 -8 12 -8 19 -2 19 5 0 10 -4 10 -9 0 -5 7 -12 16 -15 8 -3 12
-2 9 4 -3 6 0 10 7 10 9 0 9 3 -2 10 -9 6 -488 10 -1278 10 l-1263 0 12 -22z
m-6 -28 c4 -6 1 -9 -7 -8 -7 2 -12 -3 -10 -10 1 -8 -2 -11 -8 -7 -8 5 -7 11 1
21 14 17 16 17 24 4z m2649 -101 c-3 -5 -11 -9 -17 -9 -7 0 -6 4 3 10 10 6 11
10 3 10 -7 0 -13 5 -13 11 0 8 5 8 15 -1 8 -7 12 -16 9 -21z m60 -78 c3 -5 -1
-14 -8 -20 -12 -10 -14 -9 -11 6 2 10 4 19 4 21 2 5 10 2 15 -7z m23 -66 c0
-8 -4 -12 -9 -9 -5 3 -6 10 -3 15 9 13 12 11 12 -6z m10 -2430 c0 -8 -4 -12
-9 -9 -5 3 -6 10 -3 15 9 13 12 11 12 -6z m-53 -150 c-4 -8 -10 -15 -15 -15
-4 0 -6 7 -3 15 4 8 10 15 15 15 4 0 6 -7 3 -15z"/>
<path d="M21 2755 c2 -36 -1 -46 -11 -40 -6 3 -10 1 -10 -4 0 -17 18 -13 28 7
6 9 6 26 1 37 l-9 20 1 -20z"/>
<path d="M0 218 c0 -4 7 -8 15 -8 8 0 15 -7 15 -16 0 -9 -5 -12 -12 -8 -7 4
-8 3 -4 -4 4 -6 13 -9 21 -6 11 4 12 11 5 24 -5 9 -7 19 -5 22 2 2 -5 4 -15 4
-11 0 -20 -4 -20 -8z"/>
</g>
</svg>
