<?xml version="1.0" standalone="no"?>
<!DOCTYPE svg PUBLIC "-//W3C//DTD SVG 1.1//EN" "http://www.w3.org/Graphics/SVG/1.1/DTD/svg11.dtd" >
<svg xmlns="http://www.w3.org/2000/svg" xmlns:xlink="http://www.w3.org/1999/xlink" version="1.1">
<metadata>
Created by FontForge 20160405 at Sat Jan  6 23:21:27 2018
 By Apache
Copyright 2018 Northern Signal. All rights reserved.
</metadata>
<defs>
<font id="NorthernSignalLogo" horiz-adv-x="1792" >
  <font-face 
    font-family="NorthernSignalLogo"
    font-weight="400"
    font-stretch="normal"
    units-per-em="1792"
    panose-1="2 0 5 3 2 0 0 2 0 4"
    ascent="1536"
    descent="-256"
    x-height="1279"
    cap-height="1303"
    bbox="-142 -412 2627.67 1998"
    underline-thickness="0"
    underline-position="0"
    unicode-range="U+0020-F454"
  />
<missing-glyph horiz-adv-x="896" 
d="M672 112v1312h-448v-1312h448zM112 1536h672v-1536h-672v1536z" />
    <glyph glyph-name=".notdef" horiz-adv-x="896" 
d="M672 112v1312h-448v-1312h448zM112 1536h672v-1536h-672v1536z" />
    <glyph glyph-name="space" unicode=" " horiz-adv-x="448" 
 />
    <glyph glyph-name="exclam" unicode="!" horiz-adv-x="520" 
d="M116 451l-44 828h378l-45 -828h-289zM73 143q0 81 48 125q50 44 138 44q89 0 135 -43t46 -124q0 -80 -48 -123q-50 -44 -133 -44q-85 0 -135 44q-49 43 -49 123l-1 -2h-1z" />
    <glyph glyph-name="quotedbl" unicode="&#x22;" horiz-adv-x="939" 
d="M381 817h-239l-36 462h311zM797 817h-240l-36 462h312z" />
    <glyph glyph-name="no1" unicode="$" horiz-adv-x="2688" 
d="M368 583q-14 109 12 213q25 103 96 171q17 26 57 23t60 -23q37 -19 40 -58q3 -38 -6 -69q-59 -75 -66 -171q-8 -98 45 -176q25 -26 30 -66q4 -40 -15 -73q-20 -33 -60 -39q-41 -6 -72 10q-32 16 -51 45q-21 30 -35 69q-8 19 -12 39q-5 19 -9 36q-8 34 -12 72l-2 -1v-2z
M2374 1152q22 8 36 8q19 0 30 -4q13 -5 27 -15q14 -11 23 -23q2 -3 4.5 -6t4.5 -7t4.5 -7.5t4.5 -8.5t4.5 -8.5t4.5 -7.5t4 -7.5t4 -7.5q6 -14 15 -33q9 -20 15 -30q89 -194 69 -410q-20 -218 -132 -396q-34 -55 -97 -48q-62 7 -84 66q-22 84 45 151q90 181 73 357
q-7 88 -45 166q-41 85 -72 141h-4v56q1 28 21 48q18 20 44 26h2h-1zM311 1151q26 -6 44 -26q19 -20 21 -48v-56h-4q-7 -11 -15 -25.5t-17 -31.5t-19.5 -38t-21.5 -45q-38 -80 -45 -165q-17 -176 75 -357q66 -68 44 -150q-13 -37 -49 -55q-38 -18 -75 -8q-39 10 -60 45
q-116 175 -135 393q-20 219 72 410l7 18q4 10 5 14q2 5 6 12.5t9 18.5q4 10 9 18q2 4 4.5 7.5t4.5 6.5q9 12 21 27t24 24t27 15q17 6 31 5q16 -1 34 -9l3 1v-1zM1405 1232q0 4 20 19q19 15 27 15h468q14 0 24 -10q11 -11 11 -24v-1231h-423q-31 0 -73 54q-41 52 -87 126
q-46 73 -73 97l-23 -255l-21 -23h-511q-1 1 -2.5 3l-4.5 6q-6 10 -6 15q-2 3 -3 10t-3 10l-3 12v1142q0 20 12 44t32 24h389q29 0 66 -40q37 -41 69 -90q31 -50 66 -99q34 -50 51 -60l-1 254zM1316 479q2 -4 6.5 -10l10.5 -14q12 -17 30 -42q9 -13 17 -24.5t16 -22.5
t14.5 -20t11.5 -17q22 -32 57 -72q34 -41 63 -63q26 15 41 44q15 28 15 60q0 12 -5 30q-5 15 -15 33q-11 18 -15 30l-111 254h-5q-18 0 -72 -73q-54 -74 -54 -87l-3 -7zM1145 779q-17 0 -21 -9q-43 -59 -100 -225q-29 -83 -45 -135q-17 -53 -21 -75q196 174 378 400
q-2 1 -6 2t-9 3t-12 4t-15 4q-29 10 -50 15t-46 9l-27 3q-7 1 -13 1.5t-11 0.5l-1 2h-1zM842 436q31 46 63 128q8 20 15.5 38.5t13.5 35.5q12 33 21 60q5 14 10 29.5t11 34.5t12.5 40t13.5 45q-36 70 -158 177l-1 -588h-1zM1824 238v622q-26 -43 -46 -102q-18 -56 -24 -126
q-2 -17 -3 -33t-2 -30q-2 -29 -3 -51q-1 -11 -1 -24v-28v-69v-29v-51zM1699 917q6 10 15 27q10 19 20 41q22 48 39 87l17 42v34h-217l117 -222l10 -9h-1zM1520 831q0 -20 3 -39l4 -20q1 -11 6 -21q2 -5 3.5 -9.5t3.5 -9.5t3 -8.5t3 -7.5q6 -15 18 -39l11 -21q4 -8 8 -14
t8 -14q2 -5 5 -10.5t7 -12.5q7 -14 12 -21l6 -12q22 98 22 162v6q-41 91 -111 188q-11 -41 -11 -90l-2 -3zM1129 312q-8 0 -78 -72q-68 -69 -88 -108h177v180l-11 -1v1zM1155 909q10 -5 54 -12q46 -8 54 -9h13q-15 27 -51 72q-38 46 -51 72q-21 -45 -21 -122l1 -1h1z
M941 1118q0 -1 17 -21q7 -11 18 -21l11 -11t12 -13t11 -12l9 -9l12 -12q2 19 4 35t4 30q3 27 3 47h-99l-1 -12zM1687 175q-24 -14 -24 -54h69q-9 28 -45 54v-1v1zM2302 574q-5 -38 -12 -72q-5 -17 -9 -36q-5 -20 -12 -39q-13 -36 -35 -66q-20 -26 -51 -42t-72 -10t-60 39
q-20 33 -15 74q4 40 30 66q53 78 45 176q-8 96 -66 171q-9 31 -6 69q3 39 40 58q20 20 60 23t57 -23q70 -68 96 -171q25 -104 12 -213l-2 -2v-2z" />
    <glyph glyph-name="no3" unicode="&#x26;" horiz-adv-x="1342" 
d="M740 1237q0 4 21 19t30 15h471q14 0 24 -10q11 -11 11 -24v-1247h-426q-32 0 -74 55q-11 14 -21.5 29t-21.5 31q-23 31 -45 69q-22 37 -41 62q-17 23 -32 36l-23 -258l-22 -23h-516l-6 9q-6 10 -6 15q-4 4 -9 20l-3 12v1158q0 22 13 44q13 24 33 24h392q28 0 66 -42
q37 -42 69 -93q31 -51 66 -99q34 -47 54 -57l-4 256v-1zM656 474q4 -8 15 -24q5 -8 12.5 -18.5l17.5 -24.5t18 -25.5t16 -22.5t14.5 -20t11.5 -17t11.5 -16.5t14.5 -17.5t16 -18.5t16 -20.5q35 -42 62 -65q26 15 41 45t15 60q0 12 -5 30q-5 16 -15 36q-11 19 -15 30
l-111 258h-6q-19 0 -75 -74q-55 -73 -55 -90zM487 779q-16 0 -21 -11q-44 -62 -102 -228q-59 -167 -69 -213q189 166 382 405l-18 6l-36 12q-47 15 -78 21q-30 6 -59 6v3zM186 429q31 49 63 129q8 20 15.5 39t13.5 36q12 34 21 63q5 14 10 30.5t10 35.5q10 37 24 84
q-38 70 -159 180l1 -595zM1176 225v629q-26 -43 -46 -102q-18 -56 -24 -126q-2 -17 -3 -33t-2 -30q-2 -29 -3 -51q-1 -11 -1 -24v-28v-70v-29v-56zM1051 910q13 19 36 69q22 49 39 90q16 38 16 43v34h-219l118 -224zM874 828q0 -21 3 -40l3 -21q1 -10 6 -22l7 -21
q2 -5 3 -8.5t2 -7.5q5 -16 18 -41l11 -22l6 -12q3 -8 21 -39l19 -33q23 112 23 162v6q-41 88 -114 192q-10 -31 -10 -90l1 -2zM479 301q-8 0 -78 -73q-71 -74 -90 -108h179v181h-11zM500 907q10 -4 56 -12t56 -12h12q-16 30 -51 76q-9 11 -16.5 21.5t-13.5 19.5t-10.5 16.5
t-8.5 13.5q-21 -47 -21 -123h-1h-2zM288 1121q0 -5 34 -42q8 -10 15.5 -18t14.5 -16t13 -14l11 -11q2 19 4 35.5t4 30.5q3 28 3 47h-100v-13zM1040 167q-23 -14 -23 -57h68q-6 29 -45 56v1z" />
    <glyph glyph-name="no9" unicode="+" horiz-adv-x="1498" 
d="M903 -2l-468 901h-7q8 -105 12 -184q2 -41 3 -75.5t1 -63.5v-577h-306v1279h452l465 -888h6q-4 48 -6 90.5t-4 80.5q-3 76 -3 140v578h309v-1279zM1796 1673q0 -7 -3 -13l-90 -109q-3 -6 -11 -6q-5 0 -9 6q-209 258 -504 258q-296 0 -507 -258q-2 -6 -9 -6q-5 0 -9 6
l-90 109q-5 8 -5 12q0 7 5 10q255 316 615 316t615 -316l2 -1l1 -9zM1451 1326q-113 149 -267 149q-158 0 -269 -149q-4 -4 -7 -4q-6 0 -9 4l-70 95q-9 10 0 21q147 196 355 196q206 0 353 -196q3 -5 3 -9q0 -8 -3 -11l-70 -95h-16v-1z" />
    <glyph glyph-name="dieresis.001" 
 />
    <glyph glyph-name="copyright.001" 
 />
    <glyph glyph-name="registered.001" 
 />
    <glyph glyph-name="acute.001" 
 />
    <glyph glyph-name="AE" unicode="&#xc6;" 
 />
    <glyph glyph-name="Oslash" unicode="&#xd8;" 
 />
    <glyph glyph-name="trademark.001" 
 />
    <glyph glyph-name="infinity" unicode="&#x221e;" 
 />
    <glyph glyph-name="notequal" unicode="&#x2260;" 
 />
    <glyph glyph-name="glass" unicode="&#xf000;" 
d="M1696 1350q0 -35 -43 -78l-632 -632v-768h320q26 0 45 -19t19 -45t-19 -45t-45 -19h-896q-26 0 -45 19t-19 45t19 45t45 19h320v768l-632 632q-43 43 -43 78q1 31 33 45q30 14 68 12h1408q37 1 67 -12q31 -14 33 -45h-1h-2z" />
    <glyph glyph-name="music" unicode="&#xf001;" horiz-adv-x="1536" 
d="M1535 189q1 -38 -18 -69q-20 -32 -54 -54q-31 -20 -72 -37q-35 -14 -78 -21q-147 -29 -296 33q-53 22 -87 60q-34 37 -34 89t34 89q47 53 128 77q82 25 159 27q105 0 192 -39v537l-768 -237v-709q1 -70 -66 -118q-69 -48 -157 -63q-139 -31 -297 32q-53 19 -87 60
q-34 37 -34 89t34 89q47 53 128 77q82 25 159 27q105 0 192 -39v967q0 32 19 57t48 36l832 256q8 4 27 4q41 0 69 -28t28 -69l-2 -1121z" />
    <glyph glyph-name="search" unicode="&#xf002;" horiz-adv-x="1664" 
d="M1019 388q132 132 132 317q0 184 -132 315q-131 132 -315 132q-185 0 -317 -132q-131 -131 -131 -315t131 -318q134 -131 318 -131t315 131zM1662 -126q0 -52 -38 -90t-90 -38q-54 0 -90 38l-343 342q-178 -124 -399 -124q-147 0 -273 55q-263 112 -375 375
q-55 126 -55 273t55 273q55 130 150 225q94 94 225 150q135 56 274 56q138 0 273 -56q130 -56 225 -150q94 -95 150 -225q56 -135 56 -273q0 -221 -124 -399l343 -343q37 -37 37 -90z" />
    <glyph glyph-name="envelope" unicode="&#xf003;" 
d="M1665 797q-32 -36 -69 -66q-66 -51 -125 -96.5t-113 -87.5q-107 -84 -189 -153q-10 -8 -20 -16.5t-21 -16.5l-42 -33q-30 -23 -87 -48q-54 -24 -102 -24h-1h-1q-48 0 -103 24q-14 7 -26.5 13.5t-23.5 12.5q-20 12 -35 23l-42 33q-11 8 -21 16.5t-20 16.5q-83 69 -189 153
q-54 42 -113 88t-125 97q-38 30 -69 66v-768q0 -13 9 -22t23 -9h1472q14 0 23 9t9 23v766zM1663 1102q0 11 -1 14q0 32 -31 32h-1472q-13 0 -22 -9t-9 -22q0 -170 147 -285l401 -317q2 -2 5.5 -5t8.5 -7t10 -8.5t12 -9.5l46 -37q2 -2 44 -32q55 -36 93 -36h1h1q39 0 93 36
q36 25 45 33l46 37q7 5 12 9.5t10 8.5t8.5 7t5.5 5l401 317q54 43 100 115q47 74 47 132v-1zM1791 29q0 -66 -47 -113t-113 -47h-1472q-66 0 -113 47t-47 113v1088q0 66 47 113t113 47h1472q66 0 113 -47t47 -113v-1088z" />
    <glyph glyph-name="heart" unicode="&#xf004;" 
d="M229 489q-15 13 -36 36q-22 23 -47 56q-10 13 -19 25.5t-17 24.5q-18 26 -32 50q-29 50 -54 121q-23 75 -23 138q0 221 127 345t351 124q127 0 246 -80q99 -64 172 -135q67 67 171 135q122 80 246 80q224 0 351 -124t127 -345t-229 -450l-623 -600q-18 -18 -44 -18
t-44 18l-623 601v-2z" />
    <glyph glyph-name="star" unicode="&#xf005;" horiz-adv-x="1664" 
d="M1663 889q0 -22 -26 -48l-363 -354l86 -500q1 -2 1 -20q0 -23 -10 -36q-11 -14 -30 -14t-40 12l-449 236l-449 -236q-23 -12 -39 -12q-19 0 -30 14t-11 36v6q0 2 0.5 5.5t1.5 8.5l86 500l-364 354q-25 25 -25 48q0 37 56 46l502 73l225 455q20 41 48 41t48 -41l225 -455
l502 -73q56 -9 56 -46h-3h2z" />
    <glyph glyph-name="star_empty" unicode="&#xf006;" horiz-adv-x="1664" 
d="M1443 829l-422 62l-189 382l-189 -382l-422 -62l306 -297l-73 -421l378 199l377 -199l-72 421zM1664 889q0 -22 -26 -48l-363 -354l86 -500q1 -2 1 -20q0 -50 -41 -50q-19 0 -40 12l-449 236l-449 -236q-23 -12 -39 -12q-19 0 -30 14t-11 36v6q0 2 0.5 5.5t1.5 8.5
l86 500l-364 354q-25 25 -25 48q0 37 56 46l502 73l225 455q20 41 48 41t48 -41l225 -455l502 -73q56 -9 56 -46h-2h2z" />
    <glyph glyph-name="user" unicode="&#xf007;" horiz-adv-x="1280" 
d="M1282 139q0 -109 -63 -187q-62 -78 -150 -78h-854q-88 0 -151 78q-62 80 -62 186q0 185 40 312q23 77 57 131q37 57 96 90q60 33 133 33q131 -128 312 -128t312 128q73 0 132 -33q58 -33 96 -90q37 -56 60 -132q40 -127 40 -312v1zM1028 1024q0 -159 -113 -272
q-112 -112 -271 -112q-161 0 -273 112t-112 273q0 159 112 271q113 113 272 113q157 0 270 -113t113 -270z" />
    <glyph glyph-name="film" unicode="&#xf008;" horiz-adv-x="1920" 
d="M384 64q0 26 -19 45t-45 19h-128q-26 0 -45 -19t-19 -45v-128q0 -26 19 -45t45 -19h128q26 0 45 19t19 45v128zM384 448q0 26 -19 45t-45 19h-128q-26 0 -45 -19t-19 -45v-128q0 -26 19 -45t45 -19h128q26 0 45 19t19 45v128zM384 832q0 26 -19 45t-45 19h-128
q-26 0 -45 -19t-19 -45v-128q0 -26 19 -45t45 -19h128q26 0 45 19t19 45v128zM1408 448q0 26 -19 45t-45 19h-768q-26 0 -45 -19t-19 -45v-512q0 -26 19 -45t45 -19h768q26 0 45 19t19 45v512zM384 1216q0 26 -19 45t-45 19h-128q-26 0 -45 -19t-19 -45v-128q0 -26 19 -45
t45 -19h128q26 0 45 19t19 45v128zM1792 64q0 26 -19 45t-45 19h-128q-26 0 -45 -19t-19 -45v-128q0 -26 19 -45t45 -19h128q26 0 45 19t19 45v128zM1408 1216q0 26 -19 45t-45 19h-768q-26 0 -45 -19t-19 -45v-512q0 -26 19 -45t45 -19h768q26 0 45 19t19 45v512zM1792 448
q0 26 -19 45t-45 19h-128q-26 0 -45 -19t-19 -45v-128q0 -26 19 -45t45 -19h128q26 0 45 19t19 45v128zM1792 832q0 26 -19 45t-45 19h-128q-26 0 -45 -19t-19 -45v-128q0 -26 19 -45t45 -19h128q26 0 45 19t19 45v128zM1792 1216q0 26 -19 45t-45 19h-128q-26 0 -45 -19
t-19 -45v-128q0 -26 19 -45t45 -19h128q26 0 45 19t19 45v128zM1920 -96q0 -66 -47 -113t-113 -47h-1600q-66 0 -113 47t-47 113v1344q0 66 47 113t113 47h1600q66 0 113 -47t47 -113v-1344z" />
    <glyph glyph-name="th_large" unicode="&#xf009;" horiz-adv-x="1664" 
d="M768 128q0 -52 -38 -90t-90 -38h-512q-52 0 -90 38t-38 90v384q0 52 38 90t90 38h512q52 0 90 -38t38 -90v-384zM768 896q0 -52 -38 -90t-90 -38h-512q-52 0 -90 38t-38 90v384q0 52 38 90t90 38h512q52 0 90 -38t38 -90v-384zM1664 128q0 -52 -38 -90t-90 -38h-512
q-52 0 -90 38t-38 90v384q0 52 38 90t90 38h512q52 0 90 -38t38 -90v-384zM1664 896q0 -52 -38 -90t-90 -38h-512q-52 0 -90 38t-38 90v384q0 52 38 90t90 38h512q52 0 90 -38t38 -90v-384z" />
    <glyph glyph-name="th" unicode="&#xf00a;" 
d="M512 96q0 -41 -28 -69t-69 -28h-320q-41 0 -69 28t-28 69v192q0 41 28 69t69 28h320q41 0 69 -28t28 -69v-192zM512 608q0 -41 -28 -69t-69 -28h-320q-41 0 -69 28t-28 69v192q0 41 28 69t69 28h320q41 0 69 -28t28 -69v-192zM1152 96q0 -41 -28 -69t-69 -28h-320
q-41 0 -69 28t-28 69v192q0 41 28 69t69 28h320q41 0 69 -28t28 -69v-192zM512 1120q0 -41 -28 -69t-69 -28h-320q-41 0 -69 28t-28 69v192q0 41 28 69t69 28h320q41 0 69 -28t28 -69v-192zM1152 608q0 -41 -28 -69t-69 -28h-320q-41 0 -69 28t-28 69v192q0 41 28 69t69 28
h320q41 0 69 -28t28 -69v-192zM1792 96q0 -41 -28 -69t-69 -28h-320q-41 0 -69 28t-28 69v192q0 41 28 69t69 28h320q41 0 69 -28t28 -69v-192zM1152 1120q0 -41 -28 -69t-69 -28h-320q-41 0 -69 28t-28 69v192q0 41 28 69t69 28h320q41 0 69 -28t28 -69v-192zM1792 608
q0 -41 -28 -69t-69 -28h-320q-41 0 -69 28t-28 69v192q0 41 28 69t69 28h320q41 0 69 -28t28 -69v-192zM1792 1120q0 -41 -28 -69t-69 -28h-320q-41 0 -69 28t-28 69v192q0 41 28 69t69 28h320q41 0 69 -28t28 -69v-192z" />
    <glyph glyph-name="th_list" unicode="&#xf00b;" 
d="M512 96q0 -41 -28 -69t-69 -28h-320q-41 0 -69 28t-28 69v192q0 41 28 69t69 28h320q41 0 69 -28t28 -69v-192zM512 608q0 -41 -28 -69t-69 -28h-320q-41 0 -69 28t-28 69v192q0 41 28 69t69 28h320q41 0 69 -28t28 -69v-192zM1792 96q0 -41 -28 -69t-69 -28h-960
q-41 0 -69 28t-28 69v192q0 41 28 69t69 28h960q41 0 69 -28t28 -69v-192zM512 1120q0 -41 -28 -69t-69 -28h-320q-41 0 -69 28t-28 69v192q0 41 28 69t69 28h320q41 0 69 -28t28 -69v-192zM1792 608q0 -41 -28 -69t-69 -28h-960q-41 0 -69 28t-28 69v192q0 41 28 69t69 28
h960q41 0 69 -28t28 -69v-192zM1792 1120q0 -41 -28 -69t-69 -28h-960q-41 0 -69 28t-28 69v192q0 41 28 69t69 28h960q41 0 69 -28t28 -69v-192z" />
    <glyph glyph-name="ok" unicode="&#xf00c;" 
d="M781 42q-28 -28 -69 -28t-69 28l-136 136l-362 362q-28 28 -28 69t28 69l136 136q28 28 69 28t69 -28l294 -295l656 657q28 28 69 28t69 -28l136 -136q28 -28 28 -69t-28 -69l-726 -724z" />
    <glyph glyph-name="remove" unicode="&#xf00d;" horiz-adv-x="1408" 
d="M1134 10q-28 -28 -69 -28t-69 28l-294 294l-294 -294q-28 -28 -69 -28t-69 28l-136 136q-28 28 -28 69t28 69l294 294l-294 294q-28 28 -28 69t28 69l136 136q28 28 69 28t69 -28l294 -294l294 294q28 28 69 28t69 -28l136 -136q28 -28 28 -69t-28 -69l-294 -294
l294 -294q28 -28 28 -69t-28 -69l-136 -136v0z" />
    <glyph glyph-name="zoom_in" unicode="&#xf00e;" horiz-adv-x="1664" 
d="M1020 668q0 -13 -9 -22t-22 -9h-224v-224q0 -13 -9 -22t-22 -9h-64q-13 0 -22 9t-9 23v224h-224q-13 0 -22 9t-9 23v64q0 14 9 23t23 9h224v224q0 14 9 23t23 9h64q14 0 23 -9t9 -22v-224h224q14 0 23 -9t9 -22zM1015 384q132 132 132 317q0 184 -132 315
q-131 132 -315 132q-185 0 -317 -132q-131 -131 -131 -315t131 -318q134 -131 318 -131t315 131zM1530 -258q-54 0 -90 38l-343 342q-178 -124 -399 -124q-147 0 -273 55q-263 112 -375 375q-55 126 -55 273t55 273q55 130 150 225q94 94 225 150q135 56 274 56
q138 0 273 -56q130 -56 225 -150q94 -95 150 -225q56 -135 56 -273q0 -221 -124 -399l343 -343q37 -37 37 -90q0 -52 -38 -90t-90 -38z" />
    <glyph glyph-name="zoom_out" unicode="&#xf010;" horiz-adv-x="1664" 
d="M1022 670q0 -13 -9 -22t-22 -9h-576q-13 0 -22 9t-9 23v64q0 14 9 23t23 9h576q14 0 23 -9t9 -22zM1017 386q132 132 132 317q0 184 -132 315q-131 132 -315 132q-185 0 -317 -132q-131 -131 -131 -315t131 -318q134 -131 318 -131t315 131zM1532 -256q-54 0 -90 38
l-343 342q-178 -124 -399 -124q-147 0 -273 55q-263 112 -375 375q-55 126 -55 273t55 273q55 130 150 225q94 94 225 150q135 56 274 56q138 0 273 -56q130 -56 225 -150q94 -95 150 -225q56 -135 56 -273q0 -221 -124 -399l343 -343q37 -37 37 -90q0 -52 -38 -90t-90 -38z
" />
    <glyph glyph-name="off" unicode="&#xf011;" horiz-adv-x="1536" 
d="M1540 638q0 -159 -61 -297q-62 -143 -165 -246q-104 -104 -246 -165q-138 -61 -297 -61t-297 61q-143 61 -246 165q-104 103 -165 246q-61 138 -61 297q0 178 80 343q81 160 227 270q44 32 95 24q52 -8 84 -51q32 -42 24 -95t-48 -84q-97 -73 -151 -180t-54 -228
q0 -138 69 -256t187 -187t256 -69q136 0 255 69q118 69 187 187t69 256q0 121 -54 228t-151 180q-44 31 -51 84q-8 52 24 96q31 43 84 51q52 7 96 -24q145 -110 225 -270q81 -161 81 -342l3 -1zM900 766q0 -52 -38 -90t-90 -38t-90 38t-38 90v640q0 52 38 90t90 38t90 -38
t38 -90v-640z" />
    <glyph glyph-name="signal" unicode="&#xf012;" 
d="M256 -96q0 -14 -9 -23t-23 -9h-192q-14 0 -23 9t-9 23v192q0 14 9 23t23 9h192q14 0 23 -9t9 -23v-192zM640 -96q0 -14 -9 -23t-23 -9h-192q-14 0 -23 9t-9 23v320q0 14 9 23t23 9h192q14 0 23 -9t9 -23v-320zM1024 -96q0 -14 -9 -23t-23 -9h-192q-14 0 -23 9t-9 23v576
q0 14 9 23t23 9h192q14 0 23 -9t9 -23v-576zM1408 -96q0 -14 -9 -23t-23 -9h-192q-14 0 -23 9t-9 23v960q0 14 9 23t23 9h192q14 0 23 -9t9 -23v-960zM1792 -96q0 -14 -9 -23t-23 -9h-192q-14 0 -23 9t-9 23v1472q0 14 9 23t23 9h192q14 0 23 -9t9 -23v-1472z" />
    <glyph glyph-name="cog" unicode="&#xf013;" horiz-adv-x="1536" 
d="M768 384q106 0 181 75t75 181t-75 181t-181 75t-181 -75t-75 -181t75 -181t181 -75zM1535 524q0 -12 -8 -23t-21 -12l-185 -28q-19 -49 -39 -91q8 -11 18.5 -25.5t24.5 -31.5t30 -37.5t35 -43.5q21 -25 1 -48q-27 -38 -99 -108q-74 -71 -93 -71q-14 0 -27 9l-138 108
q-11 -5 -22.5 -10t-22.5 -10t-22.5 -9t-22.5 -8q-7 -71 -15 -118q-4 -23 -7 -40.5t-6 -28.5q-7 -28 -36 -28h-222q-14 0 -24 9q-11 9 -12 22l-28 184q-53 16 -90 36l-141 -107q-11 -9 -24 -9t-24 11q-126 114 -165 168q-7 10 -7 24q0 12 8 23q15 21 51 66q11 14 20 26t16 21
t11.5 15t6.5 10q-29 51 -42 99l-183 27q-14 1 -21 12q-8 11 -8 24v222q0 12 8 23q7 10 18 12l186 28q14 46 39 92q-47 64 -108 138q-10 10 -10 24q0 9 9 23q26 36 98 107q73 72 96 72q14 0 27 -10l138 -107q11 5 22.5 10t22.5 10t22.5 9t22.5 8q7 71 15 118q4 23 7.5 40.5
t6.5 28.5q7 28 36 28h222q13 0 24 -9t12 -22l28 -184q52 -17 90 -36l142 107q9 9 24 9q14 0 24 -10q127 -119 165 -171q7 -7 7 -22q0 -12 -8 -23q-5 -8 -18 -24q-14 -17 -33 -42q-20 -26 -33 -42q-14 -17 -21 -27q13 -26 23 -50.5t18 -47.5l183 -28q13 -2 21 -12
q8 -11 8 -24l3 -222z" />
    <glyph glyph-name="trash" unicode="&#xf014;" horiz-adv-x="1408" 
d="M512 224q0 -14 -9 -23t-23 -9h-64q-14 0 -23 9t-9 23v576q0 14 9 23t23 9h64q14 0 23 -9t9 -23v-576zM768 224q0 -14 -9 -23t-23 -9h-64q-14 0 -23 9t-9 23v576q0 14 9 23t23 9h64q14 0 23 -9t9 -23v-576zM1024 224q0 -14 -9 -23t-23 -9h-64q-14 0 -23 9t-9 23v576
q0 14 9 23t23 9h64q14 0 23 -9t9 -23v-576zM253 1022v-948q0 -24 7 -39q7 -18 15 -27q7 -9 12 -9h832q3 0 11 9q7 9 15 27q7 15 7 41l-2 947zM927 1150l-48 117q-8 10 -18 12h-317q-11 -2 -18 -12l-49 -117h450zM1408 1055q0 -14 -9 -23t-23 -9h-96v-948q0 -82 -47 -144
q-46 -61 -114 -61h-832q-66 0 -113 59t-47 141v952h-96q-14 0 -23 9t-9 23v64q0 14 9 23t23 9h309l70 167q15 37 54 63q41 26 79 26h320q38 0 79 -26q39 -26 54 -63l70 -167h309q14 0 23 -9t9 -23z" />
    <glyph glyph-name="home" unicode="&#xf015;" horiz-adv-x="1664" 
d="M1408 64q0 -26 -19 -45t-45 -19h-384v384h-256v-384h-384q-26 0 -45 19t-19 45v480v3l1 3l575 474l575 -474q1 -1 1 -6v-480zM1567 538q-8 -11 -21 -12h-3q-14 0 -21 7l-692 577l-692 -577q-14 -8 -24 -6q-14 1 -21 12l-62 74q-8 10 -6 24q1 13 12 21l719 599
q32 26 75 26t75 -26l244 -204v195q0 14 9 23t23 9h192q14 0 23 -9t9 -23v-408l219 -182q10 -8 12 -21q1 -14 -6 -24z" />
    <glyph glyph-name="file_alt" unicode="&#xf016;" horiz-adv-x="1536" 
d="M1470 1154q28 -29 48 -75q20 -52 20 -88v-1152q0 -41 -28 -69t-69 -28h-1344q-41 0 -69 28t-28 69v1600q0 41 28 69t69 28h896q36 0 88 -20q46 -20 75 -48zM1402 1022q-11 31 -21 42l-313 313q-11 10 -42 21l-1 -375zM1411 893h-416q-41 0 -69 28t-28 69v416h-768v-1536
l1281 -1v1024z" />
    <glyph glyph-name="time" unicode="&#xf017;" horiz-adv-x="1536" 
d="M896 544q0 -14 -9 -23t-23 -9h-320q-14 0 -23 9t-9 23v64q0 14 9 23t23 9h224v352q0 14 9 23t23 9h64q14 0 23 -9t9 -23v-448zM1239 367q73 124 73 273t-73 273q-74 124 -198 198q-124 73 -273 73t-273 -73q-125 -74 -198 -198t-73 -273t73 -273q73 -125 198 -198
q124 -73 273 -73t273 73t198 198zM1432 1026q103 -175 103 -385q0 -212 -103 -387q-104 -176 -279 -279t-385 -103q-212 0 -387 103q-176 103 -279 279q-103 175 -103 387q0 210 103 385t279 279q175 103 387 103q210 0 385 -103q177 -103 280 -280z" />
    <glyph glyph-name="road" unicode="&#xf018;" horiz-adv-x="1920" 
d="M1089 863q-2 14 -12 23q-11 9 -24 9h-186q-14 0 -24 -9q-11 -9 -12 -22l-24 -320v-4q-2 -12 9 -20t21 -8h244q10 0 21 8t9 20l4 3zM1876 68q0 -73 -46 -73h-704q13 0 22 9t8 23l-20 256q-2 14 -12 23q-11 9 -24 9h-272q-14 0 -24 -9q-11 -9 -12 -22l-20 -256
q-1 -13 8 -22t22 -9h-704q-46 0 -46 73q0 51 26 117l417 1044q9 19 27 33q20 14 39 14h339q-14 0 -24 -9q-11 -9 -12 -22l-15 -192q-2 -14 9 -23q9 -9 22 -9h166q13 0 22 9t8 23l-15 192q-2 14 -12 23q-11 9 -24 9h339q22 0 38 -13q18 -14 27 -33l417 -1044q26 -66 26 -117
l6 -4h-2z" />
    <glyph glyph-name="download_alt" unicode="&#xf019;" horiz-adv-x="1664" 
d="M1216 128q26 0 45 19t19 45t-19 45t-45 19t-45 -19t-19 -45t19 -45t45 -19zM1472 128q26 0 45 19t19 45t-19 45t-45 19t-45 -19t-19 -45t19 -45t45 -19zM1666 96q0 -41 -28 -69t-69 -28h-1472q-41 0 -69 28t-28 69v320q0 41 28 69t69 28h465l135 -136q59 -56 135 -56
t135 56l136 136h464q41 0 69 -28t28 -69zM1342 985q16 -42 -15 -70l-448 -448q-18 -19 -45 -19t-45 19l-448 448q-31 28 -15 70q16 39 60 39h256v448q0 26 19 45t45 19h256q26 0 45 -19t19 -45v-448h256q42 0 59 -39h2h-1z" />
    <glyph glyph-name="download" unicode="&#xf01a;" horiz-adv-x="1536" 
d="M1118 607q0 -14 -10 -24l-319 -319q-23 -18 -45 0l-320 320q-14 16 -6 36t30 20h192v352q0 14 9 23t23 9h192q14 0 23 -9t9 -23v-352h192q14 0 23 -9t9 -23zM1039 1110q-124 73 -273 73t-273 -73q-125 -74 -198 -198t-73 -273t73 -273q73 -125 198 -198q124 -73 273 -73
t273 73t198 198q73 124 73 273t-73 273q-74 124 -198 198zM1430 1025q103 -175 103 -385q0 -212 -103 -387q-104 -176 -279 -279t-385 -103q-212 0 -387 103q-176 103 -279 279q-103 175 -103 387q0 210 103 385t279 279q175 103 387 103q210 0 385 -103q177 -103 280 -280z
" />
    <glyph glyph-name="upload" unicode="&#xf01b;" horiz-adv-x="1536" 
d="M1120 661q-8 -20 -30 -20h-192v-352q0 -14 -9 -23t-23 -9h-192q-14 0 -23 9t-9 23v352h-192q-14 0 -23 9t-9 23t10 24l319 319q22 18 45 0l320 -320q13 -17 6 -36zM1043 1112q-124 73 -273 73t-273 -73q-125 -74 -198 -198t-73 -273t73 -273q73 -125 198 -198
q124 -73 273 -73t273 73t198 198q73 124 73 273t-73 273q-74 124 -198 198zM1434 1027q103 -175 103 -385q0 -212 -103 -387q-104 -176 -279 -279t-385 -103q-212 0 -387 103q-176 103 -279 279q-103 175 -103 387q0 210 103 385t279 279q175 103 387 103q210 0 385 -103
q177 -103 280 -280z" />
    <glyph glyph-name="inbox" unicode="&#xf01c;" horiz-adv-x="1536" 
d="M1339 576l-5 16l-212 496h-708l-212 -496l-5 -16h316l95 -192h320l95 192h316zM1535 64q0 -26 -19 -45t-45 -19h-1408q-26 0 -45 19t-19 45v482q0 66 25 123l238 552q10 24 36 42q25 18 54 18h832q27 0 53 -18q25 -18 36 -42l238 -552q25 -57 25 -123v-482h-1z" />
    <glyph glyph-name="play_circle" unicode="&#xf01d;" horiz-adv-x="1536" 
d="M609 265q-15 -9 -32 -9q-12 0 -33 8q-32 20 -32 56v640q0 36 32 56q33 18 64 -1l544 -320q32 -18 32 -55t-32 -55l-544 -320h1zM1240 367q73 124 73 273t-73 273q-74 124 -198 198q-124 73 -273 73t-273 -73q-125 -74 -198 -198t-73 -273t73 -273q73 -125 198 -198
q124 -73 273 -73t273 73t198 198zM1433 1026q103 -175 103 -385q0 -212 -103 -387q-104 -176 -279 -279t-385 -103q-212 0 -387 103q-176 103 -279 279q-103 175 -103 387q0 210 103 385t279 279q175 103 387 103q210 0 385 -103q177 -103 280 -280z" />
    <glyph glyph-name="repeat" unicode="&#xf01e;" horiz-adv-x="1536" 
d="M1534 827q0 -26 -19 -45t-45 -19h-448q-44 0 -60 40q-17 40 15 69l138 138q-149 137 -348 137q-138 0 -256 -69t-187 -187q-69 -119 -69 -255q0 -138 69 -256t187 -187t256 -69q122 0 225 52q106 52 180 147q7 10 24 12q13 0 24 -9l137 -138q9 -8 9 -20t-7 -22
q-110 -132 -264 -204q-150 -73 -327 -73q-159 0 -297 61q-143 61 -246 165q-104 103 -165 246q-61 138 -61 297t61 297q61 142 165 246q103 103 246 165q138 61 297 61q150 0 284 -55q139 -56 245 -156l130 129q28 31 70 15q39 -17 39 -60l-2 -452v-1z" />
    <glyph glyph-name="refresh" unicode="&#xf021;" horiz-adv-x="1536" 
d="M1508 478q0 -6 -1 -7q-65 -269 -267 -435t-477 -166q-148 0 -282 55q-137 55 -243 156l-129 -129q-27 -31 -69 -13t-40 59v448q0 26 19 45t45 19h448q41 2 59 -40t-13 -69l-137 -137q148 -138 348 -138q133 0 249 65q115 64 186 180q3 5 8 15l12 24q13 28 33 78
q8 23 30 23h192q14 0 23 -9t9 -22l-3 -3v1zM1528 829q0 -26 -19 -45t-45 -19h-448q-40 -1 -58 39q-18 42 14 69l138 138q-149 137 -348 137q-133 0 -249 -65t-186 -180q-3 -5 -7.5 -15t-11.5 -24q-14 -29 -33 -78q-8 -23 -30 -23h-199q-13 0 -22 9t-9 23v7q64 268 270 435
t480 167q149 0 284 -55q139 -56 246 -156l130 129q27 32 69 14q40 -18 39 -58l-4 -449h-1z" />
    <glyph glyph-name="list_alt" unicode="&#xf022;" 
d="M382 286q0 -13 -9 -22t-22 -9h-64q-13 0 -22 9t-9 23v64q0 14 9 23t23 9h64q14 0 23 -9t9 -22zM380 540q0 -13 -9 -22t-22 -9h-64q-13 0 -22 9t-9 23v64q0 14 9 23t23 9h64q14 0 23 -9t9 -22zM378 794q0 -13 -9 -22t-22 -9h-64q-13 0 -22 9t-9 23v64q0 14 9 23t23 9h64
q14 0 23 -9t9 -22zM1528 280q0 -13 -9 -22t-22 -9h-960q-13 0 -22 9t-9 23v64q0 14 9 23t23 9h960q14 0 23 -9t9 -22zM1526 534q0 -13 -9 -22t-22 -9h-960q-13 0 -22 9t-9 23v64q0 14 9 23t23 9h960q14 0 23 -9t9 -22zM1524 788q0 -13 -9 -22t-22 -9h-960q-13 0 -22 9t-9 23
v64q0 14 9 23t23 9h960q14 0 23 -9t9 -22zM1650 978q0 14 -9 23t-22 9h-1472q-13 0 -22 -9t-9 -22v-832q0 -13 9 -22t23 -9h1472q14 0 23 9t9 23zM1778 146q0 -66 -47 -113t-113 -47h-1472q-66 0 -113 47t-47 113v1088q0 66 47 113t113 47h1472q66 0 113 -47t47 -113v-1088z
" />
    <glyph glyph-name="lock" unicode="&#xf023;" horiz-adv-x="1152" 
d="M832 768v192q0 106 -75 181t-181 75t-181 -75t-75 -181v-192h512zM1152 96q0 -41 -28 -69t-69 -28h-960q-41 0 -69 28t-28 69v576q0 41 28 69t69 28h32v192q0 184 132 316t316 132t316 -132t132 -316v-192h32q41 0 69 -28t28 -69v-576z" />
    <glyph glyph-name="flag" unicode="&#xf024;" 
d="M319 1279q0 -74 -64 -111v-1266q0 -13 -9 -22t-22 -9h-64q-13 0 -22 9t-9 23v1266q-64 37 -64 111q0 53 37 90q38 38 90 38t90 -38t38 -90zM1792 448q0 -24 -12 -37t-40 -28q-215 -116 -369 -116q-110 0 -231 70q-46 25 -116 48q-65 22 -142 22q-192 0 -464 -146
q-17 -9 -33 -9q-26 0 -45 19t-19 45v742q0 33 31 55q13 10 33 21q10 5 21 11t24 12q235 120 420 120q102 0 200 -29q22 -7 46.5 -15.5t51.5 -19.5t57 -23.5t63 -28.5q37 -19 88 -19q54 0 117 21q61 19 111 48l88 47q42 21 55 21q26 0 45 -19t19 -45l1 -765v-2z" />
    <glyph glyph-name="headphones" unicode="&#xf025;" horiz-adv-x="1664" 
d="M1662 651q0 -167 -60 -315l-20 -49l-185 -33q-23 -86 -90 -138q-68 -53 -156 -53v-32q0 -14 -9 -23t-23 -9h-64q-14 0 -23 9t-9 23v576q0 14 9 23t23 9h64q14 0 23 -9t9 -23v-32q70 0 129 -35q58 -35 93 -96l68 12q29 99 29 192q0 149 -88 279q-89 131 -237 209
q-149 78 -315 78q-168 0 -316 -78q-146 -77 -236 -209q-88 -130 -88 -279q0 -93 29 -192l68 -12q34 61 93 96t129 35v32q0 14 9 23t23 9h64q14 0 23 -9t9 -23v-576q0 -14 -9 -23t-23 -9h-64q-14 0 -23 9t-9 23v32q-85 0 -156 53q-67 54 -90 137l-185 33l-20 49
q-60 148 -60 315q0 156 67 291q69 142 179 243q112 103 267 165q150 61 320 61t320 -61q154 -62 267 -165q110 -101 179 -243q67 -135 67 -291h1z" />
    <glyph glyph-name="volume_off" unicode="&#xf026;" horiz-adv-x="768" 
d="M768 94q1 -40 -39 -58q-42 -18 -69 14l-333 333h-262q-26 0 -45 19t-19 45v384q0 26 19 45t45 19h262l333 333q27 32 69 14q40 -18 39 -58v-1090v0z" />
    <glyph glyph-name="volume_down" unicode="&#xf027;" horiz-adv-x="1152" 
d="M768 94q1 -40 -39 -58q-42 -18 -69 14l-333 333h-262q-26 0 -45 19t-19 45v384q0 26 19 45t45 19h262l333 333q27 32 69 14q40 -18 39 -58v-1090zM995 401q-15 -5 -25 -5q-26 0 -45 18t-19 45q0 20 12 35t29 26q4 2 8 5t9 6t9 6l8 6q17 14 29 36q12 24 12 57t-12 57
q-12 22 -29 36q-4 3 -7.5 6t-8.5 6t-8.5 6t-7.5 5q-17 11 -29 26t-12 35q0 27 19 45t45 18q10 0 25 -5q70 -27 112 -93q43 -64 43 -141t-43 -141q-42 -65 -112 -93v-2h-2z" />
    <glyph glyph-name="volume_up" unicode="&#xf028;" horiz-adv-x="1664" 
d="M768 94q1 -40 -39 -58q-42 -18 -69 14l-333 333h-262q-26 0 -45 19t-19 45v384q0 26 19 45t45 19h262l333 333q27 32 69 14q40 -18 39 -58v-1090zM995 401q-15 -5 -25 -5q-26 0 -45 18t-19 45q0 20 12 35t29 26q4 2 8 5t9 6t9 6l8 6q17 14 29 36q12 24 12 57t-12 57
q-12 22 -29 36q-4 3 -7.5 6t-8.5 6t-8.5 6t-7.5 5q-17 11 -29 26t-12 35q0 27 19 45t45 18q10 0 25 -5q70 -27 112 -93q43 -64 43 -141t-43 -141q-42 -65 -112 -93v-2h-2zM1093 170q-18 -5 -24 -5q-27 0 -46 19t-19 45q0 40 39 60l26 13t21 11t16.5 9.5t12.5 8.5
q74 56 116 135q42 81 42 173t-42 173q-42 83 -115 135q-5 4 -12 8.5t-16 9.5t-21 11l-26 13q-39 19 -39 60q0 26 19 45t45 19q8 0 26 -5q139 -59 225 -189q85 -127 85 -282q0 -153 -85 -283q-86 -131 -225 -189l-1 1zM1194 -68q-18 -5 -26 -5q-26 0 -45 19t-19 45
q0 36 39 59q5 4 23 12q5 2 8.5 3.5t6.5 3.5q6 3 8 5q43 24 81 51q124 91 192 228q69 136 69 288q0 151 -69 288q-68 136 -192 228q-38 27 -81 51q-3 3 -7 5q-3 2 -6.5 3.5t-8.5 3.5q-17 7 -24 9q-39 22 -39 60q0 26 19 45t45 19q8 0 26 -5q211 -92 339 -285
q127 -190 127 -423q0 -230 -127 -423q-128 -191 -339 -282v2v-5z" />
    <glyph glyph-name="qrcode" unicode="&#xf029;" horiz-adv-x="1408" 
d="M384 256h-128v128h128v-128zM384 1024h-128v128h128v-128zM1152 1024h-128v128h128v-128zM512 129v383h-384v-383h384zM512 896v384h-384v-384h384zM1280 896v384h-384v-384h384zM640 0h-640v640h640v-640zM1152 0h-128v128h128v-128zM1408 0h-128v128h128v-128z
M1408 256h-384v128h-128v-384h-128v640h384v-128h128v128h128v-384zM640 768h-640v640h640v-640zM1408 768h-640v640h640v-640z" />
    <glyph glyph-name="barcode" unicode="&#xf02a;" 
d="M0 0v1408h63v-1408h-63zM94 1v1407h32v-1407h-32zM189 1v1407h31v-1407h-31zM346 1v1407h31v-1407h-31zM472 1v1407h62v-1407h-62zM629 1v1407h31v-1407h-31zM692 1v1407h31v-1407h-31zM755 1v1407h31v-1407h-31zM880 1v1407h63v-1407h-63zM1037 1v1407h63v-1407h-63z
M1163 1v1407h63v-1407h-63zM1289 1v1407h63v-1407h-63zM1383 1v1407h63v-1407h-63zM1541 1v1407h94v-1407h-94zM1666 1v1407h32v-1407h-32zM1729 0v1408h63v-1408h-63z" />
    <glyph glyph-name="tag" unicode="&#xf02b;" horiz-adv-x="1536" 
d="M409 998q38 38 38 90t-38 90t-90 38t-90 -38q-37 -37 -37 -90q0 -54 37 -91t91 -37q53 0 90 37zM986 -71q-37 -37 -90 -37t-90 37l-715 716q-40 39 -66 101q-26 69 -26 117v416q0 52 38 90t90 38h416q52 0 117 -27q64 -26 102 -63l715 -714q37 -37 37 -90t-37 -90
l-492 -493z" />
    <glyph glyph-name="tags" unicode="&#xf02c;" horiz-adv-x="1920" 
d="M409 998q38 38 38 90t-38 90t-90 38t-90 -38q-37 -37 -37 -90q0 -54 37 -91t91 -37q53 0 90 37zM986 -71q-37 -37 -90 -37t-90 37l-715 716q-40 39 -66 101q-26 69 -26 117v416q0 52 38 90t90 38h416q52 0 117 -27q64 -26 102 -63l715 -714q37 -37 37 -90t-37 -90
l-492 -493zM1368 -70q-37 -37 -90 -37q-35 0 -57 13q-24 13 -54 45l470 470q37 37 37 90t-37 90l-715 714q-38 37 -102 63q-65 27 -117 27h224q52 0 117 -27q64 -26 102 -63l715 -714q37 -37 37 -90t-37 -90l-493 -492v1z" />
    <glyph glyph-name="book" unicode="&#xf02d;" horiz-adv-x="1664" 
d="M1638 1051q40 -57 18 -129l-275 -906q-20 -65 -78 -108q-59 -44 -123 -44h-923q-77 0 -149 54q-71 52 -99 132q-24 68 -2 126q0 4 3 27l4 37q1 4 -2 21q-3 15 -3 20q0 10 7 20q7 12 18 27q2 4 4.5 7.5t4.5 6.5q5 6 6 10q21 34 45 90q22 54 30 92q1 7 0 30q-2 22 0 27
q3 10 17 27t17 23q19 32 42 92q19 52 24 90q2 9 -3 32q-3 24 1 28q4 13 21 30l22 23q19 25 42 84q22 55 27 96q0 4 -3 25q-3 18 -1 28q1 7 9 18q4 5 9 11.5t12 14.5l16 20q2 4 4.5 7.5t4.5 8.5t4.5 10t4.5 10q10 22 18 42t21 41q12 22 27 33q18 11 39 17q26 6 54 -4l-1 -3
q37 9 51 9h761q73 0 114 -56q40 -56 18 -129l-274 -906q-36 -119 -72 -153q-34 -34 -129 -34h-869q-29 0 -39 -15q-11 -17 0 -42q24 -70 144 -70h923q32 0 57 16q28 16 36 42l300 987q7 19 6 57q41 -15 60 -43l2 -3zM572 1046q-4 -13 2 -22t20 -9h608q14 0 26 9t17 23l21 64
q4 13 -2 24q-6 9 -20 9h-608q-13 0 -25 -9t-16 -22l-23 -66v-1zM487 787q-4 -13 2 -22t20 -9h608q14 0 26 9t17 23l21 64q4 13 -2 24q-6 9 -20 9h-608q-13 0 -25 -9t-16 -22l-23 -66v-1z" />
    <glyph glyph-name="bookmark" unicode="&#xf02e;" horiz-adv-x="1280" 
d="M1157 1408q23 0 44 -9q34 -14 54 -42q20 -29 20 -63v-1289q0 -35 -19 -63q-20 -29 -51 -42q-24 -8 -45 -8q-48 0 -83 32l-441 424l-441 -424q-36 -33 -83 -33q-23 0 -44 9q-32 13 -51 42q-19 28 -19 63v1289q0 34 20 63q19 28 54 42q21 9 44 9h1044h-3z" />
    <glyph glyph-name="print" unicode="&#xf02f;" horiz-adv-x="1664" 
d="M1280 0v256h-896v-256h896zM1281 639v384h-160q-41 0 -69 28t-28 69v160h-640l1 -641h896zM1473 511q26 0 45 19t19 45t-19 45t-45 19t-45 -19t-19 -45t19 -45t45 -19zM1665 156q0 -13 -9 -22t-22 -9h-224v-160q0 -41 -28 -69t-69 -28h-960q-41 0 -69 28t-28 69v160h-224
q-13 0 -22 9t-9 23v416q0 79 56 135q57 57 136 57h64v544q0 41 28 69t69 28h672q36 0 88 -20q46 -20 75 -48l152 -152q28 -29 48 -75q20 -52 20 -88v-256h64q79 0 135 -57q57 -56 57 -135v-419z" />
    <glyph glyph-name="camera" unicode="&#xf030;" horiz-adv-x="1920" 
d="M756 779q85 85 204 85t203 -85q85 -84 85 -203t-85 -204q-84 -84 -203 -84t-204 84q-84 85 -84 204t84 203zM1666 1280q106 0 181 -75t75 -181v-896q0 -106 -75 -181t-181 -75h-1408q-106 0 -181 75t-75 181v896q0 106 75 181t181 75h224l51 136q19 49 69 84
q51 36 104 36h512q52 0 102 -36q49 -35 69 -84l51 -136h225h1zM644 260q134 -131 318 -131t315 131q132 132 132 317q0 184 -132 315q-131 132 -315 132q-185 0 -317 -132q-131 -131 -131 -315t131 -318z" />
    <glyph glyph-name="font" unicode="&#xf031;" horiz-adv-x="1664" 
d="M580 523h51h59q35 -1 62.5 -1h47.5h51h18q7 0 16.5 0.5t22.5 1.5q-22 64 -44 123.5t-45 116.5t-46 109.5t-48 103.5l-172 -452zM-6 -52q16 4 62 12q43 7 51 9q46 10 78 30q31 19 48 63l237 616l280 724h75h53q10 -20 12 -21l205 -480l106 -258l114 -274q3 -7 8 -19
t13 -30t17.5 -42t20.5 -54q43 -110 72 -168q19 -44 36 -57q21 -17 88 -30q69 -15 84 -21q6 -38 6 -57v-15v-12q-14 0 -32.5 0.5t-41.5 1.5q-47 2 -116 6t-117 6q-24 1 -43 1.5t-33 0.5h-46t-51 -1q-54 -2 -120 -6q-78 -5 -178 -9v21.5t1 20.5q1 19 3 36l131 28q1 0 12 3
q8 2 15.5 4t14.5 4q38 11 38 39q0 21 -31 96l-72 178l-42 100l-450 2q-8 -17 -16 -38t-18 -45t-20.5 -52t-21.5 -60q-50 -141 -50 -162q0 -44 57 -62q6 -2 12 -3.5t12 -3.5t12 -3t13 -3q19 -5 57 -9q16 -2 27 -3q5 -1 9 -1h6q1 -5 1 -21v-37v-8v-7.5t-1 -10.5q-32 0 -75 3
q-22 2 -46.5 4t-52.5 4t-52.5 4t-46.5 4q-44 3 -75 3q-14 0 -27 -4t-21 -4q-21 -4 -43 -6t-45 -4q-47 -3 -100 -3l2 85z" />
    <glyph glyph-name="bold" unicode="&#xf032;" horiz-adv-x="1408" 
d="M553 13q78 -32 141 -32q376 0 376 335q0 112 -41 180q-50 82 -129 120q-35 16 -81 24q-50 10 -84 12q-12 1 -24 1.5t-24 0.5h-46q-77 0 -101 -10v-84v-38.5t-1 -35.5v-158v-31v-18t-1 -19t-1 -20.5v-22.5v-52q1 -27 3 -49t3 -35q4 -47 12 -66zM539 757q19 -4 47 -6
q14 -1 29.5 -1h32.5q163 0 253 57q100 66 100 232q0 59 -19 101q-20 46 -51 75q-32 28 -78 48q-42 19 -93 28q-48 9 -100 9q-58 0 -129 -13v-33t1 -36t1.5 -39t1.5 -43t1.5 -43t1.5 -39t1 -36v-33v-43v-19t-1 -17v-79v-44q0 -19 1 -24l1 -1zM-4 -46q9 4 85 16q70 12 106 27
q19 33 27 93q4 15 4 72v36v30q0 983 -22 1026q-8 16 -66 24q-8 2 -15.5 3t-13.5 2l-20 3q-9 1 -21 3q-12 1 -27 3q-30 3 -31 3l-4 83q76 1 340 12q58 2 109.5 4t98.5 4q93 3 165 3h36h16t16 -1h68q88 0 171 -21q87 -23 153 -64q69 -44 111 -117q42 -74 42 -165
q0 -97 -56 -168q-23 -29 -63 -57q-44 -30 -72 -45q-6 -4 -14 -7.5t-19 -8.5t-23.5 -10.5t-27.5 -12.5q151 -35 255 -135q103 -99 103 -248q0 -100 -34 -177q-35 -80 -96 -132q-57 -50 -138 -84q-141 -63 -339 -63q-44 0 -132 3q-89 3 -132 3q-48 0 -124 -3q-38 -2 -83.5 -4
t-99.5 -4l-233 -15v89z" />
    <glyph glyph-name="italic" unicode="&#xf033;" horiz-adv-x="1024" 
d="M12 -48q2 1 7 2.5t13 3.5t18 5t23 7q91 21 132 42q28 34 42 102q2 14 7 39.5t13 61.5t18 83t23 106l114 543q52 267 51 297v25q-24 14 -55 18q-33 7 -69 9q-38 3 -57 6l19 103l120 -7q208 -9 270 -9h41q12 0 26 0.5t31 1.5l121 7l99 7q-2 -17 -6 -39q-5 -23 -12 -51
q-4 -2 -12 -4t-21 -6q-26 -8 -69 -18q-71 -18 -108 -33q-14 -35 -23 -83l-8 -45l-6 -42q-29 -161 -87 -420q-32 -149 -51 -237q-10 -45 -16 -74t-9 -43l-13 -58l-20 -90q-2 -8 -3.5 -16.5t-3.5 -19.5t-4 -22.5t-4 -25.5q-8 -42 -6 -57l1 -18q4 -2 51 -9q46 -8 135 -21
q-3 -52 -16 -99h-12h-9t-12 -1t-12 -1h-9h-12q-37 0 -87 10q-14 2 -26 4t-23 4q-21 3 -36 3q-47 1 -82.5 1.5t-61.5 0.5h-62q-53 0 -144 -9q-101 -11 -120 -12l18 84z" />
    <glyph glyph-name="text_height" unicode="&#xf034;" 
d="M1744 128q33 0 42 -18t-11 -44l-126 -162q-20 -26 -48 -26t-48 26l-126 162q-20 26 -11 44t42 18h80v1024h-80q-33 0 -42 18t11 44l126 162q20 26 48 26t48 -26l126 -162q20 -26 11 -44t-42 -18h-80v-1024h80zM133 1372q17 -5 211 -5h40q17 0 40 0.5t53 1.5t53 1.5
t40 0.5h40h57h26.5t23.5 -1h108h293h21h20q34 4 48 30l42 1h14h14q1 -38 1.5 -77.5t0.5 -81.5v-178v-35t-1 -30q-1 -26 -3 -43q-39 -13 -68 -18q-26 43 -54 129q-5 13 -12 48l-15 73q-6 35 -7 36q-12 17 -28 18l-13 3h-34h-67q-8 1 -17 1h-18h-38q-17 0 -33 -0.5t-33 -1.5
q-34 -2 -68 -6q-5 -44 -6 -76q-2 -33 0 -59v-78v-143v-167q1 -99 1.5 -175.5t0.5 -133.5v-144q0 -17 -3 -72q-4 -102 12 -160q40 -21 123 -42q45 -12 75 -21q15 -5 26.5 -8.5t19.5 -7.5q2 -24 3 -35q1 -6 1.5 -9.5t0.5 -4.5q0 -14 -3 -29l-34 -1q-86 -2 -218 9
q-35 2 -64.5 4t-55.5 4q-51 3 -86 3q-50 0 -150 -9q-101 -9 -152 -9q-3 51 -3 52v9q16 25 60 42q36 13 99 30q54 13 78 27q19 38 19 383q0 100 -3 303q-3 202 -3 303v117l1 16v24q0 52 -9 63q-11 12 -162 12q-33 0 -93 -12t-80 -26q-19 -13 -34 -73q-14 -50 -33 -111
q-17 -53 -42 -54q-42 26 -56 44v383l87 -3z" />
    <glyph glyph-name="text_width" unicode="&#xf035;" horiz-adv-x="1536" 
d="M132 1369q17 -5 211 -5h40q17 0 40 0.5t53 1.5t53 1.5t40 0.5h40h126h61t59 1q177 2 305 0h69t64 -1q61 -2 114 -3q33 -2 56 30l42 1h14h14q1 -38 1.5 -77.5t0.5 -81.5v-178v-35t-1 -30q-1 -26 -3 -43q-39 -13 -68 -18q-26 43 -54 129q-1 3 -2.5 8.5t-3.5 13.5
q-5 16 -9 42l-9 45q-1 5 -1.5 10t-1.5 10t-1.5 9t-1.5 8q-3 15 -3 14q-10 13 -27 19q-10 2 -66 2h-49h-22t-22 1t-22 1h-24h-56q-118 0 -190 -9q-5 -44 -6 -76q-2 -33 0 -59l1 -152v52v-83v-36.5t1 -34.5q1 -67 1.5 -120.5t0.5 -95.5v-117q0 -17 -3 -72q-4 -102 12 -160
q41 -20 124 -42q88 -23 120 -36q2 -24 3 -35q1 -6 1.5 -9.5t0.5 -4.5q0 -14 -3 -29l-34 -1q-86 -2 -218 9q-35 2 -64.5 4t-55.5 4q-51 3 -86 3q-50 0 -150 -9q-101 -9 -153 -9q-3 51 -3 52v9q16 25 60 42q36 13 99 30q54 13 78 27q16 37 18 219q1 30 1.5 54.5t0.5 44.5v58
v87v35.5t-1 30.5v89q0 4 -3 21q-3 16 -3 24v44q1 7 1 14.5v16.5v42q1 14 1 28.5v28.5t-0.5 28.5t-1.5 28.5q-3 55 -9 60q-11 12 -162 12q-20 0 -60 -3q-20 -2 -45.5 -4t-57.5 -6q-122 -14 -138 -24q-19 -12 -34 -72q-14 -50 -33 -111q-17 -53 -42 -54q-42 26 -56 44v383
l86 -7zM1301 109q10 0 42 -20q8 -5 16 -10.5t16 -10.5t14.5 -9.5t11.5 -9.5l60 -49l36 -30q26 -21 26 -49t-26 -49l-36 -30l-60 -49q-10 -8 -25 -19q-8 -5 -15.5 -10.5t-15.5 -10.5q-32 -20 -42 -20q-24 0 -31 39q-1 6 -1 11v10v14v21v11q0 3 2 9q1 3 1 6v3h-1024v-3
q0 -3 1 -6q2 -6 2 -9v-11v-21q0 -73 -33 -73q-10 0 -42 20q-8 5 -15.5 10.5t-15.5 10.5q-15 10 -27 21l-59 49l-36 30q-26 21 -26 49t26 49l36 30l59 49q12 10 27 21q8 5 16 10.5t16 10.5q32 20 42 20q25 0 30 -39q3 -18 3 -34v-21v-11q0 -6 -1 -9t-1 -6v-3h1024v3q0 3 -1 6
t-1 9v11v21q0 73 33 73l-2 -2z" />
    <glyph glyph-name="align_left" unicode="&#xf036;" 
d="M1792 64q0 -26 -19 -45t-45 -19h-1664q-26 0 -45 19t-19 45v128q0 26 19 45t45 19h1664q26 0 45 -19t19 -45v-128zM1408 448q0 -26 -19 -45t-45 -19h-1280q-26 0 -45 19t-19 45v128q0 26 19 45t45 19h1280q26 0 45 -19t19 -45v-128zM1664 832q0 -26 -19 -45t-45 -19
h-1536q-26 0 -45 19t-19 45v128q0 26 19 45t45 19h1536q26 0 45 -19t19 -45v-128zM1280 1216q0 -26 -19 -45t-45 -19h-1152q-26 0 -45 19t-19 45v128q0 26 19 45t45 19h1152q26 0 45 -19t19 -45v-128z" />
    <glyph glyph-name="align_center" unicode="&#xf037;" 
d="M1792 64q0 -26 -19 -45t-45 -19h-1664q-26 0 -45 19t-19 45v128q0 26 19 45t45 19h1664q26 0 45 -19t19 -45v-128zM1408 448q0 -26 -19 -45t-45 -19h-896q-26 0 -45 19t-19 45v128q0 26 19 45t45 19h896q26 0 45 -19t19 -45v-128zM1664 832q0 -26 -19 -45t-45 -19h-1408
q-26 0 -45 19t-19 45v128q0 26 19 45t45 19h1408q26 0 45 -19t19 -45v-128zM1280 1216q0 -26 -19 -45t-45 -19h-640q-26 0 -45 19t-19 45v128q0 26 19 45t45 19h640q26 0 45 -19t19 -45v-128z" />
    <glyph glyph-name="align_right" unicode="&#xf038;" 
d="M1792 64q0 -26 -19 -45t-45 -19h-1664q-26 0 -45 19t-19 45v128q0 26 19 45t45 19h1664q26 0 45 -19t19 -45v-128zM1792 448q0 -26 -19 -45t-45 -19h-1280q-26 0 -45 19t-19 45v128q0 26 19 45t45 19h1280q26 0 45 -19t19 -45v-128zM1792 832q0 -26 -19 -45t-45 -19
h-1536q-26 0 -45 19t-19 45v128q0 26 19 45t45 19h1536q26 0 45 -19t19 -45v-128zM1792 1216q0 -26 -19 -45t-45 -19h-1152q-26 0 -45 19t-19 45v128q0 26 19 45t45 19h1152q26 0 45 -19t19 -45v-128z" />
    <glyph glyph-name="align_justify" unicode="&#xf039;" 
d="M1792 64q0 -26 -19 -45t-45 -19h-1664q-26 0 -45 19t-19 45v128q0 26 19 45t45 19h1664q26 0 45 -19t19 -45v-128zM1792 448q0 -26 -19 -45t-45 -19h-1664q-26 0 -45 19t-19 45v128q0 26 19 45t45 19h1664q26 0 45 -19t19 -45v-128zM1792 832q0 -26 -19 -45t-45 -19
h-1664q-26 0 -45 19t-19 45v128q0 26 19 45t45 19h1664q26 0 45 -19t19 -45v-128zM1792 1216q0 -26 -19 -45t-45 -19h-1664q-26 0 -45 19t-19 45v128q0 26 19 45t45 19h1664q26 0 45 -19t19 -45v-128z" />
    <glyph glyph-name="list" unicode="&#xf03a;" 
d="M254 30q0 -13 -9 -22t-22 -9h-192q-13 0 -22 9t-9 23v192q0 14 9 23t23 9h192q14 0 23 -9t9 -22zM252 412q0 -13 -9 -22t-22 -9h-192q-13 0 -22 9t-9 23v192q0 14 9 23t23 9h192q14 0 23 -9t9 -22zM250 794q0 -13 -9 -22t-22 -9h-192q-13 0 -22 9t-9 23v192q0 14 9 23
t23 9h192q14 0 23 -9t9 -22zM1784 24q0 -13 -9 -22t-22 -9h-1344q-13 0 -22 9t-9 23v192q0 14 9 23t23 9h1344q14 0 23 -9t9 -22zM246 1174q0 -13 -9 -22t-22 -9h-192q-13 0 -22 9t-9 23v192q0 14 9 23t23 9h192q14 0 23 -9t9 -22zM1780 404q0 -13 -9 -22t-22 -9h-1344
q-13 0 -22 9t-9 23v192q0 14 9 23t23 9h1344q14 0 23 -9t9 -22zM1778 786q0 -13 -9 -22t-22 -9h-1344q-13 0 -22 9t-9 23v192q0 14 9 23t23 9h1344q14 0 23 -9t9 -22zM1776 1168q0 -13 -9 -22t-22 -9h-1344q-13 0 -22 9t-9 23v192q0 14 9 23t23 9h1344q14 0 23 -9t9 -22z
" />
    <glyph glyph-name="indent_left" unicode="&#xf03b;" 
d="M383 414q0 -13 -9 -22t-22 -9q-14 0 -23 9l-288 288q-9 9 -9 23t9 23l288 288q9 9 23 9t23 -9t9 -22zM1789 28q0 -13 -9 -22t-22 -9h-1728q-13 0 -22 9t-9 23v192q0 14 9 23t23 9h1728q14 0 23 -9t9 -22zM1787 410q0 -13 -9 -22t-22 -9h-1088q-13 0 -22 9t-9 23v192
q0 14 9 23t23 9h1088q14 0 23 -9t9 -22zM1785 792q0 -13 -9 -22t-22 -9h-1088q-13 0 -22 9t-9 23v192q0 14 9 23t23 9h1088q14 0 23 -9t9 -22zM1783 1174q0 -13 -9 -22t-22 -9h-1728q-13 0 -22 9t-9 23v192q0 14 9 23t23 9h1728q14 0 23 -9t9 -22z" />
    <glyph glyph-name="indent_right" unicode="&#xf03c;" 
d="M54 393q-9 -9 -23 -9q-13 0 -22 9t-9 23v576q0 14 9 23t23 9t23 -9l288 -288q9 -9 9 -23t-9 -23zM1789 30q0 -13 -9 -22t-22 -9h-1728q-13 0 -22 9t-9 23v192q0 14 9 23t23 9h1728q14 0 23 -9t9 -22zM1787 412q0 -13 -9 -22t-22 -9h-1088q-13 0 -22 9t-9 23v192
q0 14 9 23t23 9h1088q14 0 23 -9t9 -22zM1785 794q0 -13 -9 -22t-22 -9h-1088q-13 0 -22 9t-9 23v192q0 14 9 23t23 9h1088q14 0 23 -9t9 -22zM1783 1176q0 -13 -9 -22t-22 -9h-1728q-13 0 -22 9t-9 23v192q0 14 9 23t23 9h1728q14 0 23 -9t9 -22z" />
    <glyph glyph-name="facetime_video" unicode="&#xf03d;" 
d="M1792 97q0 -44 -39 -60q-18 -5 -24 -5q-27 0 -45 19l-403 403v-166q0 -119 -85 -204q-84 -84 -203 -84h-704q-119 0 -204 84q-84 85 -84 204v704q0 119 84 203q85 85 204 85h704q119 0 203 -85q85 -84 85 -203v-165l403 402q18 19 45 19q6 0 24 -5q39 -17 39 -59v-1088v1
z" />
    <glyph glyph-name="picture" unicode="&#xf03e;" horiz-adv-x="1920" 
d="M448 1152q79 0 135 -56t56 -135t-56 -135t-135 -56t-135 56t-56 135t56 135t135 56zM1664 128h-1408v192l320 320l160 -160l512 512l416 -416v-448zM158 1278q-13 0 -22 -9t-9 -22v-1216q0 -13 9 -22t23 -9h1600q14 0 23 9t9 23v1216q0 14 -9 23t-22 9zM1918 30
q0 -66 -47 -113t-113 -47h-1600q-66 0 -113 47t-47 113v1216q0 66 47 113t113 47h1600q66 0 113 -47t47 -113v-1216z" />
    <glyph glyph-name="pencil" unicode="&#xf040;" horiz-adv-x="1536" 
d="M454 91l-235 235l-91 -91v-107h128v-128h107zM886 928q0 22 -22 22q-11 0 -18 -7l-542 -542q-7 -7 -7 -18q0 -22 22 -22q11 0 18 7l542 542q7 7 7 18zM1248 704l-832 -832h-416v416l832 832zM897 1183l166 165q36 38 90 38q52 0 90 -38l235 -234q37 -37 37 -90t-37 -90
l-165 -167z" />
    <glyph glyph-name="map_marker" unicode="&#xf041;" horiz-adv-x="1024" 
d="M512 640q106 0 181 75t75 181t-75 181t-181 75t-181 -75t-75 -181t75 -181t181 -75zM1023 896q0 -110 -33 -180l-364 -774q-20 -47 -66 -63q-48 -17 -96 0q-47 16 -66 63l-365 774q-33 70 -33 180q0 212 150 362t362 150t362 -150t150 -362h1h-2z" />
    <glyph glyph-name="adjust" unicode="&#xf042;" horiz-adv-x="1536" 
d="M768 1182q-221 4 -384 -159q-164 -164 -159 -384q-5 -221 159 -384q163 -164 384 -159v1086zM1432 1024q103 -175 103 -385q0 -212 -103 -387q-104 -176 -279 -279t-385 -103q-212 0 -387 103q-176 103 -279 279q-103 175 -103 387q0 210 103 385t279 279
q175 103 387 103q210 0 385 -103q177 -103 280 -280z" />
    <glyph glyph-name="tint" unicode="&#xf043;" horiz-adv-x="1024" 
d="M509 386q0 34 -20 69l-16 22q-1 3 -5 9q-2 2 -4 5t-4 7l-7 11q-2 2 -2.5 3t-1.5 2q-32 49 -45 96q-4 16 -21 16t-21 -16q-14 -47 -45 -96l-26 -38l-15 -22q-20 -35 -20 -69q0 -54 37 -91t91 -37q53 0 90 37q38 38 38 90v1zM1023 510q0 -212 -150 -362t-362 -150t-362 150
t-150 362q0 144 81 275l62 90q17 24 31.5 45.5t27.5 40.5q25 37 42 66q11 17 23 36.5t24 41.5t25.5 46.5t27.5 52.5q13 26 24.5 51.5t22.5 50.5q21 49 36 99q9 32 34 48q26 17 51 17q29 0 51 -16q24 -17 33 -45q15 -50 36 -99q11 -25 22.5 -50.5t24.5 -51.5q27 -53 51 -96
q12 -22 24 -42t23 -39l101 -151l63 -90q81 -128 81 -276l1 -1z" />
    <glyph glyph-name="edit" unicode="&#xf044;" 
d="M1004 468l-152 152l-116 -116v-56h96v-96h56zM945 721q-17 -17 0 -33q16 -17 33 0l350 350q16 16 0 33q-17 16 -33 0zM1408 289q0 -119 -85 -204q-84 -84 -203 -84h-832q-119 0 -204 84q-84 85 -84 204v832q0 119 84 203q85 85 204 85h832q67 0 117 -25q15 -8 18 -24
q3 -17 -9 -29l-49 -49q-14 -14 -32 -8q-23 6 -45 6h-832q-66 0 -113 -47t-47 -113v-832q0 -66 47 -113t113 -47h832q66 0 113 47t47 113v126q0 13 9 22l64 64q15 15 35 7t20 -29v-190v1zM1600 929l-672 -672h-288v288l672 672zM1374 1283l92 92q28 28 69 28t69 -28l152 -152
q28 -28 28 -69t-28 -69l-94 -90z" />
    <glyph glyph-name="share" unicode="&#xf045;" horiz-adv-x="1664" 
d="M1406 287q0 -119 -85 -204q-84 -84 -203 -84h-832q-119 0 -204 84q-84 85 -84 204v832q0 119 84 203q85 85 204 85h255q14 0 23 -9t9 -22q0 -27 -26 -32q-77 -25 -133 -60q-7 -4 -15 -4h-112q-66 0 -113 -47t-47 -113v-832q0 -66 47 -113t113 -47h832q66 0 113 47t47 113
v214q0 18 18 29q30 13 54 36q16 16 36 9q21 -9 21 -29l-1 -260h-1zM1259 654q-18 -19 -45 -19q-6 0 -24 5q-39 16 -39 60v192h-160q-322 0 -438 -131q-119 -137 -74 -473q3 -22 -20 -33q-3 -1 -8 -1h-4q-17 0 -27 13q-10 11 -21 31q-8 13 -18 30q-5 8 -10.5 17.5t-11.5 20.5
q-7 13 -13.5 25.5t-12.5 24.5t-12 24.5t-11 25.5q-21 48 -39 114q-17 73 -17 123q0 25 1.5 48t3.5 46q4 45 12 87q22 94 75 169q163 226 645 226h160v192q0 42 39 59q18 5 24 5q26 0 45 -19l384 -384q19 -19 19 -45t-19 -45l-384 -384v-4z" />
    <glyph glyph-name="check" unicode="&#xf046;" horiz-adv-x="1664" 
d="M1408 289q0 -119 -85 -204q-84 -84 -203 -84h-832q-119 0 -204 84q-84 85 -84 204v832q0 119 84 203q85 85 204 85h832q67 0 117 -25q15 -8 18 -24q3 -17 -9 -29l-49 -49q-10 -10 -24 -10q1 0 -1.5 0.5l-7.5 1.5q-23 6 -45 6h-832q-66 0 -113 -47t-47 -113v-832
q0 -66 47 -113t113 -47h832q66 0 113 47t47 113v254q0 13 9 22l64 64q10 10 24 10q6 0 12 -3q20 -8 20 -29v-318v1zM825 282q-24 -24 -57 -24t-57 24l-430 430q-24 24 -24 57t24 57l110 110q24 24 57 24t57 -24l263 -263l647 647q24 24 57 24t57 -24l110 -110q24 -24 24 -57
t-24 -57z" />
    <glyph glyph-name="move" unicode="&#xf047;" 
d="M1513 335q-27 -31 -69 -13t-40 59v128h-384v-384h128q41 2 59 -40t-13 -69l-256 -256q-19 -19 -45 -19t-45 19l-256 256q-31 27 -13 69t59 40h128v384h-384v-128q1 -40 -39 -58q-42 -18 -69 14l-256 256q-19 19 -19 45t19 45l256 256q27 32 69 14q40 -18 39 -58v-128h384
v384h-128q-40 -1 -58 39q-18 42 14 69l256 256q19 19 45 19t45 -19l256 -256q32 -27 14 -69q-18 -40 -58 -39h-128v-384h384v128q-2 41 40 59t69 -13l256 -256q19 -19 19 -45t-19 -45l-260 -260v0z" />
    <glyph glyph-name="step_backward" unicode="&#xf048;" horiz-adv-x="1024" 
d="M979 1396q19 19 33 13q13 -6 13 -32v-1472q0 -26 -13 -32q-14 -6 -33 13l-710 710q-8 7 -13 18v-678q0 -26 -19 -45t-45 -19h-128q-26 0 -45 19t-19 45v1408q0 26 19 45t45 19h128q26 0 45 -19t19 -45v-678q4 10 13 19l710 710v1z" />
    <glyph glyph-name="fast_backward" unicode="&#xf049;" 
d="M1747 1397q19 19 33 13q13 -6 13 -32v-1472q0 -26 -13 -32q-14 -6 -33 13l-710 710q-8 7 -13 18v-710q0 -26 -13 -32q-14 -6 -33 13l-710 710q-8 7 -13 18v-678q0 -26 -19 -45t-45 -19h-128q-26 0 -45 19t-19 45v1408q0 26 19 45t45 19h128q26 0 45 -19t19 -45v-678
q4 10 13 19l710 710q19 19 33 13q13 -6 13 -32v-710q4 10 13 19l710 710v2z" />
    <glyph glyph-name="backward" unicode="&#xf04a;" horiz-adv-x="1664" 
d="M1619 1396q19 19 33 13q13 -6 13 -32v-1472q0 -26 -13 -32q-14 -6 -33 13l-710 710q-8 7 -13 18v-710q0 -26 -13 -32q-14 -6 -33 13l-710 710q-19 19 -19 45t19 45l710 710q19 19 33 13q13 -6 13 -32v-710q4 10 13 19l710 710v1z" />
    <glyph glyph-name="play" unicode="&#xf04b;" horiz-adv-x="1408" 
d="M55 -131q-23 -14 -39 -3q-16 10 -16 36v1472q0 25 17 36q16 10 39 -3l1328 -738q23 -14 23 -30t-23 -30l-1329 -738v-2z" />
    <glyph glyph-name="pause" unicode="&#xf04c;" horiz-adv-x="1536" 
d="M1536 -64q0 -26 -19 -45t-45 -19h-512q-26 0 -45 19t-19 45v1408q0 26 19 45t45 19h512q26 0 45 -19t19 -45v-1408zM640 -64q0 -26 -19 -45t-45 -19h-512q-26 0 -45 19t-19 45v1408q0 26 19 45t45 19h512q26 0 45 -19t19 -45v-1408z" />
    <glyph glyph-name="stop" unicode="&#xf04d;" horiz-adv-x="1536" 
d="M1536 -64q0 -26 -19 -45t-45 -19h-1408q-26 0 -45 19t-19 45v1408q0 26 19 45t45 19h1408q26 0 45 -19t19 -45v-1408v0z" />
    <glyph glyph-name="forward" unicode="&#xf04e;" horiz-adv-x="1664" 
d="M45 -116q-19 -19 -33 -13q-13 6 -13 32v1472q0 26 13 32q14 6 33 -13l710 -710q8 -10 12 -19v710q0 26 13 32q14 6 33 -13l710 -710q19 -19 19 -45t-19 -45l-710 -710q-19 -19 -33 -13q-13 6 -13 32v710q-5 -11 -12 -18l-710 -710v-1z" />
    <glyph glyph-name="fast_forward" unicode="&#xf050;" 
d="M45 -117q-19 -19 -33 -13q-13 6 -13 32v1472q0 26 13 32q14 6 33 -13l710 -710q8 -10 12 -19v710q0 26 13 32q14 6 33 -13l710 -710q8 -10 12 -19v678q0 26 19 45t45 19h128q26 0 45 -19t19 -45v-1408q0 -26 -19 -45t-45 -19h-128q-26 0 -45 19t-19 45v678
q-5 -11 -12 -18l-710 -710q-19 -19 -33 -13q-13 6 -13 32v710q-5 -11 -12 -18l-710 -710v-2z" />
    <glyph glyph-name="step_forward" unicode="&#xf051;" horiz-adv-x="1024" 
d="M45 -116q-19 -19 -33 -13q-13 6 -13 32v1472q0 26 13 32q14 6 33 -13l710 -710q8 -10 12 -19v678q0 26 19 45t45 19h128q26 0 45 -19t19 -45v-1408q0 -26 -19 -45t-45 -19h-128q-26 0 -45 19t-19 45v678q-5 -11 -12 -18l-710 -710v-1z" />
    <glyph glyph-name="eject" unicode="&#xf052;" horiz-adv-x="1538" 
d="M724 1267q19 19 45 19t45 -19l710 -710q19 -19 13 -33q-6 -13 -32 -13h-1472q-26 0 -32 13q-6 14 13 33zM65 0q-26 0 -45 19t-19 45v256q0 26 19 45t45 19h1408q26 0 45 -19t19 -45v-256q0 -26 -19 -45t-45 -19h-1408z" />
    <glyph glyph-name="chevron_left" unicode="&#xf053;" horiz-adv-x="1280" 
d="M1171 173q19 -19 19 -45t-19 -45l-166 -166q-19 -19 -45 -19t-45 19l-742 742q-19 19 -19 45t19 45l742 742q19 19 45 19t45 -19l166 -166q19 -19 19 -45t-19 -45l-531 -531z" />
    <glyph glyph-name="chevron_right" unicode="&#xf054;" horiz-adv-x="1280" 
d="M365 -83q-19 -19 -45 -19t-45 19l-166 166q-19 19 -19 45t19 45l531 531l-531 531q-19 19 -19 45t19 45l166 166q19 19 45 19t45 -19l742 -742q19 -19 19 -45t-19 -45l-742 -742v0z" />
    <glyph glyph-name="plus_sign" unicode="&#xf055;" horiz-adv-x="1536" 
d="M1216 704q0 26 -19 45t-45 19h-256v256q0 26 -19 45t-45 19h-128q-26 0 -45 -19t-19 -45v-256h-256q-26 0 -45 -19t-19 -45v-128q0 -26 19 -45t45 -19h256v-256q0 -26 19 -45t45 -19h128q26 0 45 19t19 45v256h256q26 0 45 19t19 45v128zM1432 1026q103 -175 103 -385
q0 -212 -103 -387q-104 -176 -279 -279t-385 -103q-212 0 -387 103q-176 103 -279 279q-103 175 -103 387q0 210 103 385t279 279q175 103 387 103q210 0 385 -103q177 -103 280 -280z" />
    <glyph glyph-name="minus_sign" unicode="&#xf056;" horiz-adv-x="1536" 
d="M1216 704q0 26 -19 45t-45 19h-768q-26 0 -45 -19t-19 -45v-128q0 -26 19 -45t45 -19h768q26 0 45 19t19 45v128zM1432 1026q103 -175 103 -385q0 -212 -103 -387q-104 -176 -279 -279t-385 -103q-212 0 -387 103q-176 103 -279 279q-103 175 -103 387q0 210 103 385
t279 279q175 103 387 103q210 0 385 -103q177 -103 280 -280z" />
    <glyph glyph-name="remove_sign" unicode="&#xf057;" horiz-adv-x="1536" 
d="M1149 414q0 26 -19 45l-181 181l181 181q19 19 19 45q0 27 -19 46l-90 90q-19 19 -46 19q-26 0 -45 -19l-181 -181l-181 181q-19 19 -45 19q-27 0 -46 -19l-90 -90q-19 -19 -19 -46q0 -26 19 -45l181 -181l-181 -181q-19 -19 -19 -45q0 -27 19 -46l90 -90q19 -19 46 -19
q26 0 45 19l181 181l181 -181q19 -19 45 -19q27 0 46 19l90 90q19 19 19 46zM1432 1026q103 -175 103 -385q0 -212 -103 -387q-104 -176 -279 -279t-385 -103q-212 0 -387 103q-176 103 -279 279q-103 175 -103 387q0 210 103 385t279 279q175 103 387 103q210 0 385 -103
q177 -103 280 -280z" />
    <glyph glyph-name="ok_sign" unicode="&#xf058;" horiz-adv-x="1536" 
d="M1284 802q0 28 -18 46l-91 90q-19 19 -45 19t-45 -19l-408 -407l-226 226q-19 19 -45 19t-45 -19l-91 -90q-18 -18 -18 -46q0 -27 18 -45l362 -362q19 -19 45 -19q27 0 46 19l543 543q18 18 18 45zM1432 1026q103 -175 103 -385q0 -212 -103 -387q-104 -176 -279 -279
t-385 -103q-212 0 -387 103q-176 103 -279 279q-103 175 -103 387q0 210 103 385t279 279q175 103 387 103q210 0 385 -103q177 -103 280 -280z" />
    <glyph glyph-name="question_sign" unicode="&#xf059;" horiz-adv-x="1536" 
d="M896 352q0 14 -9 23t-23 9h-192q-14 0 -23 -9t-9 -23v-192q0 -14 9 -23t23 -9h192q14 0 23 9t9 23v192zM1151 833q0 85 -56 162q-54 74 -137 116t-171 42q-245 0 -372 -213q-15 -24 8 -42l132 -100q7 -6 19 -6q16 0 25 12q53 68 86 92q34 24 87 24q46 0 84 -26t38 -59
q0 -38 -19 -60q-20 -23 -69 -45q-65 -29 -117 -87t-52 -126v-36q0 -14 9 -23t23 -9h192q14 0 23 9t9 23q0 19 23 51q22 30 54 48l49 28q9 6 21 15q6 5 12.5 10t13.5 10q31 28 45 48q41 62 41 141l2 1h-3zM1431 1027q103 -175 103 -385q0 -212 -103 -387q-104 -176 -279 -279
t-385 -103q-212 0 -387 103q-176 103 -279 279q-103 175 -103 387q0 210 103 385t279 279q175 103 387 103q210 0 385 -103q177 -103 280 -280z" />
    <glyph glyph-name="info_sign" unicode="&#xf05a;" horiz-adv-x="1536" 
d="M1024 320q0 14 -9 23t-23 9h-96v512q0 14 -9 23t-23 9h-320q-14 0 -23 -9t-9 -23v-160q0 -14 9 -23t23 -9h96v-320h-96q-14 0 -23 -9t-9 -23v-160q0 -14 9 -23t23 -9h448q14 0 23 9t9 23v160zM896 1216q0 14 -9 23t-23 9h-192q-14 0 -23 -9t-9 -23v-160q0 -14 9 -23
t23 -9h192q14 0 23 9t9 23v160zM1432 1026q103 -175 103 -385q0 -212 -103 -387q-104 -176 -279 -279t-385 -103q-212 0 -387 103q-176 103 -279 279q-103 175 -103 387q0 210 103 385t279 279q175 103 387 103q210 0 385 -103q177 -103 280 -280z" />
    <glyph glyph-name="screenshot" unicode="&#xf05b;" horiz-adv-x="1536" 
d="M1087 513q-26 0 -45 19t-19 45v128q0 26 19 45t45 19h109q-32 108 -113 188q-80 81 -188 113v-109q0 -26 -19 -45t-45 -19h-128q-26 0 -45 19t-19 45v109q-107 -32 -189 -114q-79 -79 -111 -188h109q26 0 45 -19t19 -45v-128q0 -26 -19 -45t-45 -19h-109
q31 -107 111 -189q82 -80 189 -111v109q0 26 19 45t45 19h128q26 0 45 -19t19 -45v-109q109 32 188 111q82 82 114 189zM1537 575q0 -26 -19 -45t-45 -19h-143q-38 -161 -156 -279q-116 -116 -279 -153v-143q0 -26 -19 -45t-45 -19h-128q-26 0 -45 19t-19 45v143
q-161 37 -279 153q-116 118 -153 279h-143q-26 0 -45 19t-19 45v128q0 26 19 45t45 19h143q37 163 153 279q118 118 279 156v143q0 26 19 45t45 19h128q26 0 45 -19t19 -45v-143q162 -38 278 -155q117 -116 155 -278h143q26 0 45 -19t19 -45v-128z" />
    <glyph glyph-name="remove_circle" unicode="&#xf05c;" horiz-adv-x="1536" 
d="M951 311q-10 -10 -24 -10t-24 10l-137 137l-137 -137q-10 -10 -24 -10t-24 10l-146 146q-10 10 -10 24t10 24l137 137l-137 137q-10 10 -10 24t10 24l146 146q10 10 24 10t24 -10l137 -137l137 137q10 10 24 10t24 -10l146 -146q10 -10 10 -24t-10 -24l-137 -137
l137 -137q10 -10 10 -24t-10 -24zM1239 367q73 124 73 273t-73 273q-74 124 -198 198q-124 73 -273 73t-273 -73q-125 -74 -198 -198t-73 -273t73 -273q73 -125 198 -198q124 -73 273 -73t273 73t198 198zM1432 1026q103 -175 103 -385q0 -212 -103 -387
q-104 -176 -279 -279t-385 -103q-212 0 -387 103q-176 103 -279 279q-103 175 -103 387q0 210 103 385t279 279q175 103 387 103q210 0 385 -103q177 -103 280 -280z" />
    <glyph glyph-name="ok_circle" unicode="&#xf05d;" horiz-adv-x="1536" 
d="M749 301q-19 -19 -45 -19t-45 19l-294 294q-19 19 -19 45t19 45l102 102q19 19 45 19t45 -19l147 -147l275 275q19 19 45 19t45 -19l102 -102q19 -19 19 -45t-19 -45zM1239 367q73 124 73 273t-73 273q-74 124 -198 198q-124 73 -273 73t-273 -73q-125 -74 -198 -198
t-73 -273t73 -273q73 -125 198 -198q124 -73 273 -73t273 73t198 198zM1432 1026q103 -175 103 -385q0 -212 -103 -387q-104 -176 -279 -279t-385 -103q-212 0 -387 103q-176 103 -279 279q-103 175 -103 387q0 210 103 385t279 279q175 103 387 103q210 0 385 -103
q177 -103 280 -280z" />
    <glyph glyph-name="ban_circle" unicode="&#xf05e;" horiz-adv-x="1536" 
d="M1314 644q0 160 -87 294l-754 -753q137 -89 297 -89q112 0 210 43q100 43 174 117t116 176t42 211h2v1zM1070 1097q-133 91 -300 91q-149 0 -273 -73q-125 -74 -198 -198t-73 -273q0 -162 89 -299zM1477 943q61 -138 61 -299q0 -162 -61 -300q-122 -290 -408 -411
q-138 -61 -297 -61q-161 0 -299 61q-286 123 -408 410q-61 138 -61 300q0 161 61 299q122 287 408 410q138 61 299 61q159 0 297 -61q286 -122 408 -411v2z" />
    <glyph glyph-name="arrow_left" unicode="&#xf060;" horiz-adv-x="1536" 
d="M1536 511q0 -54 -33 -91q-31 -37 -84 -37h-704l293 -294q38 -36 38 -90t-38 -90l-75 -76q-37 -37 -90 -37t-90 37l-651 652q-37 37 -37 90t37 90l651 650q38 38 90 38t90 -38l75 -74q38 -38 38 -90t-38 -90l-293 -293h704q52 0 84 -38q33 -38 33 -90v-129v0z" />
    <glyph glyph-name="arrow_right" unicode="&#xf061;" horiz-adv-x="1536" 
d="M1472 579q0 -54 -37 -91l-651 -651q-37 -37 -90 -37t-90 37l-75 75q-38 38 -38 90t38 90l293 293h-704q-52 0 -85 37q-32 38 -32 90v128q0 52 32 90q33 38 85 38h704l-293 294q-38 36 -38 90t38 90l75 75q38 38 90 38t90 -38l651 -651q37 -34 37 -90v3v0z" />
    <glyph glyph-name="arrow_up" unicode="&#xf062;" horiz-adv-x="1664" 
d="M1610 565q0 -53 -37 -90l-75 -75q-38 -38 -90 -38q-54 0 -90 38l-294 293v-704q0 -52 -38 -84q-38 -33 -90 -33h-128q-54 0 -91 33q-37 31 -37 84v704l-294 -293q-36 -38 -90 -38t-90 38l-75 75q-38 38 -38 90t38 90l651 651q34 37 90 37q54 0 91 -37l651 -651
q37 -37 37 -90h-1v0z" />
    <glyph glyph-name="arrow_down" unicode="&#xf063;" horiz-adv-x="1664" 
d="M924 -38q-37 -37 -90 -37t-90 37l-651 652q-38 36 -38 90q0 52 38 90l74 75q37 37 90 37t90 -37l294 -294v704q0 52 38 90t90 38h128q52 0 90 -38t38 -90v-704l294 294q37 37 90 37t90 -37l75 -75q37 -37 37 -90t-37 -90l-650 -652v0z" />
    <glyph glyph-name="share_alt" unicode="&#xf064;" 
d="M1260 337q-27 -31 -69 -13t-40 59v256h-224q-98 0 -176 -6q-182 -14 -287 -63q-128 -62 -185 -171q-66 -125 -66 -318q0 -12 0.5 -25.5t1.5 -28.5q1 -28 3 -68q0 -5 3 -24q3 -20 3 -27q0 -15 -9 -25t-24 -10q-16 0 -28 17q-11 13 -36 75q-127 281 -127 450q0 195 53 333
q162 403 875 403h224v256q-2 41 40 59t69 -13l512 -512q19 -19 19 -45t-19 -45l-512 -514h-1z" />
    <glyph glyph-name="resize_full" unicode="&#xf065;" horiz-adv-x="1536" 
d="M554 -19q32 -27 14 -69q-18 -40 -58 -39h-448q-26 0 -45 19t-19 45v448q-2 41 40 59t69 -13l144 -144l332 332q10 10 24 10t24 -10l114 -114q10 -10 10 -24t-10 -24l-335 -331zM1533 893q1 -40 -39 -58q-42 -18 -69 14l-144 144l-332 -332q-10 -10 -24 -10t-24 10
l-114 114q-10 10 -10 24t10 24l332 332l-144 144q-31 27 -13 69t59 40h448q26 0 45 -19t19 -45l1 -451h-1z" />
    <glyph glyph-name="resize_small" unicode="&#xf066;" horiz-adv-x="1536" 
d="M768 125q1 -40 -39 -58q-42 -18 -69 14l-144 144l-332 -332q-10 -10 -24 -10t-24 10l-114 114q-10 10 -10 24t10 24l332 332l-144 144q-31 27 -13 69t59 40h448q26 0 45 -19t19 -45l1 -451h-1zM1322 746q32 -27 14 -69q-18 -40 -58 -39h-448q-26 0 -45 19t-19 45v448
q-2 41 40 59t69 -13l144 -144l332 332q10 10 24 10t24 -10l114 -114q10 -10 10 -24t-10 -24l-335 -331z" />
    <glyph glyph-name="plus" unicode="&#xf067;" horiz-adv-x="1408" 
d="M1408 608q0 -41 -28 -69t-69 -28h-416v-416q0 -41 -28 -69t-69 -28h-192q-41 0 -69 28t-28 69v416h-416q-41 0 -69 28t-28 69v192q0 41 28 69t69 28h416v416q0 41 28 69t69 28h192q41 0 69 -28t28 -69v-416h416q41 0 69 -28t28 -69v-192v0z" />
    <glyph glyph-name="minus" unicode="&#xf068;" horiz-adv-x="1408" 
d="M1408 608q0 -41 -28 -69t-69 -28h-1216q-41 0 -69 28t-28 69v192q0 41 28 69t69 28h1216q41 0 69 -28t28 -69v-192v0z" />
    <glyph glyph-name="asterisk" unicode="&#xf069;" horiz-adv-x="1664" 
d="M1481 487q46 -26 60 -78q13 -51 -12 -97l-64 -110q-26 -47 -78 -60q-49 -13 -97 12l-266 153v-307q0 -52 -38 -90t-90 -38h-128q-52 0 -90 38t-38 90v307l-266 -153q-47 -26 -98 -12q-53 13 -78 60l-64 110q-25 48 -12 97q13 52 60 78l266 154l-266 154q-47 25 -60 78
q-14 51 12 98l64 110q25 46 78 60q52 13 99 -12l266 -153v307q0 52 38 90t90 38h128q52 0 90 -38t38 -90v-307l266 153q46 25 97 12q52 -14 78 -60l64 -110q25 -47 12 -99q-14 -53 -60 -78l-266 -154l265 -153v0z" />
    <glyph glyph-name="exclamation_sign" unicode="&#xf06a;" horiz-adv-x="1536" 
d="M381 1306q175 103 387 103q210 0 385 -103q177 -103 280 -280q103 -175 103 -385q0 -212 -103 -387q-104 -176 -279 -279t-385 -103q-212 0 -387 103q-176 103 -279 279q-103 175 -103 387q0 210 103 385t279 279zM895 356q0 14 -9 23t-22 9h-192q-14 0 -24 -10t-10 -24
v-190q0 -14 10 -24t24 -10h192q13 0 22 9t9 23v194zM909 1130q0 12 -10 18q-11 8 -24 8h-220q-13 0 -24 -8q-10 -6 -10 -18l17 -621q0 -11 10 -18t24 -7h185q13 0 24 8q10 7 12 18l18 620h-2z" />
    <glyph glyph-name="gift" unicode="&#xf06b;" horiz-adv-x="1536" 
d="M928 704v192h-320v-192v-468v-56q0 -26 18 -39q20 -14 46 -14h192q26 0 46 14q18 13 18 39v56v468zM541 1187q-25 31 -69 31q-41 0 -69 -28t-28 -69t28 -69t69 -28l195 2zM1064 1216q-44 0 -69 -31l-125 -161h194q41 0 69 28t28 69t-28 69t-69 28v-2zM1537 545
q0 -14 -9 -23t-23 -9h-96v-416q0 -41 -28 -69t-69 -28h-1088q-41 0 -69 28t-28 69v416h-96q-14 0 -23 9t-9 23v320q0 14 9 23t23 9h440q-91 0 -159 65q-65 68 -65 159q0 93 65 158q66 66 159 66q106 0 168 -77l128 -165l128 165q62 77 168 77q94 0 159 -66q66 -65 66 -159
q0 -93 -66 -159q-65 -65 -158 -65h440q14 0 23 -9t9 -23z" />
    <glyph glyph-name="leaf" unicode="&#xf06c;" 
d="M1217 896q-168 0 -318 -50q-147 -51 -261 -134q-116 -86 -234 -219q-19 -19 -19 -45t19 -45t45 -19t45 19q27 24 74 71l67 66q134 122 267 176q128 52 314 52q26 0 45 19t19 45t-19 45t-45 19h1zM1788 1026q0 -23 -1.5 -46.5t-3.5 -47.5q-5 -48 -15 -99
q-87 -424 -542 -651q-215 -108 -438 -108q-143 0 -286 47q-14 4 -87 42q-73 37 -96 37q-16 0 -40 -32q-20 -26 -45 -69q-23 -41 -51 -69q-32 -32 -60 -32q-40 0 -63 17q-20 18 -45 60l-6 12l-3 6l-3 3q-2 3 -3 9q-1 3 -1 15q0 36 31 73q31 40 68 66q15 10 32 26q8 8 17 16
t19 16q31 28 31 48l-14 39q-4 10 -6.5 17.5t-4.5 12.5q-3 11 -4 12q-9 51 -9 104q0 116 43 218q43 106 120 186q151 160 375 234q54 17 145 24q90 7 179 9q21 1 40.5 1.5t36.5 0.5t32.5 0.5t29.5 1.5l28 2t30 3t32.5 3.5t33.5 3.5q70 8 119 27q50 18 75 46l29 29
q22 22 30 27q48 47 107 42q37 0 69 -45q31 -45 48 -114q32 -139 32 -219l-2 -1z" />
    <glyph glyph-name="fire" unicode="&#xf06d;" horiz-adv-x="1408" 
d="M1406 -226q0 -13 -9 -22t-22 -9h-1344q-13 0 -22 9t-9 23v64q0 14 9 23t23 9h1344q14 0 23 -9t9 -22zM1152 892q2 -113 -46 -195t-130 -151q-26 -23 -75 -60q-13 -10 -24 -18t-21 -16q-20 -15 -33 -27q-7 -6 -13.5 -12.5l-14.5 -14.5l-31 -31q-31 -34 -46 -70t-15 -78
q0 -98 67 -225l-4 1l1 -1q-179 81 -300 183q-73 64 -113 123q-100 145 -100 336q-1 199 176 345q30 25 93 75q63 49 90 75q89 81 89 178q0 94 -66 225l3 -1l-1 1q176 -82 298 -183q69 -59 114 -123q100 -142 100 -334l1 -2h1z" />
    <glyph glyph-name="eye_open" unicode="&#xf06e;" 
d="M1664 575q-152 236 -381 353q61 -103 61 -225q0 -185 -132 -317q-131 -131 -315 -131t-318 131q-131 134 -131 318q0 122 61 225q-229 -117 -381 -353q133 -206 333 -327q199 -121 435 -121t435 121t333 327v-1zM898 1008q-125 0 -215 -90q-89 -89 -89 -213q0 -19 14 -33
t33 -14t33 14t14 33q0 86 61 147t147 61q19 0 33 14t14 33t-14 33t-33 14zM1774 507q-140 -230 -378 -369q-236 -138 -498 -138q-266 0 -501 139q-236 139 -376 368q-41 69 0 138q140 229 376 368q235 139 501 139q264 0 499 -139q239 -141 377 -368q40 -69 0 -138h1h-1z
" />
    <glyph glyph-name="eye_close" unicode="&#xf070;" 
d="M633 342q-86 61 -135 159q-49 94 -49 203q0 122 61 225q-229 -117 -381 -353q166 -257 426 -375zM898 1009q-125 0 -215 -90q-89 -89 -89 -213q0 -19 14 -33t33 -14t33 14t14 33q0 86 61 147t147 61q19 0 33 14t14 33t-14 33t-33 14zM1311 1152q0 -8 -1 -9l-316 -567
l-315 -566l-49 -89q-10 -16 -28 -16q-14 0 -135 70q-16 10 -16 28q0 10 44 87q-289 132 -472 418q-20 32 -20 69t20 69q152 233 380 371q226 136 496 136q80 0 180 -17l54 97q10 16 28 16q8 0 48 -22q4 -2 9 -5t11 -6q13 -7 28 -16q18 -12 25 -15q10 -5 11 -6q16 -10 16 -27
l3 1zM1349 707q0 -140 -79 -255q-80 -116 -210 -165l280 502q4 -24 6 -45q1 -11 1.5 -20.5t0.5 -18.5v2h1zM1778 508q-20 -33 -47 -69t-62 -75q-150 -173 -348 -267q-201 -95 -420 -95l74 132q211 18 393 137q181 119 302 307q-116 178 -282 294l63 112q99 -69 182 -153
q85 -86 144 -183q40 -69 0 -138v-2h1z" />
    <glyph glyph-name="warning_sign" unicode="&#xf071;" 
d="M1022 351q0 14 -9 23t-22 9h-192q-13 0 -22 -9t-9 -23v-190q0 -14 9 -23t23 -9h192q14 0 23 9t9 23zM1038 993q0 12 -10 19q-14 11 -24 11h-220q-10 0 -24 -11q-10 -7 -10 -21l17 -457q0 -10 10 -16t24 -6h185q14 0 23 6t11 17zM1776 60q34 -65 -3 -126q-17 -29 -45 -45
q-32 -17 -64 -17h-1536q-32 0 -64 17q-29 16 -45 45q-38 61 -3 126l768 1408q21 43 66 60q45 16 90 0q45 -17 66 -60l772 -1408h-2z" />
    <glyph glyph-name="plane" unicode="&#xf072;" horiz-adv-x="1408" 
d="M1374 1374q43 -52 12 -148q-32 -95 -108 -171l-161 -161l160 -696q4 -20 -12 -33l-128 -96q-8 -6 -18 -6q-5 0 -6 1q-15 3 -21 16l-279 508l-259 -259l53 -194q4 -18 -9 -31l-96 -96q-9 -9 -23 -9h-2q-14 1 -24 12l-189 252l-252 189q-11 7 -12 24q-1 13 9 25l96 97
q9 9 23 9q8 0 9 -1l194 -53l259 259l-508 279q-14 8 -17 24q-2 16 9 27l128 128q13 13 30 9l665 -159l160 160q76 76 171 108q96 31 148 -12v-2h-2z" />
    <glyph glyph-name="calendar" unicode="&#xf073;" horiz-adv-x="1664" 
d="M416 -128v288h-288v-288h288zM800 -128v288h-320v-288h320zM416 224v320h-288v-320h288zM800 224v320h-320v-320h320zM416 608v288h-288v-288h288zM1184 -128v288h-320v-288h320zM800 608v288h-320v-288h320zM1536 -128v288h-288v-288h288zM1184 224v320h-320v-320h320z
M510 1374q0 14 -9 23t-22 9h-64q-13 0 -22 -9t-9 -22v-288q0 -13 9 -22t23 -9h64q14 0 23 9t9 23zM1534 222v320h-288v-320h288zM1182 606v288h-320v-288h320zM1534 606v288h-288v-288h288zM1276 1372q0 14 -9 23t-22 9h-64q-13 0 -22 -9t-9 -22v-288q0 -13 9 -22t23 -9h64
q14 0 23 9t9 23zM1660 -132q0 -52 -38 -90t-90 -38h-1408q-52 0 -90 38t-38 90v1280q0 52 38 90t90 38h128v96q0 66 47 113t113 47h64q66 0 113 -47t47 -113v-96h384v96q0 66 47 113t113 47h64q66 0 113 -47t47 -113v-96h128q52 0 90 -38t38 -90v-1280z" />
    <glyph glyph-name="random" unicode="&#xf074;" 
d="M667 1054q-62 -95 -138 -273l-12.5 25t-10.5 20t-8.5 15.5t-5.5 11.5q-11 21 -42 64q-26 37 -51 57q-59 50 -144 50h-224q-14 0 -23 9t-9 23v192q0 14 9 23t23 9h224q250 0 411 -225zM1464 -88q-9 -9 -23 -9q-13 0 -22 9t-9 23v192h-46h-20.5t-17.5 -1h-51h-17.5
t-12.5 -1h-40h-17t-16 1q-41 1 -72 6q-3 0 -7 1l-18 3q-12 1 -21 3q-5 1 -9 1.5t-8 1.5q-45 7 -120 48q-83 43 -171 162q61 97 135 273l37 -73q16 -30 39 -63q25 -36 51 -57q64 -49 145 -49h256v192q0 14 9 23t23 9t24 -10l319 -319q9 -9 9 -23t-9 -23l-319 -320h-1z
M1465 810q-9 -9 -23 -9q-13 0 -22 9t-9 23v192h-256q-96 0 -156 -60q-50 -50 -96 -138q-32 -62 -78 -171l-50 -111q-20 -45 -54 -105q-33 -60 -64 -100q-80 -107 -165 -153q-106 -58 -234 -58h-224q-14 0 -23 9t-9 23v192q0 14 9 23t23 9h224q96 0 156 60q49 49 96 138
q31 61 78 171l49 111q21 45 54 105q8 16 16.5 30t16.5 26t15.5 23t14.5 21q82 106 165 150q107 59 234 59h256v192q0 14 9 23t23 9t24 -10l319 -319q9 -9 9 -23t-9 -23l-319 -319v1z" />
    <glyph glyph-name="comment" unicode="&#xf075;" 
d="M892 0q-16 0 -33 0.5t-35 1.5q-35 1 -76 6q-197 -176 -459 -243q-29 -8 -57 -12l-57 -9q-17 -2 -30 9q-14 10 -18 30v1q-3 4 -1 12l3 9q2 5 6 11l6 9l15 17l31 35l34 38q13 13 30 39q21 28 33 51q34 64 54 135q-157 89 -248 220q-90 130 -90 282q0 129 71 248
q70 118 192 204q121 85 285 135q166 51 348 51q240 0 450 -86q207 -86 326 -233q120 -147 120 -321t-120 -322q-120 -147 -326 -233q-201 -85 -450 -85h-3h-1z" />
    <glyph glyph-name="magnet" unicode="&#xf076;" horiz-adv-x="1536" 
d="M1537 577q0 -203 -99 -363q-98 -161 -273 -252t-396 -91t-396 91q-173 88 -273 252q-98 161 -98 362v128q0 26 19 45t45 19h384q26 0 45 -19t19 -45v-128q0 -50 22 -87q22 -41 54 -60q30 -19 71 -30q55 -15 108 -15q52 0 108 15q41 11 71 30q31 19 54 60q22 37 22 87v128
q0 26 19 45t45 19h384q26 0 45 -19t19 -45l1 -126v-1zM513 961q0 -26 -19 -45t-45 -19h-384q-26 0 -45 19t-19 45v384q0 26 19 45t45 19h384q26 0 45 -19t19 -45v-384zM1537 961q0 -26 -19 -45t-45 -19h-384q-26 0 -45 19t-19 45v384q0 26 19 45t45 19h384q26 0 45 -19
t19 -45v-384z" />
    <glyph glyph-name="chevron_up" unicode="&#xf077;" 
d="M1517 40q-19 -19 -45 -19t-45 19l-531 531l-531 -531q-19 -19 -45 -19t-45 19l-166 165q-19 19 -19 46t19 46l742 741q19 19 45 19t45 -19l742 -741q19 -19 19 -46t-19 -46l-166 -165v0z" />
    <glyph glyph-name="chevron_down" unicode="&#xf078;" 
d="M941 -13q-19 -19 -45 -19t-45 19l-742 741q-19 19 -19 46t19 46l166 165q19 19 45 19t45 -19l531 -531l531 531q19 19 45 19t45 -19l166 -165q19 -19 19 -46t-19 -46l-742 -741v0z" />
    <glyph glyph-name="retweet" unicode="&#xf079;" horiz-adv-x="1920" 
d="M1278 30q0 -13 -9 -22t-22 -9h-960q-13 0 -27 17q-4 4 -4 24v24v160v416h-192q-26 0 -45 19t-19 45q0 24 15 41l320 384q19 22 49 22t49 -22l320 -384q15 -17 15 -41q0 -26 -19 -45t-45 -19h-192v-384h576q16 0 25 -11l160 -192q7 -10 7 -21l-1 -1zM1917 446
q0 -26 -15 -42l-320 -384q-20 -23 -48 -23t-48 23l-320 384q-15 16 -15 42t19 45t45 19h192v384h-576q-16 0 -25 12l-160 192q-7 7 -7 21t9 23t23 9h960q13 0 27 -17q4 -4 4 -24v-24v-160v-416h192q26 0 45 -19t19 -45h-2h1z" />
    <glyph glyph-name="shopping_cart" unicode="&#xf07a;" horiz-adv-x="1664" 
d="M512 128q52 0 90 -38t38 -90t-38 -90t-90 -38t-90 38t-38 90t38 90t90 38zM1408 128q52 0 90 -38t38 -90t-38 -90t-90 -38t-90 38t-38 90t38 90t90 38zM1662 576q0 -26 -16 -42q-17 -18 -39 -21l-1044 -122q13 -53 13 -69t-24 -64h920q26 0 45 -19t19 -45t-19 -45
t-45 -19h-1024q-26 0 -45 19t-19 45q0 22 24 66q6 13 21 39q1 2 2.5 4.5t3.5 6.5t3 5l2 4l3 6l2 4l-177 823h-204q-26 0 -45 19t-19 45t19 45t45 19h256q43 0 61 -47q7 -17 9 -27q4 -17 6 -30q1 -14 3 -24h1201q26 0 45 -19t19 -45l-2 -511v-1z" />
    <glyph glyph-name="folder_close" unicode="&#xf07b;" horiz-adv-x="1664" 
d="M1664 224q0 -92 -66 -158t-158 -66h-1216q-92 0 -158 66t-66 158v960q0 92 66 158t158 66h320q92 0 158 -66t66 -158v-32h672q92 0 158 -66t66 -158v-704v0z" />
    <glyph glyph-name="folder_open" unicode="&#xf07c;" horiz-adv-x="1920" 
d="M1879 583q0 -32 -31 -66l-336 -396q-44 -51 -120 -87q-81 -35 -144 -35h-1088q-37 0 -63 14q-25 13 -25 42q0 32 31 66l336 396q43 52 120 87q78 36 144 36h1088q37 0 63 -14q25 -13 25 -42l-1 -1h1zM704 767q-95 0 -198 -48q-101 -45 -164 -119l-337 -396l-5 -6v13v12
v960q0 92 66 158t158 66h320q92 0 158 -66t66 -158v-32h544q92 0 158 -66t66 -158v-160h-832z" />
    <glyph glyph-name="resize_vertical" unicode="&#xf07d;" horiz-adv-x="768" 
d="M508 128h128q41 2 59 -40t-13 -69l-256 -256q-19 -19 -45 -19t-45 19l-256 256q-31 27 -13 69t59 40h128v1024h-128q-40 -1 -58 39q-18 42 14 69l256 256q19 19 45 19t45 -19l256 -256q32 -27 14 -69q-18 -40 -58 -39h-132v-1024z" />
    <glyph glyph-name="resize_horizontal" unicode="&#xf07e;" 
d="M1517 335q-27 -31 -69 -13t-40 59v128h-1024v-128q1 -40 -39 -58q-42 -18 -69 14l-256 256q-19 19 -19 45t19 45l256 256q27 32 69 14q40 -18 39 -58v-128h1024v128q-2 41 40 59t69 -13l256 -256q19 -19 19 -45t-19 -45l-256 -260v0z" />
    <glyph glyph-name="bar_chart" unicode="&#xf080;" horiz-adv-x="2048" 
d="M640 128h-256v512h256v-512zM1024 128h-256v1024h256v-1024zM2048 -128h-2048v1536h128v-1408h1920v-128zM1408 128h-256v768h256v-768zM1792 128h-256v1152h256v-1152z" />
    <glyph glyph-name="twitter_sign" unicode="&#xf081;" horiz-adv-x="1536" 
d="M1277 921q-51 -25 -120 -34q67 40 93 117q-65 -38 -135 -51q-62 66 -153 66q-87 0 -149 -62q-61 -61 -61 -148q0 -20 5 -48q-125 7 -241 66q-111 55 -193 155q-29 -50 -29 -105q0 -114 91 -175q-48 1 -99 27v-2q0 -75 50 -134q49 -59 123 -72q-34 -8 -51 -8q-22 0 -39 4
q21 -65 75 -105q54 -41 121 -42q-116 -90 -261 -90q-26 0 -50 3q148 -94 322 -94q108 0 210 35q100 34 171 96q105 90 162 215q57 124 57 255q0 24 -1 27q65 45 105 109v-2zM1533 155q0 -119 -85 -203q-84 -85 -203 -85h-960q-119 0 -204 85q-84 84 -84 203v960
q0 119 84 203q85 85 204 85h960q119 0 203 -85q85 -84 85 -203v-960z" />
    <glyph glyph-name="facebook_sign" unicode="&#xf082;" horiz-adv-x="1536" 
d="M1249 1406q119 0 203 -85q85 -84 85 -203v-960q0 -119 -85 -203q-84 -85 -203 -85h-188v595h199l30 232h-229v148q0 59 24 86t90 27l122 1v207q-63 9 -178 9q-135 0 -218 -80q-81 -80 -81 -225v-171h-200v-232h200v-595h-532q-119 0 -204 85q-84 84 -84 203v960
q0 119 84 203q85 85 204 85l961 -2v0z" />
    <glyph glyph-name="camera_retro" unicode="&#xf083;" 
d="M894 734q-66 0 -113 -47t-47 -113q0 -20 16 -27q16 -8 33 0q16 7 16 27q0 41 28 69t69 28q20 0 27 16t0 33q-7 16 -27 16zM894 828q106 0 181 -75t75 -181t-75 -181t-181 -75t-181 75t-75 181t75 181t181 75zM1662 -2v128h-1536v-128h1536zM1163 302q113 113 113 272
q0 157 -113 270t-270 113q-159 0 -272 -113q-112 -112 -112 -271q0 -161 112 -273t273 -112q159 0 271 112zM636 1216v128h-384v-128h384zM1660 1024v118v138h-828l-64 -128h-644v-128h1536zM1788 0q0 -52 -38 -90t-90 -38h-1536q-52 0 -90 38q-37 37 -37 90v1280
q0 53 37 90q38 38 90 38h1536q52 0 90 -38t38 -90v-1280z" />
    <glyph glyph-name="key" unicode="&#xf084;" 
d="M448 1024q0 -46 19 -83q-37 19 -83 19q-79 0 -135 -56t-56 -135t56 -135t135 -56t135 56t56 135q0 46 -19 83q37 -19 83 -19q79 0 135 56t56 135t-56 135t-135 56t-135 -56t-56 -135zM1686 320q0 -17 -49 -66t-66 -49t-66 49l-39 40l-24 26l-96 -96l220 -220
q28 -28 28 -69q0 -42 -39 -81t-81 -39q-41 0 -69 28l-671 671q-176 -131 -365 -131q-164 0 -267 102q-102 103 -102 267q0 157 95 312q95 153 248 248q155 95 312 95q163 0 265 -103q103 -102 103 -265q0 -189 -131 -365l355 -355l96 96l-26 24l-40 39q-49 49 -49 66t49 66
t66 49q14 0 24 -10l46 -45l82 -79q19 -17 36 -34l34 -34q33 -34 62 -65q59 -63 56 -72h2h1z" />
    <glyph glyph-name="cogs" unicode="&#xf085;" horiz-adv-x="1920" 
d="M640 384q106 0 181 75t75 181t-75 181t-181 75t-181 -75t-75 -181t75 -181t181 -75zM1664 129q0 52 -38 90t-90 38t-90 -38t-38 -90q0 -54 37 -91t91 -37q53 0 90 37q38 38 38 90v1zM1664 1154q0 52 -38 90t-90 38t-90 -38t-38 -90q0 -54 37 -91t91 -37q53 0 90 37
q38 38 38 90v1zM1285 542q0 -11 -7 -18q-7 -9 -16 -10l-155 -24q-11 -32 -33 -75q31 -44 90 -114q7 -10 7 -21q0 -12 -7 -19q-18 -25 -83 -90q-59 -59 -78 -59q-11 0 -21 7l-115 90q-20 -11 -39 -18q-10 -4 -19.5 -7t-19.5 -6q-11 -107 -24 -156q-8 -24 -30 -24h-186
q-10 0 -21 8q-8 7 -9 18l-23 153q-38 10 -75 30l-118 -89q-7 -7 -21 -7q-10 0 -21 8q-144 133 -144 160q0 9 7 19l41 53q7 8 13 15t12 15t12 15.5t11 15.5q-5 11 -10 21.5t-10 20.5q-9 19 -15 39l-152 24q-11 1 -18 9q-7 7 -7 20v185q0 13 7 20q7 10 15 12l155 24
q10 31 33 75q-32 43 -90 114q-7 10 -7 21q0 14 7 21q28 38 82 90q62 59 78 59q11 0 21 -7l115 -90q41 20 77 32q10 103 24 153q7 24 30 24h186q13 0 20 -7q7 -8 9 -18l23 -153q37 -11 75 -30l118 89q7 7 21 7q10 0 21 -8q144 -134 144 -159q0 -9 -7 -19l-42 -54
q-30 -38 -45 -60q25 -56 33 -81l152 -23q24 -6 24 -30l2 -188zM1921 54q0 -16 -149 -31q-11 -26 -30 -51q51 -113 51 -138q0 -4 -4 -7q-122 -71 -123 -71q-7 0 -45 47q-20 25 -33 42q-14 16 -18 24q-30 -3 -60 0q-5 -8 -18 -24q-14 -17 -33 -42q-38 -47 -45 -47
q-1 0 -123 71q-4 3 -4 7q0 25 51 138q-20 25 -30 51q-149 15 -149 31v140q0 16 149 31q13 29 30 52q-51 112 -51 138q0 4 4 7l35 20l59 34q28 16 30 16q7 0 45 -47q46 -58 51 -67q30 3 60 0q50 69 93 112l6 2q5 0 123 -70q4 -3 4 -7q0 -26 -51 -138q17 -23 30 -52
q149 -15 149 -31zM1917 1078q0 -16 -149 -31q-11 -26 -30 -51q51 -113 51 -138q0 -4 -4 -7q-122 -71 -123 -71q-7 0 -45 47q-20 25 -33 42q-14 16 -18 24q-30 -3 -60 0q-5 -8 -18 -24q-14 -17 -33 -42q-38 -47 -45 -47q-1 0 -123 71q-4 3 -4 7q0 25 51 138q-20 25 -30 51
q-149 15 -149 31v140q0 16 149 31q13 29 30 52q-51 112 -51 138q0 4 4 7l35 20l59 34q28 16 30 16q7 0 45 -47q46 -58 51 -67q30 3 60 0q50 69 93 112l6 2q5 0 123 -70q4 -3 4 -7q0 -26 -51 -138q17 -23 30 -52q149 -15 149 -31z" />
    <glyph glyph-name="comments" unicode="&#xf086;" 
d="M707 256q-23 0 -44.5 1t-43.5 3q-44 4 -87 12q-125 -89 -279 -129q-28 -7 -86 -15h-3q-10 0 -21 8q-11 7 -12 21q-6 18 20 44l23 25q5 7 9.5 12t7.5 9t5 6l3 3q52 64 69 111q-125 72 -195 177q-71 107 -71 225q0 140 94 258t255 186q163 69 354 69t353 -69
q163 -68 258 -186q94 -118 94 -258t-94 -258t-258 -187q-166 -68 -354 -68l1 -1zM1794 506q0 -119 -70 -222q-71 -104 -195 -177q21 -53 45 -84l17 -19q3 -3 4.5 -5t2.5 -3q3 -5 9 -12q3 -4 7.5 -8.5l9.5 -9.5l23 -25q26 -26 20 -44q-3 -14 -13 -21t-22 -6q-58 8 -86 15
q-155 40 -279 129q-44 -8 -87 -12q-22 -2 -43.5 -3t-44.5 -1q-271 0 -472 132q25 -2 48 -3q11 -1 21 -1h19q160 0 309 45q148 45 264 129q126 91 192 213q66 120 66 254q0 72 -23 152q127 -71 204 -177q75 -107 75 -230v-1z" />
    <glyph glyph-name="thumbs_up_alt" unicode="&#xf087;" horiz-adv-x="1536" 
d="M192 128q26 0 45 19t19 45t-19 45t-45 19t-45 -19t-19 -45t19 -45t45 -19zM1402 765q0 52 -39 90q-39 39 -89 39h-352q0 58 48 159q48 102 48 161q0 97 -32 144t-128 47q-26 -26 -38 -84l-15 -63q-4 -16 -7.5 -31.5t-8.5 -31.5q-18 -64 -59 -108q-6 -6 -25 -28
q-20 -23 -51 -63l-23 -30l-32 -41q-8 -8 -15 -18q-8 -11 -18 -24q-29 -36 -78 -79q-41 -36 -75 -36h-32v-640h32q49 -3 102 -21l36 -11l36 -13l29 -10q207 -73 342 -73h121q192 0 192 167v11t-1 13q-2 13 -3 30q46 25 61 90q15 63 -14 107q53 50 53 119q0 29 -10 56
q-11 32 -24 47q32 2 53 47q22 43 22 81l-2 -4zM1527 768q0 -90 -49 -163q9 -33 9 -69q0 -76 -38 -144q3 -21 3 -43q0 -102 -60 -178q1 -140 -84 -219q-86 -81 -227 -81h-36h-93q-47 0 -93 6q-23 3 -47 7.5t-49 9.5q-102 25 -216 66q-111 40 -138 40h-288q-54 0 -91 37
t-37 91v640q0 53 37 90q38 38 90 38h274q36 24 137 155q66 84 107 128q19 18 33 81q4 16 7.5 32t8.5 33l10 34l10 34q21 70 60 105q37 37 90 37q136 -1 214 -78t75 -243q0 -93 -48 -192h176q104 0 180 -76t76 -180l-1 1z" />
    <glyph glyph-name="thumbs_down_alt" unicode="&#xf088;" horiz-adv-x="1536" 
d="M192 1024q26 0 45 19t19 45t-19 45t-45 19t-45 -19t-19 -45t19 -45t45 -19zM1408 517q0 38 -22 81q-21 45 -53 47q13 15 24 47q10 27 10 56q0 69 -53 119q18 31 18 69t-18 74t-47 51q1 16 3 30q1 7 1.5 13t0.5 11q0 83 -48 125t-137 42h-128q-135 0 -342 -73l-29 -11
l-71 -24q-71 -20 -102 -20h-32v-640h32q42 0 114 -72q13 -14 39 -45q19 -23 33 -42l32 -41l23 -30q31 -41 51 -63q10 -11 16.5 -18t9.5 -10q43 -47 60 -111q5 -14 9 -29t8 -31t7.5 -31.5t7.5 -32.5q12 -58 38 -84q96 0 128 47t32 144q0 58 -48 159q-48 102 -48 160h352
q49 0 90 38q39 39 39 90l1 3zM1539 514q0 -104 -76 -180t-180 -76h-176q48 -99 48 -192q0 -118 -35 -186q-34 -67 -100 -100t-153 -33q-53 0 -90 37q-64 63 -81 173q-14 109 -48 147q-23 25 -50 56t-57 72q-101 131 -137 155h-274q-54 0 -91 37t-37 91v640q0 53 37 90
q38 38 90 38h288q27 0 138 40q124 43 222 66q23 5 47 9.5t49 7.5q49 6 104 6h112q141 0 226 -79q87 -80 86 -216v-5q60 -77 60 -177q0 -22 -3 -43q38 -68 38 -144q0 -36 -9 -69q49 -73 49 -163h3v-2z" />
    <glyph glyph-name="star_half" unicode="&#xf089;" horiz-adv-x="896" 
d="M382 -71q-23 -12 -39 -12q-19 0 -30 14t-11 36v6q0 2 0.5 5.5t1.5 8.5l86 500l-364 354q-25 25 -25 48q0 37 56 46l502 73l225 455q20 41 48 41l-1 -1339z" />
    <glyph glyph-name="heart_empty" unicode="&#xf08a;" 
d="M1663 943q0 157 -77 240q-65 70 -174 90q-120 22 -210 -18q-128 -56 -258 -198q-18 -22 -49 -22t-49 22q-56 64 -147 132q-53 40 -111 66q-57 25 -110 25q-111 0 -192 -39q-158 -75 -158 -301q0 -168 187 -355l581 -560l580 559q188 188 188 356v2zM1792 940
q0 -221 -229 -450l-623 -600q-18 -18 -44 -18t-44 18l-624 602q-15 13 -36 36q-22 23 -47 56q-10 13 -19 25.5t-17 24.5q-18 26 -32 50q-29 50 -54 121q-23 75 -23 138q0 221 127 345t351 124q127 0 246 -80q99 -64 172 -135q67 67 171 135q122 80 246 80q224 0 351 -124
t127 -345l1 -1v-2z" />
    <glyph glyph-name="signout" unicode="&#xf08b;" horiz-adv-x="1664" 
d="M642 85v-19v-17q0 -49 -33 -49h-320q-119 0 -204 84q-84 85 -84 204v704q0 119 84 203q85 85 204 85h320q14 0 23 -9t9 -22v-12v-19v-17q0 -49 -33 -49h-320q-66 0 -113 -47t-47 -113v-704q0 -66 47 -113t113 -47h288h11h13q8 0 11 -1q29 -3 29 -31l2 1v-12zM1007 50
q-27 -31 -69 -13t-40 59v288h-448q-26 0 -45 19t-19 45v384q0 26 19 45t45 19h448v288q-2 41 40 59t69 -13l544 -544q19 -19 19 -45t-19 -45z" />
    <glyph glyph-name="linkedin_sign" unicode="&#xf08c;" horiz-adv-x="1536" 
d="M468 122v694h-231v-694h231zM483 1030q-2 52 -36 87q-34 34 -93 34q-57 0 -94 -34t-37 -87t36 -87q34 -34 92 -34h1q61 0 95 34q36 34 36 87h1h-1zM1301 121v398q0 151 -72 232t-195 81q-137 0 -210 -117h2v101h-231q3 -66 0 -694h231v388q0 42 7 56q36 84 119 84
q116 0 116 -157l1 -372h232zM1538 159q0 -119 -85 -203q-84 -85 -203 -85h-960q-119 0 -204 85q-84 84 -84 203v960q0 119 84 203q85 85 204 85h960q119 0 203 -85q85 -84 85 -203v-960z" />
    <glyph glyph-name="pushpin" unicode="&#xf08d;" horiz-adv-x="1152" 
d="M480 1120q0 20 -16 27q-17 7 -33 0t-16 -27v-448q0 -20 16 -27q16 -8 33 0q16 7 16 27v448zM1153 321q0 -26 -19 -45t-45 -19h-429l-51 -483q-2 -14 -9 -21q-9 -9 -21 -9h-1q-29 0 -33 27l-76 485h-404q-26 0 -45 19t-19 45q0 124 78 222q79 99 177 99v512q-52 0 -90 38
t-38 90t38 90t90 38h640q52 0 90 -38t38 -90t-38 -90t-90 -38v-512q99 0 177 -99q79 -97 79 -222l2 1h-1z" />
    <glyph glyph-name="external_link" unicode="&#xf08e;" 
d="M1408 288q0 -119 -85 -204q-84 -84 -203 -84h-832q-119 0 -204 84q-84 85 -84 204v832q0 119 84 203q85 85 204 85h704q14 0 23 -9t9 -23v-64q0 -14 -9 -23t-23 -9h-704q-66 0 -113 -47t-47 -113v-832q0 -66 47 -113t113 -47h832q66 0 113 47t47 113v320q0 14 9 23t23 9
h64q14 0 23 -9t9 -23v-320zM1792 957q1 -40 -39 -58q-42 -18 -69 14l-176 176l-652 -652q-10 -10 -24 -10t-24 10l-114 114q-10 10 -10 24t10 24l652 652l-176 176q-31 27 -13 69t59 40h512q26 0 45 -19t19 -45l1 -515h-1z" />
    <glyph glyph-name="signin" unicode="&#xf090;" horiz-adv-x="1536" 
d="M621 49q-27 -31 -69 -13t-40 59v288h-448q-26 0 -45 19t-19 45v384q0 26 19 45t45 19h448v288q-2 41 40 59t69 -13l544 -544q19 -19 19 -45t-19 -45zM1535 284q0 -119 -85 -204q-84 -84 -203 -84h-320q-13 0 -22 9t-9 23v6v5.5t-1 8.5t-1 8.5v6.5v11q1 17 3 25
q3 11 10 18q8 8 21 8h320q66 0 113 47t47 113v704q0 66 -47 113t-113 47h-288h-11h-13q-8 0 -12 1q-28 4 -28 31v6v5.5t-1 8.5t-1 8.5v6.5v11q1 17 3 25q3 11 10 18q8 8 21 8h320q119 0 203 -85q85 -84 85 -203l-3 -704z" />
    <glyph glyph-name="trophy" unicode="&#xf091;" horiz-adv-x="1664" 
d="M457 653q-74 166 -74 372h-256v-96q0 -78 94 -162q94 -86 237 -114h-1zM1280 1024q0 -206 -74 -372q139 28 234 114q95 84 95 162l1 96h-256zM1663 929q0 -70 -41 -144q-40 -70 -114 -130q-71 -59 -174 -99q-104 -41 -216 -45q-42 -54 -95 -95q-67 -58 -67 -162
q0 -55 32 -93q31 -36 96 -36q75 0 133 -46q59 -45 59 -114v-64q0 -14 -9 -23t-23 -9h-832q-14 0 -23 9t-9 23v64q0 69 58 114q58 46 135 46q64 0 96 36q32 38 32 93q0 104 -67 162q-53 41 -95 95q-111 4 -216 45q-105 42 -173 98q-71 58 -111 132q-41 74 -41 142v128
q0 41 28 69t69 28h288v96q0 66 47 113t113 47h576q66 0 113 -47t47 -113v-96h288q41 0 69 -28t28 -69l-3 -128z" />
    <glyph glyph-name="github_sign" unicode="&#xf092;" horiz-adv-x="1536" 
d="M519 336q4 6 -3 13q-9 8 -14 3q-4 -6 3 -13q9 -8 14 -3zM491 377q-4 7 -12 4q-6 -5 0 -12q8 -8 12 -5q6 4 0 13zM446 423q-7 1 -9 -2q-3 -5 4 -8q7 -2 9 3q1 4 -5 9zM469 393q2 2 2 5t-3 5q-4 4 -7 4t-3 -3q0 -5 3 -9q6 -8 11 -3l-3 -1v2zM555 318q1 7 -9 12q-9 3 -13 -4
q-2 -8 9 -12q9 -3 13 4zM585 323q-6 0 -9 -4q-3 -5 0 -9t10 -4t10 4t0 9q-3 4 -11 4zM634 321q-2 4 -6 6q-6 1 -11 -2q-4 -3 -3 -7q1 -5 6 -6q6 -1 11 2t5 8zM1271 637q0 212 -150 362t-362 150t-362 -150t-150 -362q0 -166 98 -300q97 -134 252 -186q16 -3 27 5q9 7 9 21
v57v21.5t-1 16.5q-18 -1 -31 -3q-6 -1 -10.5 -1h-8.5q-97 -1 -121 66q-23 59 -57 74l-4 4l-8 8q-5 4 -7 9t4 8t20 3h5q5 0 9 -1q13 -3 33 -18t30 -34q49 -86 150 -42q7 46 33 69q-98 12 -159 57q-75 55 -75 195q0 78 53 137q-24 61 5 136q19 6 54 -8q36 -14 60 -30l26 -16
q62 17 129 17t129 -17l28 18q5 2 11 5t13 6t15 6.5t17 7.5q37 15 57 9q29 -75 5 -136q53 -59 53 -137q0 -109 -50 -171q-62 -71 -183 -81q35 -32 35 -95v-50v-21t-1 -18v-51q0 -14 9 -21t26 -4q154 52 252 186t98 300l-3 -1h-2zM1527 157q0 -119 -85 -203q-84 -85 -203 -85
h-960q-119 0 -204 85q-84 84 -84 203v960q0 119 84 203q85 85 204 85h960q119 0 203 -85q85 -84 85 -203v-960z" />
    <glyph glyph-name="upload_alt" unicode="&#xf093;" horiz-adv-x="1664" 
d="M1216 0q26 0 45 19t19 45t-19 45t-45 19t-45 -19t-19 -45t19 -45t45 -19zM1472 0q26 0 45 19t19 45t-19 45t-45 19t-45 -19t-19 -45t19 -45t45 -19zM1663 -32q0 -41 -28 -69t-69 -28h-1472q-41 0 -69 28t-28 69v320q0 41 28 69t69 28h427q21 -57 71 -93q49 -36 111 -36
h256q60 0 110 36t71 93h427q41 0 69 -28t28 -69v-320h-1zM1338 936q-16 -40 -60 -40h-256v-448q0 -26 -19 -45t-45 -19h-256q-26 0 -45 19t-19 45v448h-256q-44 0 -60 40q-17 40 15 69l448 448q18 19 45 19t45 -19l448 -448q31 -29 15 -69z" />
    <glyph glyph-name="lemon" unicode="&#xf094;" horiz-adv-x="1536" 
d="M1406 706v26.5t-1 27.5q-2 28 -6 60q-7 70 -18 97l-17 44q-13 32 -13 84q0 5 0.5 11.5t1.5 14.5q1 16 3 42q2 27 3 44q1 9 1.5 15.5t0.5 10.5q0 38 -10 54q-1 1 -12 1h-9t-12 -1q-14 -2 -36 -3q-8 -1 -16 -1.5t-16 -1.5t-14.5 -1h-12.5q-62 0 -177 24q-116 24 -174 24
q-44 0 -96 -12q-43 -10 -85 -24q-26 -9 -48 -18q-11 -5 -21.5 -8.5t-20.5 -7.5q-141 -56 -201 -102q-96 -73 -160 -190q-112 -205 -112 -483q0 -41 12 -120q13 -71 13 -120q0 -11 -3 -27q-2 -8 -4 -18t-4 -21q-11 -52 -11 -66q0 -22 12 -37t33 -15q17 0 72 11q58 11 75 11
q15 0 33 -1t39 -3q40 -4 97 -12q112 -15 171 -15q180 0 284 36q125 43 235 153q106 109 165 246q60 138 60 275l-2 2zM1530 706q0 -168 -70 -327q-71 -164 -195 -288q-126 -124 -281 -180q-129 -44 -327 -44q-59 0 -171 15q-29 4 -54.5 6.5t-46.5 4.5q-42 3 -68 3
q-18 0 -72 -14q-48 -15 -73 -15q-73 0 -124 56q-50 56 -50 128q0 17 11 69q2 11 4 21t4 18q3 16 3 27q0 49 -13 120q-12 81 -12 122q0 220 72 426q79 220 252 351q79 58 231 120q193 78 316 78q58 0 174 -24q115 -24 174 -24q4 0 9 0.5t12 1.5q13 1 35 3q21 1 36 3
q8 1 13.5 1.5t9.5 0.5q78 0 117 -49q39 -50 39 -135v-11.5t-1 -14.5q-2 -17 -3 -42q-2 -26 -3 -42q-1 -8 -1 -14.5v-11.5q0 -2 0.5 -6t1.5 -9q1 -11 3 -27q1 -3 9 -21q7 -17 9 -18q16 -36 25 -120q9 -78 9 -136l-3 -2h-1z" />
    <glyph glyph-name="phone" unicode="&#xf095;" horiz-adv-x="1408" 
d="M1406 293q0 -34 -10 -71q-11 -43 -21 -68q-21 -49 -122 -105q-95 -51 -186 -51q-57 0 -111 16l-47 14l-55 21l-49 18q-96 34 -174 84q-128 79 -264 216q-137 136 -216 264q-50 78 -84 174l-18 49l-21 55l-14 47q-16 54 -16 111q0 91 51 186q56 101 105 122q25 10 68 21
q37 10 71 10q13 0 21 -3q20 -6 54 -76l30 -54q34 -66 66 -117l17 -25q29 -41 29 -63q0 -19 -29 -51q-12 -15 -29 -30q-8 -7 -16 -13l-16 -12q-41 -32 -63 -54q-28 -28 -28 -46q0 -16 13 -42l5 -8q1 -5 5 -8q4 -4 5 -7l12 -19q76 -137 174 -234q97 -98 234 -174l19 -12
q6 -2 8 -4t8 -4l8 -5q26 -13 42 -13q18 0 46 28q22 22 54 63q12 16 26 32q15 17 30 29q32 29 51 29q15 0 28 -7q4 -2 8 -4.5t9 -4.5q7 -4 19 -12l25 -17l53 -31q24 -13 43.5 -23.5t33.5 -18.5l24.5 -14t16.5 -10q70 -34 76 -54q3 -8 3 -21v-1z" />
    <glyph glyph-name="check_empty" unicode="&#xf096;" horiz-adv-x="1408" 
d="M288 1280q-66 0 -113 -47t-47 -113v-832q0 -66 47 -113t113 -47h832q66 0 113 47t47 113v832q0 66 -47 113t-113 47h-832zM1408 288q0 -119 -85 -204q-84 -84 -203 -84h-832q-119 0 -204 84q-84 85 -84 204v832q0 119 84 203q85 85 204 85h832q119 0 203 -85
q85 -84 85 -203v-832z" />
    <glyph glyph-name="bookmark_empty" unicode="&#xf097;" horiz-adv-x="1280" 
d="M128 1280v-1242l423 406l89 85l89 -85l423 -406v1242h-1024zM1157 1408q23 0 44 -9q34 -14 54 -42q20 -29 20 -63v-1289q0 -35 -19 -63q-20 -29 -51 -42q-24 -8 -45 -8q-48 0 -83 32l-441 424l-441 -424q-36 -33 -83 -33q-23 0 -44 9q-32 13 -51 42q-19 28 -19 63v1289
q0 34 20 63q19 28 54 42q21 9 44 9h1044h-3z" />
    <glyph glyph-name="phone_sign" unicode="&#xf098;" horiz-adv-x="1536" 
d="M1272 344q0 5 -2 15q-6 14 -59 41q-92 52 -120 66q-2 1 -12 9q-11 7 -18 12q-3 1 -9 5t-9 5q-9 4 -15 3q-20 0 -48 -33l-27 -33l-27 -33q-27 -33 -44 -33q-14 0 -33 10q-10 5 -17.5 9.5t-13.5 8.5q-98 54 -168 126q-73 75 -128 171q-4 6 -8.5 13.5t-9.5 17.5
q-10 19 -10 33q0 17 33 44l33 27l33 27q33 28 33 48q1 6 -3 15q-2 6 -4 9t-4 9q-5 7 -12 18q-8 10 -9 12q-14 28 -66 120q-4 6 -7 12t-6 11q-6 10 -12 18q-11 15 -15 18q-5 3 -15 3q-53 0 -101 -22q-45 -20 -80 -95q-34 -69 -34 -129q1 -14 2 -26.5t3 -24.5t4.5 -23.5
t6.5 -22.5l10 -29q1 -5 12 -33l11 -30q60 -164 216 -321q157 -156 321 -216l30 -11q30 -11 33 -12l29 -10q11 -4 23 -6l24 -4t24.5 -3t26.5 -2q60 0 129 34q75 35 95 80q22 48 22 101l-7 4zM1528 161q0 -119 -85 -203q-84 -85 -203 -85h-960q-119 0 -204 85q-84 84 -84 203
v960q0 119 84 203q85 85 204 85h960q119 0 203 -85q85 -84 85 -203v-960z" />
    <glyph glyph-name="twitter" unicode="&#xf099;" horiz-adv-x="1664" 
d="M1621 1127q-68 -101 -162 -168q1 -3 1 -15v-27q0 -273 -154 -508q-77 -119 -183 -210q-104 -92 -258 -147q-152 -54 -324 -54q-272 0 -495 145q16 -2 36 -3q10 -1 20.5 -1h21.5q226 0 402 138q-106 2 -188 63q-83 63 -114 160q17 -1 34 -3q8 -1 14.5 -1h12.5q35 0 84 11
q-113 22 -186 111q-73 88 -73 207v4q68 -38 146 -41q-65 43 -106 116q-39 70 -39 153q0 85 44 162q122 -149 294 -239q174 -89 372 -99q-8 46 -8 75q0 134 94 228q95 95 228 95q140 0 236 -102q109 21 205 78q-37 -115 -142 -178q94 10 186 51l1 -3v2z" />
    <glyph glyph-name="facebook" unicode="&#xf09a;" horiz-adv-x="1024" 
d="M801 1261q-83 0 -114 -34t-31 -111v-189h293l-39 -296h-254v-759h-306v759h-255v296h255v218q0 186 104 288q103 103 277 103q147 0 228 -12l-1 -263h-157z" />
    <glyph glyph-name="github" unicode="&#xf09b;" horiz-adv-x="1536" 
d="M1530 639q0 -251 -147 -452q-146 -200 -378 -276q-26 -5 -39 6q-14 11 -14 30v76q1 13 1 27.5v31.5v77q0 97 -52 142q115 12 195 57q151 79 156 321q0 122 -79 207q37 91 -8 204q-28 9 -81 -11t-93 -45l-38 -24q-192 54 -384 0l-43 27q-19 13 -83 39q-57 23 -85 14
q-45 -113 -8 -204q-79 -85 -79 -207q0 -167 73 -255q28 -37 80 -66q81 -45 197 -57q-39 -36 -49 -103q-46 -20 -102 -20q-35 0 -66 22q-32 22 -54 63q-17 30 -45 51q-29 19 -51 24l-20 3q-20 0 -27 -4q-9 -5 -6 -12q3 -8 9 -14q6 -7 14 -12l7 -5q22 -11 42 -39
q22 -28 32 -51l10 -23q13 -37 45 -61q31 -24 66 -30q8 -2 17 -3l18 -2l36 -3q39 -2 56 4l23 4v-89q1 -8 1 -15.5v-14.5v-24q0 -19 -14 -30t-39 -6q-231 76 -379 277q-146 203 -146 453q0 210 103 385t279 279q175 103 387 103q210 0 385 -103q177 -103 280 -280
q103 -175 103 -385l-3 -1h-3zM284 304q-5 -8 -12 -2q-10 4 -7 12q3 5 13 2q10 -4 7 -12h-1zM315 270q-6 -7 -16 3q-11 10 -3 15q6 6 16 -3q10 -11 3 -15zM345 225q-8 -6 -17 7t0 18q9 8 17 -6q9 -12 0 -19zM386 183q-8 -9 -20 3q-14 10 -3 18q8 9 20 -3q12 -10 4 -18h-1z
M443 159q-4 -12 -19 -6q-17 4 -12 15q4 10 18 6q16 -4 13 -16v1zM506 154q0 -11 -16 -11q-17 -2 -17 12q0 11 16 11q17 2 17 -12zM563 165q1 -10 -14 -15q-16 -4 -18 8t15 15q16 1 18 -9z" />
    <glyph glyph-name="unlock" unicode="&#xf09c;" horiz-adv-x="1664" 
d="M1665 704q0 -26 -19 -45t-45 -19h-64q-26 0 -45 19t-19 45v256q0 106 -75 181t-181 75t-181 -75t-75 -181v-192h96q41 0 69 -28t28 -69v-576q0 -41 -28 -69t-69 -28h-960q-41 0 -69 28t-28 69v576q0 41 28 69t69 28h672v192q0 184 131 315q132 132 317 132
q184 0 315 -132q132 -131 132 -315v-255z" />
    <glyph glyph-name="credit_card" unicode="&#xf09d;" horiz-adv-x="1920" 
d="M1760 1408q66 0 113 -47t47 -113v-1216q0 -66 -47 -113t-113 -47h-1600q-66 0 -113 47t-47 113v1216q0 66 47 113t113 47h1600zM158 1279q-13 0 -22 -9t-9 -22v-224h1664v224q0 14 -9 23t-22 9zM1758 -2q14 0 23 9t9 23v608h-1664v-608q0 -13 9 -22t23 -9zM254 254h256
v-128h-256v128zM638 254h384v-128h-384v128z" />
    <glyph glyph-name="rss" unicode="&#xf09e;" horiz-adv-x="1408" 
d="M192 384q79 0 135 -56t56 -135t-56 -135t-135 -56t-135 56t-56 135t56 135t135 56zM898 66q1 -29 -18 -48q-18 -21 -47 -21h-135q-23 0 -43 17q-20 16 -21 42q-23 229 -186 390q-161 163 -390 186q-26 1 -42 21q-16 16 -16 42v135q0 29 21 47q17 17 42 17h5
q160 -14 306 -81q145 -68 258 -180q115 -113 183 -258q67 -146 81 -306l1 -1zM1409 63q2 -27 -18 -47q-18 -20 -46 -20h-143q-26 0 -44 18q-17 16 -19 42q-12 210 -101 408q-89 193 -231 336q-143 142 -336 231q-194 88 -408 102q-23 1 -43 21q-18 18 -18 44v143q0 28 20 46
q18 18 44 18h3q262 -14 501 -120q240 -107 426 -294q187 -186 294 -426q106 -239 120 -501v-2z" />
    <glyph glyph-name="hdd" unicode="&#xf0a0;" horiz-adv-x="1536" 
d="M1016 376q24 -23 24 -56t-24 -57q-23 -23 -56 -23q-31 0 -57 23q-23 26 -23 57q0 33 23 56q24 24 57 24t56 -24zM1272 376q24 -23 24 -56t-24 -57q-23 -23 -56 -23q-31 0 -57 23q-23 26 -23 57q0 33 23 56q24 24 57 24t56 -24zM1406 478q0 14 -9 23t-22 9h-1216
q-13 0 -22 -9t-9 -22v-320q0 -13 9 -22t23 -9h1216q14 0 23 9t9 23zM1356 638l-157 482q-4 13 -16 22t-26 9h-782q-14 0 -26 -9t-16 -22l-157 -482h1180zM1532 158q0 -66 -47 -113t-113 -47h-1216q-66 0 -113 47t-47 113v320q0 30 16 75l197 606q17 53 63 86t102 33h782
q55 0 102 -33q46 -33 63 -86l197 -606q16 -45 16 -75z" />
    <glyph glyph-name="bullhorn" unicode="&#xf0a1;" 
d="M1661 894q52 0 90 -38t38 -90t-38 -90q-37 -37 -90 -37v-384q0 -52 -38 -90t-90 -38q-419 347 -813 380q-57 -17 -90 -66q-33 -46 -31 -102q1 -55 39 -91q-38 -62 -17 -123q9 -25 33 -55q34 -39 111 -99q-29 -59 -111 -84q-80 -26 -168 -12q-86 13 -132 54l-30 87l-32 95
q-2 9 -5 19.5t-6 21.5q-6 22 -12 48q-14 58 -15 102q-2 121 27 210h-122q-66 0 -113 47t-47 113v192q0 66 47 113t113 47h480q436 0 897 384q52 0 90 -38t38 -90l-1 -387zM1533 1243q-395 -302 -768 -342v-270q376 -42 768 -341v954v-1z" />
    <glyph glyph-name="bell" unicode="&#xf0a2;" 
d="M895 -144q-59 0 -102 43q-42 42 -42 101q0 16 -16 16t-16 -16q0 -73 51 -124q52 -52 126 -52q16 0 16 16t-16 16h-1zM1543 128q-266 302 -266 831q0 106 -93 207q-47 49 -123 81q-74 31 -167 31t-167 -31q-77 -32 -123 -81q-93 -101 -93 -207q0 -529 -266 -831h1298z
M1722 128q0 -52 -38 -90t-90 -38h-448q0 -106 -75 -181t-181 -75t-181 75t-75 181h-448q-52 0 -90 38t-38 90q27 23 49.5 44.5t41.5 42.5q42 49 85 120q46 79 75 159q70 191 70 466q0 151 117 282t307 159q-8 24 -8 39q0 41 28 69t69 28t69 -28t28 -69q0 -15 -8 -39
q190 -28 307 -159t117 -282q0 -271 69 -466q31 -86 75 -159q43 -71 85 -120q39 -44 91 -87h-2h-1z" />
    <glyph glyph-name="certificate" unicode="&#xf0a3;" horiz-adv-x="1536" 
d="M1512 506q30 -29 20 -69q-12 -41 -52 -51l-188 -48l53 -186q12 -42 -19 -70q-28 -31 -70 -19l-186 53l-48 -188q-10 -40 -51 -52q-5 -1 -12 -1h-6q-32 0 -51 22l-135 138l-135 -138q-29 -30 -69 -20q-41 10 -51 51l-48 188l-186 -53q-42 -12 -70 19q-31 28 -19 70l53 186
l-188 48q-40 10 -52 51q-10 40 20 69l138 135l-138 135q-30 29 -20 69q12 41 52 51l188 48l-53 186q-12 42 19 70q28 31 70 19l186 -53l48 188q10 40 51 51q42 12 70 -19l135 -139l135 139q28 28 70 18q40 -11 51 -51l48 -188l186 53q42 12 70 -19q31 -28 19 -70l-53 -186
l188 -48q40 -10 52 -51q10 -40 -20 -69l-139 -135z" />
    <glyph glyph-name="hand_right" unicode="&#xf0a4;" 
d="M192 128q26 0 45 19t19 45t-19 45t-45 19t-45 -19t-19 -45t19 -45t45 -19zM1622 854q-39 39 -89 39h-576q0 31 48 102q48 72 48 153q0 65 -43 96q-44 32 -117 32q-24 0 -90 -139q-7 -13 -12.5 -23.5t-10.5 -18.5q-9 -17 -13 -22q-41 -65 -111 -144q-68 -77 -102 -105
q-69 -57 -140 -57h-32v-640h32q68 0 167 -32l193 -64q104 -32 180 -32q189 0 189 167v11t-1 13q-2 13 -3 30q46 25 61 90q15 63 -14 107q53 50 53 119q0 29 -10 56q-11 32 -24 47h331q52 0 90 38t38 90t-39 90l-1 -4zM1790 767q0 -105 -76 -181q-75 -76 -180 -76h-169
q-5 -65 -36 -120q3 -21 3 -43q0 -102 -60 -178q1 -140 -84 -219q-86 -81 -227 -81q-133 0 -322 69q-168 59 -223 59h-288q-54 0 -91 37t-37 91v640q0 53 37 90q38 38 90 38h288q22 0 66 36l45 45l33 39q67 76 99 129q13 17 33 62q7 16 36 72q70 136 165 130q128 0 207 -67
q82 -67 82 -189q0 -72 -22 -128h374q104 0 180 -76t76 -180h2z" />
    <glyph glyph-name="hand_left" unicode="&#xf0a5;" 
d="M1405 767h-32q-71 0 -129 49q-39 31 -99 99l-12 14q-71 79 -111 144q-23 37 -39 69q-1 9 -29 57q-41 78 -60 78q-73 0 -117 -32q-43 -31 -43 -96q0 -81 48 -153q48 -71 48 -102h-576q-50 0 -89 -39q-39 -38 -39 -90t38 -90t90 -38h331q-13 -15 -24 -47q-10 -27 -10 -54
q0 -69 53 -119q-29 -44 -14 -105q15 -63 61 -88q-4 -17 -4 -57q0 -83 48 -125t137 -42q72 -2 176 31q27 8 53.5 16.5t52.5 16.5t51.5 16.5t51.5 16.5q99 33 159 31l28 1zM1597 127q26 0 45 19t19 45t-19 45t-45 19t-45 -19t-19 -45t19 -45t45 -19zM1790 122q0 -52 -38 -90
q-37 -37 -90 -37h-288q-55 0 -223 -59q-191 -69 -317 -69q-143 0 -231 78q-89 76 -87 216l1 5q-61 76 -61 178q0 22 3 43q-32 55 -36 120h-169q-105 0 -181 76q-75 76 -75 181q0 104 76 180t180 76h374q-22 56 -22 128q0 121 81 189q82 67 207 67q76 0 124 -67
q13 -17 24 -33q10 -17 18 -30l36 -72q20 -45 33 -62q31 -53 99 -129l14 -17q3 -3 9 -11q2 -3 5 -6l6 -6l11 -10q6 -6 8 -9q21 -20 33 -30q3 -2 6.5 -4.5t7.5 -4.5l15 -9q16 -9 30 -9h288q52 0 90 -38t38 -90l2 -643z" />
    <glyph glyph-name="hand_up" unicode="&#xf0a6;" horiz-adv-x="1536" 
d="M1216 -128q26 0 45 19t19 45t-19 45t-45 19t-45 -19t-19 -45t19 -45t45 -19zM1408 697q0 189 -167 189h-11t-13 -1q-14 -2 -30 -3q-17 31 -54 48q-75 37 -142 0q-50 53 -119 53q-27 0 -54 -10q-32 -11 -47 -24v331q0 52 -38 90t-90 38q-51 0 -90 -39q-38 -41 -38 -90
v-576q-32 0 -104 48q-71 48 -153 48q-65 0 -96 -43q-32 -44 -32 -117q0 -24 139 -90q13 -7 23.5 -12.5t18.5 -10.5t14 -8t9 -5q64 -41 144 -111q76 -68 105 -102q57 -69 57 -140v-32h640v32q0 68 32 167l64 193q32 104 32 180l2 -1zM1534 703q0 -133 -69 -322
q-59 -168 -59 -223v-288q0 -52 -38 -90t-90 -38h-640q-52 0 -90 38q-37 37 -37 90v288q0 26 -37 66q-17 22 -45 45l-9 9t-9 8t-9.5 7.5t-9.5 7.5q-77 67 -129 99q-17 13 -62 33q-17 7 -72 36q-136 70 -130 165q0 128 67 207q67 82 189 82q72 0 128 -22v374q0 104 76 180
t180 76q105 0 181 -76q76 -75 76 -180v-169q64 -5 120 -36q21 3 43 3q100 0 177 -60q139 1 219 -84q81 -86 81 -227l-1 1h-1z" />
    <glyph glyph-name="hand_down" unicode="&#xf0a7;" horiz-adv-x="1536" 
d="M1408 576q2 72 -31 176q-8 27 -16.5 53.5t-16.5 52.5t-16.5 51.5t-16.5 51.5q-33 99 -31 159v32h-640v-32q0 -71 -49 -129q-32 -39 -99 -99l-14 -12q-80 -71 -144 -111q-38 -23 -69 -39q-6 -2 -60 -30q-77 -44 -77 -60q0 -73 32 -117q31 -43 96 -43q82 0 153 48
q72 48 104 48v-576q0 -49 38 -90q39 -39 90 -39q52 0 90 38t38 90v331q47 -35 102 -35q69 0 119 53q31 -18 69 -18t74 18t51 47q17 -4 57 -4q83 0 125 48t42 137v-3v3zM1216 1280q26 0 45 19t19 45t-19 45t-45 19t-45 -19t-19 -45t19 -45t45 -19zM1538 581q0 -143 -78 -231
q-77 -89 -216 -87l-5 1q-76 -61 -178 -61q-22 0 -43 3q-53 -29 -120 -36v-169q0 -105 -76 -180q-76 -76 -181 -76q-104 0 -180 76t-76 180v374q-50 -22 -128 -22q-122 0 -189 81q-67 82 -67 207q0 76 67 124q16 13 33 24q16 10 30 18q55 28 72 36q45 20 62 33q52 31 129 99
l17 14q3 3 11 9q3 2 6 5l6 6l11 11q6 6 9 8q19 21 30 33q5 7 10 14.5t10 15.5q9 16 9 30v288q0 53 37 90q38 38 90 38h640q52 0 90 -38t38 -90v-288q0 -55 59 -223q69 -191 69 -318l1 3z" />
    <glyph glyph-name="circle_arrow_left" unicode="&#xf0a8;" horiz-adv-x="1536" 
d="M1280 704q0 26 -19 45t-45 19h-502l189 189q19 19 19 45t-19 45l-91 91q-18 18 -45 18t-45 -18l-362 -362l-91 -91q-18 -18 -18 -45t18 -45l91 -91l362 -362q18 -18 45 -18t45 18l91 91q18 18 18 45t-18 45l-189 189h502q26 0 45 19t19 45v128zM1432 1026
q103 -175 103 -385q0 -212 -103 -387q-104 -176 -279 -279t-385 -103q-212 0 -387 103q-176 103 -279 279q-103 175 -103 387q0 210 103 385t279 279q175 103 387 103q210 0 385 -103q177 -103 280 -280z" />
    <glyph glyph-name="circle_arrow_right" unicode="&#xf0a9;" horiz-adv-x="1536" 
d="M814 1138q-18 18 -45 18t-45 -18l-91 -91q-18 -18 -18 -45t18 -45l189 -189h-502q-26 0 -45 -19t-19 -45v-128q0 -26 19 -45t45 -19h502l-189 -189q-19 -19 -19 -45t19 -45l91 -91q18 -18 45 -18t45 18l362 362l91 91q18 18 18 45t-18 45l-91 91zM1432 1026
q103 -175 103 -385q0 -212 -103 -387q-104 -176 -279 -279t-385 -103q-212 0 -387 103q-176 103 -279 279q-103 175 -103 387q0 210 103 385t279 279q175 103 387 103q210 0 385 -103q177 -103 280 -280z" />
    <glyph glyph-name="circle_arrow_up" unicode="&#xf0aa;" horiz-adv-x="1536" 
d="M813 1139q-18 18 -45 18t-45 -18l-91 -91l-362 -362q-18 -18 -18 -45t18 -45l91 -91q18 -18 45 -18t45 18l189 189v-502q0 -26 19 -45t45 -19h128q26 0 45 19t19 45v502l189 -189q19 -19 45 -19t45 19l91 91q18 18 18 45t-18 45l-362 362zM1432 1026q103 -175 103 -385
q0 -212 -103 -387q-104 -176 -279 -279t-385 -103q-212 0 -387 103q-176 103 -279 279q-103 175 -103 387q0 210 103 385t279 279q175 103 387 103q210 0 385 -103q177 -103 280 -280z" />
    <glyph glyph-name="circle_arrow_down" unicode="&#xf0ab;" horiz-adv-x="1536" 
d="M1175 775q-18 18 -45 18t-45 -18l-189 -189v502q0 26 -19 45t-45 19h-128q-26 0 -45 -19t-19 -45v-502l-189 189q-19 19 -45 19t-45 -19l-91 -91q-18 -18 -18 -45t18 -45l362 -362l91 -91q18 -18 45 -18t45 18l91 91l362 362q18 18 18 45t-18 45zM1432 1026
q103 -175 103 -385q0 -212 -103 -387q-104 -176 -279 -279t-385 -103q-212 0 -387 103q-176 103 -279 279q-103 175 -103 387q0 210 103 385t279 279q175 103 387 103q210 0 385 -103q177 -103 280 -280z" />
    <glyph glyph-name="globe" unicode="&#xf0ac;" horiz-adv-x="1536" 
d="M381 1306q175 103 387 103q210 0 385 -103q177 -103 280 -280q103 -175 103 -385q0 -212 -103 -387q-104 -176 -279 -279t-385 -103q-212 0 -387 103q-176 103 -279 279q-103 175 -103 387q0 210 103 385t279 279zM1011 866q-1 0 -10 -9t-13 -10q2 0 5 5q1 2 2.5 4.5
t3.5 6.5q3 6 4 7q6 8 22 15q13 6 51 12q34 7 51 -12q-2 1 9 12l15 12q2 2 15 5t15 8l2 22q-11 -2 -17 6q-5 7 -6 21q0 -2 -6 -8q0 7 -5 9t-11 0t-8 0q-11 3 -15 7q-5 4 -12 33q-2 4 -9 12l-9 9l-9 18q-3 11 -21 -13q-1 -4 -3 -4q-10 2 -6 2q-2 0 -6 -3l-6 -4q-2 -2 -18 -6
q17 5 0 11q-10 4 -16 3q7 4 6 12q-2 7 -9 15h5q-2 4 -9 9l-18 9q-11 4 -12 6q-8 4 -33 9q-27 4 -33 0q-4 -4 -4 -9t3 -14t3 -12q1 -4 -5 -13t-6 -12q0 -7 14 -16q13 -8 9 -21q-2 -8 -15 -18q-12 -8 -16 -12q-11 -17 9 -35q4 -6 -15 -16l-3 -2q-11 -5 -20 6q-8 10 -12 27
q-8 25 -15 30q-23 8 -29 -1q-5 13 -42 27q-22 9 -57 4q6 1 0 15q-7 15 -19 12q5 13 5 31q3 13 12 24q4 4 12 18q7 12 3 12q34 -4 51 11q4 4 13 19t10 16q9 6 14 6q3 0 15 -5t15 -5q7 0 12 5q4 4 3 12q-2 7 -6 12q6 -1 7 3q2 5 -3 14q-5 7 -9 9q-10 4 -27 -5q-7 -4 2 -9
q-1 1 -4 -3q-2 -2 -3 -4l-3 -6q-3 -4 -5 -6.5t-4 -4.5q-5 -5 -9 -5q-5 0 -9 7l-3 7q-2 7 -6 15q-3 6 -6 6q-8 0 -15 -15q3 8 -10 15q-14 7 -24 9q19 12 -8 27q-8 4 -21 6q-12 1 -19 -3q-8 -8 -3 -14q4 -6 9 -9q4 -3 15 -6l12 -4q13 -11 9 -15q-26 -11 -27 -12q-2 -2 0 -14
t-3 -14q-4 4 -10 18t-7 15q7 -9 -24 -6l-10 1h-4l-10 -1q-14 -2 -23 0q-9 1 -12 9q-5 8 0 20q2 3 3 2l-21 18q-23 -8 -45 -18q-23 -11 -48 -24q4 -2 12 0l5 2.5t8 3.5l10 5q34 13 42 6l5 5q10 -12 14 -17l6 -8q-7 4 -30 1q-20 -6 -21 -12q7 -11 6 -18q-2 2 -4 3l-7 6
q-11 10 -16 12q-8 4 -15 6q-20 0 -22 -1q-146 -80 -234 -222q7 -8 12 -9q5 -2 5 -12q0 -12 14 -4q9 -8 3 -18q1 1 45 -27q19 -17 21 -21q3 -11 -10 -18q-2 4 -15 12q-4 1 -4 0q-2 -5 0 -12q1 -5 6 -12q3 -6 8 -6q-4 1 -7 -5t-3 -17v-21v-20v-11l2 -1q-3 -10 5 -36
q9 -22 22 -19q-13 -3 20 -43l8 -9q34 -22 37 -28q1 -2 9 -21q7 -20 15 -24q-2 -6 9 -20q12 -14 11 -23q-2 0 -3 -1l-2 -1q2 -5 15 -14q14 -9 15 -13q2 -2 2 -6q0 -3 2 -9q1 -5 3 -6q3 -1 7 0q2 20 -24 62l-17 29q-2 1 -3 6q-2 6 -3 10q-3 14 -4 15q2 0 8 -3q4 -2 6.5 -3.5
t4.5 -2.5q4 -3 3 -4q-5 -12 15 -36q15 -18 30 -32l6 -9q2 -2 4 -5t4 -7q7 -13 0 -13q16 0 36 -30q4 -6 9 -27q4 -23 6 -24q4 -17 21 -24l30 -15l18 -10q4 -2 7.5 -3.5t6.5 -3.5t5 -2.5t4 -1.5q10 -2 12 -2h9q1 0 4 0.5t8 1.5q8 2 11 3q15 2 29 -15q13 -17 21 -21
q34 -20 54 -12q-3 -2 3 -12q4 -6 6 -10q4 -8 7 -12l8 -12q4 -5 18 -15q13 -11 18 -15q4 4 6 9q-3 -8 7 -20t18 -10q14 3 14 32q-31 -15 -49 18q0 4 -4 11q-5 9 -6 15q-2 6 6 8q5 -2 8 0q3 1 3 6q0 6 -1 8l-3 9l-2 6q0 4 -23 36q-5 -9 -15 -8q-11 1 -15 9l-2 -5q-1 -2 -1 -6
q-14 0 -15 1v6q0 2 2 12q2 17 3 23q1 4 6 12q2 6 3 8l3 6l3 12q2 6 -4 9q-8 3 -18 2q-20 -2 -27 -21q-8 -26 -18 -30q-10 -3 -24 -2q-17 1 -24 6q-11 7 -21 30q-10 19 -10 36v9q0 4 0.5 8.5t1.5 9.5q4 31 -3 51l3 3l6 6q5 5 7 8t3 4t6 1q1 0 7 2q1 1 3 6l-4 3q-3 3 -4 3
q8 -3 27 1q22 4 27 0q15 -10 22 3l-1 3q-1 1 -1 6v8q0 5 1 6q5 -27 29 -9q2 -2 15 -5q7 -2 11.5 -3t6.5 -2l3 -3l3 -3l6 -4q2 -2 5 0q4 1 9 6q10 -14 12 -24q10 -41 18 -45q13 -7 16 8q3 17 -1 27l-1 8v18l-1 8q-15 3 -18 12q-3 7 2 18q4 10 15 19l7 3l9 3l9 3q7 4 12 9
q21 19 15 36q6 0 11 9q-1 0 -9 5l-8 5q10 4 3 15q1 1 6 12q4 10 9 12q9 -12 21 -2q7 7 0 15q1 4 20 10q17 6 18 10q7 -2 9 3q1 2 1 12q0 7 3 12q4 7 27 15l17 11q3 4 0 4q18 -1 31 12q11 11 -6 20q4 9 -18 15h11q9 0 11 2q15 10 -7 16q-17 4 -42 -12l-23 -16zM842 -16
q205 36 351 189q-2 2 -12 5q-11 3 -12 4l-12 4l-12 4q1 4 0 9q-2 4 -6 9l-3 3l-3 3q-2 1 -4 2.5t-6 3.5q-8 4 -9 6l-6 6l-6 6l-6 4q-5 3 -6 3q4 0 -6 2q-6 2 -9 -1l-3 -1q-5 -2 -12 -6q-6 -3 -4 -5q-21 16 -36 21q-5 1 -15 9q-9 6 -13 6q-5 0 -15 -7q-2 -2 -3 -9l-3 -12
l-1 -6q-8 5 0 17q7 12 3 19q-11 12 -33 -9l-12 -8q-9 -6 -14 -11l-6 -12q-5 -11 -6 -12l-12 6q-10 4 -10 6q2 -4 2 -12q0 -5 0.5 -10.5t1.5 -12.5q2 -15 3 -23q2 -10 3 -14q7 -32 -12 -48q-29 -26 -30 -39q-5 -23 12 -27q0 -2 -8 -21q-7 -16 -6 -22v-4l2 -10l-1 -6z" />
    <glyph glyph-name="wrench" unicode="&#xf0ad;" horiz-adv-x="1664" 
d="M320 0q26 0 45 19t19 45t-19 45t-45 19t-45 -19t-19 -45t19 -45t45 -19zM346 -198q-37 -37 -90 -37t-90 37l-106 108q-38 36 -38 90q0 52 38 90l681 681q39 -98 114 -173t173 -114zM1662 914q0 -33 -23 -105q-47 -134 -165 -218q-119 -83 -258 -83q-184 0 -318 131
q-131 134 -131 318t131 315q132 132 317 132q52 0 120 -17q66 -17 108 -45q16 -10 16 -27t-16 -27l-293 -169v-224l193 -107l79 48q73 46 135 81q61 36 72 36q15 0 24 -10q9 -11 9 -24v-3v-2z" />
    <glyph glyph-name="tasks" unicode="&#xf0ae;" 
d="M1664 128v128h-640v-128h640zM1664 640v128h-1024v-128h1024zM1664 1152v128h-384v-128h384zM1792 64q0 -26 -19 -45t-45 -19h-1664q-26 0 -45 19t-19 45v256q0 26 19 45t45 19h1664q26 0 45 -19t19 -45v-256zM1792 576q0 -26 -19 -45t-45 -19h-1664q-26 0 -45 19t-19 45
v256q0 26 19 45t45 19h1664q26 0 45 -19t19 -45v-256zM1792 1088q0 -26 -19 -45t-45 -19h-1664q-26 0 -45 19t-19 45v256q0 26 19 45t45 19h1664q26 0 45 -19t19 -45v-256z" />
    <glyph glyph-name="filter" unicode="&#xf0b0;" horiz-adv-x="1408" 
d="M1403 1242q16 -42 -15 -70l-493 -493v-742q0 -44 -39 -60q-18 -5 -24 -5q-27 0 -45 19l-256 256q-19 19 -19 45v486l-493 493q-31 28 -15 70q16 39 60 39h1280q42 0 59 -39h2z" />
    <glyph glyph-name="briefcase" unicode="&#xf0b1;" 
d="M1152 1280v128h-512v-128h512zM1792 160q0 -66 -47 -113t-113 -47h-1472q-66 0 -113 47t-47 113v480h672v-160q0 -26 19 -45t45 -19h320q26 0 45 19t19 45v160h672v-480zM1024 512h-256v128h256v-128zM-2 736v384q0 66 47 113t113 47h352v160q0 41 28 69t69 28h576
q41 0 69 -28t28 -69v-160h352q66 0 113 -47t47 -113l-2 -384h-1792z" />
    <glyph glyph-name="fullscreen" unicode="&#xf0b2;" horiz-adv-x="1536" 
d="M927 639l355 -355l144 144q28 31 70 15q39 -17 39 -59v-448q0 -26 -19 -45t-45 -19h-448q-44 0 -60 40q-17 40 15 69l144 144l-355 355l-355 -355l144 -144q31 -29 15 -69t-60 -40h-448q-26 0 -45 19t-19 45v448q0 44 40 60t69 -15l144 -144l355 355l-355 355l-144 -144
q-19 -19 -45 -19q-7 0 -24 5q-40 16 -40 60v448q0 26 19 45t45 19h448q44 0 60 -40q16 -41 -15 -69l-144 -144l355 -355l355 355l-144 144q-32 28 -15 69q16 40 60 40h448q26 0 45 -19t19 -45v-448q0 -44 -39 -60q-18 -5 -24 -5q-26 0 -45 19l-144 142z" />
    <glyph glyph-name="group" unicode="&#xf0c0;" horiz-adv-x="1920" 
d="M591 640q-161 -5 -264 -129h-134q-83 0 -138 40q-56 41 -56 119q0 353 124 353q4 0 42 -21q16 -11 42 -21q13 -5 27 -10.5t30 -11.5q60 -21 119 -21q62 0 133 23q-1 -19 -3 -37q-1 -8 -1 -15v-13q0 -139 81 -256l-2 1v-1zM1589 -184q-73 -70 -195 -70h-874
q-122 0 -195 70q-73 69 -73 189q0 52 3 102q8 113 42 218q36 112 110 183q73 69 192 69q14 0 117 -70q40 -25 107 -48q67 -21 135 -21q67 0 135 21q67 23 107 48q103 70 117 70q169 0 258 -155q49 -86 69 -207q18 -92 18 -212t-73 -189v1v1zM382 1538q106 0 181 -75t75 -181
t-75 -181t-181 -75t-181 75t-75 181t75 181t181 75zM1344 896q0 -159 -113 -272q-112 -112 -271 -112q-161 0 -273 112t-112 273q0 159 112 271q113 113 272 113q157 0 270 -113t113 -270zM1917 669q0 -78 -56 -119q-55 -40 -138 -40h-134q-104 124 -264 129q81 117 81 256
v13.5t-1 15.5q-1 15 -3 38q71 -23 133 -23q59 0 119 21q34 13 69 30q8 4 15.5 7.5t14.5 6.5t12 6t10 5q18 9 21 9q124 0 124 -353l-2 -2h-1zM1533 1534q106 0 181 -75t75 -181t-75 -181t-181 -75t-181 75t-75 181t75 181t181 75z" />
    <glyph glyph-name="link" unicode="&#xf0c1;" horiz-adv-x="1664" 
d="M1458 320q0 41 -28 69l-208 208q-28 28 -69 28q-42 0 -72 -32l19 -19q16 -15 21 -21q37 -38 33 -72q0 -41 -28 -69t-69 -28q-32 0 -54 16l-19 15l-22 22l-18 19q-33 -32 -33 -72q0 -41 28 -69l206 -207q27 -27 68 -27q39 0 68 26l147 146q28 28 28 67h1h1zM756 1025
q0 41 -28 69l-206 207q-28 28 -69 28t-69 -27l-147 -146q-28 -28 -28 -67q0 -41 28 -69l208 -208q27 -27 68 -27q42 0 72 31l-19 18l-22 22q-36 39 -31 72q0 41 28 69t69 28q31 0 54 -17q10 -8 18 -15q6 -5 21 -21l19 -19q33 31 33 72h-1h2zM1419 -29q-83 -83 -203 -83
q-122 0 -204 85l-206 207q-83 83 -83 203q0 125 88 210l-88 88q-85 -88 -208 -88q-120 0 -204 84l-208 208q-84 84 -84 204q0 122 85 204l147 146q83 83 203 83q122 0 204 -85l206 -207q83 -83 83 -203q0 -125 -88 -210l88 -88q85 88 208 88q120 0 204 -84l208 -208
q84 -84 84 -204q0 -122 -85 -204z" />
    <glyph glyph-name="cloud" unicode="&#xf0c2;" horiz-adv-x="1920" 
d="M1921 386q0 -159 -113 -272q-112 -112 -271 -112h-1088q-184 0 -318 131q-131 134 -131 318q0 130 71 240t186 164q-1 10 -1 17.5v12.5v12q0 212 150 362t362 150q159 0 286 -88q130 -89 189 -231q71 62 165 62q106 0 181 -75t75 -181q0 -73 -41 -138q129 -30 213 -135
q84 -104 84 -239l2 1z" />
    <glyph glyph-name="beaker" unicode="&#xf0c3;" horiz-adv-x="1664" 
d="M1529 88q56 -89 21 -152q-34 -64 -141 -64h-1152q-107 0 -141 64q-35 62 21 152l503 793v399h-64q-26 0 -45 19t-19 45t19 45t45 19h512q26 0 45 -19t19 -45t-19 -45t-45 -19h-64v-399zM478 384h712l-272 429l-20 31v37v399h-128v-399v-37l-20 -31z" />
    <glyph glyph-name="cut" unicode="&#xf0c4;" 
d="M896 576q0 26 19 45t45 19t45 -19t19 -45t-19 -45t-45 -19t-45 19t-19 45zM1767 181q28 -19 25 -57q-5 -35 -36 -51l-128 -64q-13 -7 -30 -7q-16 0 -30 8l-690 387l-110 -66q-1 -1 -5 -3t-7 -3q13 -52 9 -97q-8 -77 -57 -147q-50 -71 -132 -123q-132 -84 -277 -84
q-137 0 -222 78q-90 84 -79 207q7 76 57 147q49 70 132 123q132 84 278 84q87 0 150 -31q9 13 22 22l122 73l-122 73q-13 9 -22 22q-63 -31 -150 -31q-146 0 -278 84q-83 52 -132 123q-50 70 -57 147q-11 125 79 207q85 79 222 79q145 0 277 -84q82 -53 132 -123
q49 -71 57 -147q4 -45 -9 -97q3 -1 7 -3t5 -3l110 -66l690 387q14 8 30 8q17 0 30 -7l128 -64q31 -17 36 -51q3 -38 -25 -57l-507 -397zM579 839q46 42 21 108q-26 66 -105 117q-92 59 -192 59q-74 0 -113 -36q-47 -42 -21 -108q25 -66 105 -117q92 -59 192 -59q74 0 113 36
zM494 94q79 51 105 117q25 66 -21 108q-39 36 -113 36q-100 0 -192 -59q-80 -51 -105 -117q-26 -66 21 -108q39 -36 113 -36q100 0 192 59zM767 647v11q0 37 33 57l14 8l-79 47l-26 -26l-6 -6l-9 -10l-6 -6l-7 -6l-9 -11zM991 449l736 576l-128 64l-768 -431v-113l-160 -96
l9 -8l7 -6l22 -24l26 -26l160 96zM1726 128l-520 408l-177 -138q-2 -2 -12 -6l582 -328z" />
    <glyph glyph-name="copy" unicode="&#xf0c5;" 
d="M1697 1154q41 0 69 -28t28 -69v-1216q0 -41 -28 -69t-69 -28h-960q-41 0 -69 28t-28 69v288h-544q-41 0 -69 28t-28 69v672q0 36 20 88q19 46 48 75l408 408q28 28 75 48q52 20 88 20h416q41 0 69 -28t28 -69v-328q67 40 129 40zM854 642h299v299zM214 1026h299v299z
M1026 1412h-384v-416q0 -41 -28 -69t-69 -28h-416v-640h512v256q0 36 20 88q19 46 48 75l317 318v416zM1667 1029h-384v-416q0 -41 -28 -69t-69 -28h-416v-640l897 1v1152z" />
    <glyph glyph-name="paper_clip" unicode="&#xf0c6;" horiz-adv-x="1408" 
d="M1404 153q0 -117 -79 -196t-196 -79q-135 0 -235 100l-777 776q-113 116 -113 270q0 157 110 270q109 111 270 111q157 0 273 -113l605 -606q10 -10 10 -22q0 -17 -31 -48q-30 -30 -46 -30q-14 0 -24 10l-606 607q-80 77 -180 77q-107 0 -180 -75q-73 -73 -73 -180
q0 -105 76 -181l776 -777q63 -63 145 -63q64 0 106 42t42 106q0 82 -63 145l-581 581q-26 24 -60 24q-29 0 -48 -19t-19 -48q0 -35 25 -60l410 -410q10 -10 10 -22q0 -17 -31 -48t-48 -31q-12 0 -22 10l-410 410q-63 61 -63 150q0 82 57 139t139 57q88 0 150 -63l581 -581
q100 -97 100 -235l1 1z" />
    <glyph glyph-name="save" unicode="&#xf0c7;" horiz-adv-x="1536" 
d="M1152 0v384h-768v-384h768zM1407 -2v896q0 18 -10 38q-10 24 -20 36l-281 281q-11 10 -33 21q-21 10 -39 10v-416q0 -41 -28 -69t-69 -28h-576q-41 0 -69 28t-28 69v416h-128v-1280h128v416q0 41 28 69t69 28h832q41 0 69 -28t28 -69v-417zM893 1244q0 14 -9 23t-22 9
h-192q-13 0 -22 -9t-9 -22v-320q0 -13 9 -22t23 -9h192q14 0 23 9t9 23zM1535 -38q0 -41 -28 -69t-69 -28h-1344q-41 0 -69 28t-28 69v1344q0 41 28 69t69 28h928q36 0 88 -20q46 -20 75 -48l280 -280q28 -29 48 -75q20 -52 20 -88z" />
    <glyph glyph-name="sign_blank" unicode="&#xf0c8;" horiz-adv-x="1536" 
d="M1536 160q0 -119 -85 -203q-84 -85 -203 -85h-960q-119 0 -204 85q-84 84 -84 203v960q0 119 84 203q85 85 204 85h960q119 0 203 -85q85 -84 85 -203v-960v0z" />
    <glyph glyph-name="reorder" unicode="&#xf0c9;" horiz-adv-x="1536" 
d="M1536 64q0 -26 -19 -45t-45 -19h-1408q-26 0 -45 19t-19 45v128q0 26 19 45t45 19h1408q26 0 45 -19t19 -45v-128zM1536 576q0 -26 -19 -45t-45 -19h-1408q-26 0 -45 19t-19 45v128q0 26 19 45t45 19h1408q26 0 45 -19t19 -45v-128zM1536 1088q0 -26 -19 -45t-45 -19
h-1408q-26 0 -45 19t-19 45v128q0 26 19 45t45 19h1408q26 0 45 -19t19 -45v-128z" />
    <glyph glyph-name="ul" unicode="&#xf0ca;" 
d="M192 320q79 0 135 -56t56 -135t-56 -135t-135 -56t-135 56t-56 135t56 135t135 56zM192 832q79 0 135 -56t56 -135t-56 -135t-135 -56t-135 56t-56 135t56 135t135 56zM1790 30q0 -13 -9 -22t-22 -9h-1216q-13 0 -22 9t-9 23v192q0 14 9 23t23 9h1216q14 0 23 -9t9 -22z
M190 1342q79 0 135 -56t56 -135t-56 -135t-135 -56t-135 56t-56 135t56 135t135 56zM1788 540q0 -13 -9 -22t-22 -9h-1216q-13 0 -22 9t-9 23v192q0 14 9 23t23 9h1216q14 0 23 -9t9 -22zM1786 1050q0 -13 -9 -22t-22 -9h-1216q-13 0 -22 9t-9 23v192q0 14 9 23t23 9h1216
q14 0 23 -9t9 -22z" />
    <glyph glyph-name="ol" unicode="&#xf0cb;" 
d="M379 -86q0 -80 -55 -126q-52 -46 -135 -46q-106 0 -172 66l57 88q49 -45 105 -45q31 0 52 15t21 42q0 64 -105 57l-26 56l32 43q40 55 81 93v1h-26h-12t-11 -1t-10.5 -1h-11.5h-25v-53h-106v152h333v-88l-95 -115q51 -12 81 -49q30 -38 30 -87l-1 -1zM381 372h-362
q-6 36 -6 54q0 97 80 162q16 13 48 36q15 10 29 20q6 5 11 8.5t10 7.5q16 13 33 33q15 18 15 35q0 25 -15 39q-17 14 -40 14q-47 0 -81 -58l-85 59q24 52 72 81q50 29 106 29q73 0 123 -42q50 -41 50 -111q0 -53 -34 -93q-35 -41 -75 -63q-44 -24 -75 -51q-35 -26 -36 -51
h127v60l104 -8zM1788 18q0 -13 -9 -22t-22 -9h-1216q-13 0 -22 9t-9 23v192q0 14 9 23t23 9h1216q14 0 23 -9t9 -22zM381 1010h-335v99h107v121q1 14 1 28v29v65v12h-2q-8 -17 -51 -54l-71 76l136 127h106v-404h109v-99zM1787 528q0 -13 -9 -22t-22 -9h-1216q-13 0 -22 9
t-9 23v192q0 14 9 23t23 9h1216q14 0 23 -9t9 -22zM1785 1038q0 -13 -9 -22t-22 -9h-1216q-13 0 -22 9t-9 23v192q0 14 9 23t23 9h1216q14 0 23 -9t9 -22z" />
    <glyph glyph-name="strikethrough" unicode="&#xf0cc;" 
d="M1760 640q14 0 23 -9t9 -23v-64q0 -14 -9 -23t-23 -9h-1728q-14 0 -23 9t-9 23v64q0 14 9 23t23 9h1728zM479 702q-29 34 -51 81q-48 97 -48 189q0 181 134 309q133 127 393 127q13 0 30 -1t38 -3q42 -5 99 -15q66 -12 177 -48q10 -38 21 -117q4 -32 6.5 -59t4.5 -50
q3 -45 3 -73v-8.5t-1 -9.5q-1 -9 -3 -26l-12 -3l-84 6l-14 2q-50 148 -102 204q-88 91 -210 91q-114 0 -182 -59q-67 -58 -67 -147q0 -74 66 -141q66 -68 279 -129q70 -20 174 -66q14 -7 27.5 -13.5t25.5 -13.5t22.5 -13t20.5 -12l-745 1zM1396 451q7 -32 7 -93
q0 -108 -41 -213q-23 -56 -71 -104q-42 -38 -109 -81q-80 -48 -153 -66q-80 -21 -203 -21q-109 0 -195 23l-140 40q-59 16 -72 27q-8 8 -8 21v13v85v37.5t-1 33.5q-2 30 0 68l2 37v44l102 2q19 -47 30 -72q32 -78 36 -83q30 -52 80 -94q43 -36 105 -57q54 -22 132 -22
q64 0 139 27q77 26 122 86q47 62 47 129q0 82 -81 156q-39 31 -138 72l412 3z" />
    <glyph glyph-name="underline" unicode="&#xf0cd;" horiz-adv-x="1536" 
d="M48 1314q-35 1 -45 3l-3 88q3 1 14 1h26h31t29 -1q28 -2 51 -3q61 -5 102 -6q20 -1 36 -1h27q85 0 168 3l146 5h45q11 0 21.5 0.5t20.5 1.5l-1 -14l2 -64v-9q-60 -9 -124 -9q-60 0 -79 -25q-13 -13 -13 -132v-33v-25l1 -229l14 -280q6 -124 51 -202q35 -59 96 -92
q89 -47 177 -47q109 0 192 28q55 18 99 51q49 37 66 63q37 57 54 114q21 73 21 229v39.5t-1 34.5q-2 31 -3 54q-1 8 -1.5 19.5t-2.5 27.5t-3.5 36t-3.5 44t-4 45.5t-4 41.5t-3 37t-2 33l-4 59q-4 67 -24 88q-35 35 -77 33l-100 -2l-14 3l2 86h84l205 -10q20 -1 42.5 -1
t46.5 2t51 4t56 6l18 -2q6 -38 6 -51q0 -14 -4 -31q-44 -11 -84 -12q-71 -11 -78 -18q-15 -15 -15 -41v-9q0 -4 0.5 -8.5t1.5 -9.5t1.5 -9.5t0.5 -8.5v-12q7 -21 21 -396q6 -195 -15 -304q-14 -74 -42 -123q-38 -65 -111 -123q-77 -59 -183 -90q-110 -33 -255 -33
q-171 0 -284 46q-119 47 -179 122q-62 76 -84 195q-16 71 -16 237v333q0 187 -17 213q-26 36 -147 39h-2zM1536 -95q0 -14 -9 -23t-23 -9h-1472q-14 0 -23 9t-9 23v64q0 14 9 23t23 9h1472q14 0 23 -9t9 -23v-64z" />
    <glyph glyph-name="table" unicode="&#xf0ce;" horiz-adv-x="1664" 
d="M512 352q0 14 -9 23t-23 9h-320q-14 0 -23 -9t-9 -23v-192q0 -14 9 -23t23 -9h320q14 0 23 9t9 23v192zM512 736q0 14 -9 23t-23 9h-320q-14 0 -23 -9t-9 -23v-192q0 -14 9 -23t23 -9h320q14 0 23 9t9 23v192zM1024 352q0 14 -9 23t-23 9h-320q-14 0 -23 -9t-9 -23v-192
q0 -14 9 -23t23 -9h320q14 0 23 9t9 23v192zM512 1120q0 14 -9 23t-23 9h-320q-14 0 -23 -9t-9 -23v-192q0 -14 9 -23t23 -9h320q14 0 23 9t9 23v192zM1024 736q0 14 -9 23t-23 9h-320q-14 0 -23 -9t-9 -23v-192q0 -14 9 -23t23 -9h320q14 0 23 9t9 23v192zM1536 352
q0 14 -9 23t-23 9h-320q-14 0 -23 -9t-9 -23v-192q0 -14 9 -23t23 -9h320q14 0 23 9t9 23v192zM1024 1120q0 14 -9 23t-23 9h-320q-14 0 -23 -9t-9 -23v-192q0 -14 9 -23t23 -9h320q14 0 23 9t9 23v192zM1536 736q0 14 -9 23t-23 9h-320q-14 0 -23 -9t-9 -23v-192
q0 -14 9 -23t23 -9h320q14 0 23 9t9 23v192zM1536 1120q0 14 -9 23t-23 9h-320q-14 0 -23 -9t-9 -23v-192q0 -14 9 -23t23 -9h320q14 0 23 9t9 23v192zM1664 160q0 -66 -47 -113t-113 -47h-1344q-66 0 -113 47t-47 113v1088q0 66 47 113t113 47h1344q66 0 113 -47t47 -113
v-1088z" />
    <glyph glyph-name="magic" unicode="&#xf0d0;" horiz-adv-x="1664" 
d="M1483 1248l-107 107l-293 -293l107 -107zM333 -83q-18 -18 -45 -18t-45 18l-198 198q-18 18 -18 45t18 45l1286 1286q18 18 45 18t45 -18l198 -198q18 -18 18 -45t-18 -45zM384 1408l-98 -30l-30 -98l-30 98l-98 30l98 30l30 98l30 -98zM832 1216l-196 -60l-60 -196
l-60 196l-196 60l196 60l60 196l60 -196zM1664 768l-98 -30l-30 -98l-30 98l-98 30l98 30l30 98l30 -98zM1024 1408l-98 -30l-30 -98l-30 98l-98 30l98 30l30 98l30 -98z" />
    <glyph glyph-name="truck" unicode="&#xf0d1;" 
d="M512 0q52 0 90 38t38 90t-38 90t-90 38t-90 -38t-38 -90t38 -90t90 -38zM640 640v256h-158q-13 0 -22 -9l-195 -195q-9 -9 -9 -22v-30h384zM1408 0q52 0 90 38t38 90t-38 90t-90 38t-90 -38t-38 -90t38 -90t90 -38zM1791 192q0 -16 -6 -28q-4 -9 -11 -16q-5 -5 -18 -12
q-5 -5 -45 -9h-26q-5 1 -12 1h-10q0 -106 -75 -181t-181 -75t-181 75t-75 181h-384q0 -106 -75 -181t-181 -75t-181 75t-75 181h-64h-11q-8 0 -13 -1h-25h-5h-9h-10q-17 3 -39 18q-17 14 -17 45q0 26 19 45t45 19v320v17v9t-1 9v38l3 34q1 29 12 52q9 21 32 47l198 198
q19 19 51 33q29 13 59 13h160v192q0 26 19 45t45 19h1024q26 0 45 -19t19 -45v-1025z" />
    <glyph glyph-name="pinterest" unicode="&#xf0d2;" horiz-adv-x="1536" 
d="M767 -126q-107 0 -218 32q58 93 78 164l54 211q19 -41 72 -69q52 -28 114 -28q180 -3 299 150q119 155 116 378q0 112 -60 213q-58 99 -172 163q-113 63 -255 63q-212 0 -351 -106q-95 -71 -147 -171q-52 -102 -51 -202q0 -104 41 -184q40 -80 117 -111q30 -12 38 20
l8 31l8 30q6 22 -11 42q-51 61 -51 150q0 148 104 258q105 109 274 109q152 0 234 -82q85 -82 85 -213q0 -170 -69 -288q-68 -119 -174 -119q-62 0 -99 43q-38 43 -24 105q2 7 4 16.5t5 21.5t7.5 26t9.5 30q42 133 42 180q0 52 -27 84t-76 32q-62 0 -105 -57
q-43 -55 -43 -141q0 -74 25 -123l-99 -418q-17 -74 -12 -177q-206 91 -333 282q-127 190 -127 423q0 210 103 385t279 279q175 103 387 103q210 0 385 -103q177 -103 280 -280q103 -175 103 -385q0 -212 -103 -387q-104 -176 -279 -279t-385 -103h-1v2z" />
    <glyph glyph-name="pinterest_sign" unicode="&#xf0d3;" horiz-adv-x="1536" 
d="M1248 1404q119 0 203 -85q85 -84 85 -203v-960q0 -119 -85 -203q-84 -85 -203 -85h-725q85 121 108 210l53 209q21 -39 73 -67t114 -28q181 0 295 147q115 148 115 375q0 87 -34 162q-35 79 -96 138q-62 62 -153 98q-92 36 -195 36q-210 0 -348 -105q-94 -70 -145 -171
q-51 -99 -51 -199q0 -104 40 -180q40 -77 117 -108q13 -5 24 0q10 4 15 18l15 61q6 22 -11 42q-50 62 -50 150q0 150 103 256q104 107 270 107q148 0 231 -81q84 -81 84 -210q0 -166 -68 -285q-67 -118 -174 -118q-60 0 -97 43q-38 43 -24 105q3 13 9 36q3 11 7.5 25t9.5 31
q41 134 41 177q0 49 -27 81t-75 32q-62 0 -105 -57q-42 -56 -42 -138q0 -71 24 -120l-98 -414q-24 -96 -7 -254h-183q-119 0 -204 85q-84 84 -84 203v960q0 119 84 203q85 85 204 85l959 -4h1z" />
    <glyph glyph-name="google_plus_sign" unicode="&#xf0d4;" horiz-adv-x="1536" 
d="M916 635q0 25 -6 63h-362v-132h217q-3 -27 -16 -50q-4 -7 -7.5 -13.5t-8.5 -13.5q-9 -14 -21 -27q-24 -27 -67 -45q-44 -18 -96 -18q-97 0 -168 71q-70 70 -70 171t70 171q71 71 168 71q91 0 153 -59l104 101q-106 100 -258 100q-159 0 -272 -113q-112 -112 -112 -271
q0 -161 112 -273t273 -112q165 0 266 105q102 105 102 270l-2 2zM1370 589v110h-109v110h-110v-110h-110v-110h110v-110h110v110h109zM1535 164q0 -119 -85 -203q-84 -85 -203 -85h-960q-119 0 -204 85q-84 84 -84 203v960q0 119 84 203q85 85 204 85h960q119 0 203 -85
q85 -84 85 -203v-960z" />
    <glyph glyph-name="google_plus" unicode="&#xf0d5;" horiz-adv-x="2304" 
d="M1436 622q0 -209 -87 -372q-86 -161 -249 -252q-161 -92 -369 -92q-153 0 -285 58q-137 58 -234 156q-98 97 -156 234q-58 132 -58 285t58 285q58 136 156 234q97 97 234 156q132 58 285 58q285 0 491 -192l-199 -191q-119 113 -291 113q-120 2 -226 -61
q-107 -63 -168 -171q-62 -108 -60 -231q-2 -123 60 -231q61 -108 168 -171q106 -63 226 -61q160 0 267 80q67 52 105 117q37 66 45 120h-416v252h692q12 -63 12 -122v-2zM2303 534h-209v-209h-210v209h-209v210h209v209h210v-209h209v-210z" />
    <glyph glyph-name="money" unicode="&#xf0d6;" horiz-adv-x="1920" 
d="M1153 384v96h-128v448h-114l-148 -137l77 -80q40 36 54 57h2v-288h-128l1 -96h384zM1260 782q40 -143 0 -285q-48 -163 -161 -234q-63 -39 -138 -39t-138 39q-113 71 -161 234q-41 142 0 285q48 163 161 234q63 39 138 39t138 -39q113 -71 161 -234zM1793 896
q-106 0 -181 75t-75 181h-1152q0 -106 -75 -181t-181 -75v-512q106 0 181 -75t75 -181h1152q0 106 75 181t181 75v512zM1921 64q0 -26 -19 -45t-45 -19h-1792q-26 0 -45 19t-19 45v1152q0 26 19 45t45 19h1792q26 0 45 -19t19 -45v-1152z" />
    <glyph glyph-name="caret_down" unicode="&#xf0d7;" horiz-adv-x="1024" 
d="M555 339q-19 -19 -45 -19t-45 19l-448 448q-31 27 -13 69t59 40h896q41 2 59 -40t-13 -69l-450 -448v0z" />
    <glyph glyph-name="caret_up" unicode="&#xf0d8;" horiz-adv-x="1024" 
d="M62 256q-40 -1 -58 39q-18 42 14 69l448 448q19 19 45 19t45 -19l448 -448q32 -27 14 -69q-18 -40 -58 -39h-898v0z" />
    <glyph glyph-name="caret_left" unicode="&#xf0d9;" horiz-adv-x="640" 
d="M640 190q1 -40 -39 -58q-42 -18 -69 14l-448 448q-19 19 -19 45t19 45l448 448q27 32 69 14q40 -18 39 -58v-898v0z" />
    <glyph glyph-name="caret_right" unicode="&#xf0da;" horiz-adv-x="640" 
d="M109 145q-27 -31 -69 -13t-40 59v896q-2 41 40 59t69 -13l448 -448q19 -19 19 -45t-19 -45l-448 -450v0z" />
    <glyph glyph-name="columns" unicode="&#xf0db;" horiz-adv-x="1664" 
d="M768 1151h-640v-1120q0 -13 9 -22t23 -9l608 -1v1152zM896 1151v-1152h608q14 0 23 9t9 23v1120h-640zM1664 31q0 -66 -47 -113t-113 -47h-1344q-66 0 -113 47t-47 113v1216q0 66 47 113t113 47h1344q66 0 113 -47t47 -113v-1216z" />
    <glyph glyph-name="sort" unicode="&#xf0dc;" horiz-adv-x="1024" 
d="M555 -45q-19 -19 -45 -19t-45 19l-448 448q-31 27 -13 69t59 40h896q41 2 59 -40t-13 -69zM60 768q-40 -1 -58 39q-18 42 14 69l448 448q19 19 45 19t45 -19l448 -448q32 -27 14 -69q-18 -40 -58 -39h-898z" />
    <glyph glyph-name="sort_down" unicode="&#xf0dd;" horiz-adv-x="1024" 
d="M555 -45q-19 -19 -45 -19t-45 19l-448 448q-31 27 -13 69t59 40h896q41 2 59 -40t-13 -69l-450 -448v0z" />
    <glyph glyph-name="sort_up" unicode="&#xf0de;" horiz-adv-x="1024" 
d="M62 768q-40 -1 -58 39q-18 42 14 69l448 448q19 19 45 19t45 -19l448 -448q32 -27 14 -69q-18 -40 -58 -39h-898v0z" />
    <glyph glyph-name="envelope_alt" unicode="&#xf0e0;" 
d="M1792 31q0 -66 -47 -113t-113 -47h-1472q-66 0 -113 47t-47 113v794q43 -50 102 -87q93 -63 169.5 -115.5t138.5 -95.5t109 -76t79 -57l92 -66q34 -23 96 -48q58 -24 111 -24h1h1q51 0 110 24q61 27 93 48q36 24 93 66l498 345q55 37 99 87v-794v-1zM1795 1119
q0 -80 -49 -150q-50 -74 -123 -123l-468 -325l-43 -31l-54 -38q-107 -74 -159 -69h-1h-1q-47 0 -108 36l-52 32l-54 38l-42 31l-262 182l-205 143q-62 43 -117 114q-55 73 -55 138q0 80 42 131t117 51h1472q64 0 111 -47q48 -47 48 -113l2 -1z" />
    <glyph glyph-name="linkedin" unicode="&#xf0e1;" horiz-adv-x="1536" 
d="M349 -80h-330v991h330v-991zM370 1218q1 -74 -51 -123q-49 -49 -135 -49h-2q-83 0 -132 49q-50 50 -50 122q0 74 51 122q52 49 135 49q84 0 133 -49q49 -48 51 -122v1zM1208 -81v530q0 224 -167 224q-60 0 -103 -33q-44 -33 -66 -87q-11 -35 -11 -81v-553h-329
q1 135 1.5 241.5t0.5 187.5v219v207v59.5t-1 30.5l-1 48h329v-144h-2q39 65 97 108q77 59 201 59q171 0 275 -114q104 -113 104 -332l1 -569z" />
    <glyph glyph-name="undo" unicode="&#xf0e2;" horiz-adv-x="1536" 
d="M767 -125q-177 0 -327 73q-155 72 -264 204q-7 10 -7 24q0 12 8 20l137 138q10 9 25 9q16 -2 24 -12q73 -95 180 -147q103 -52 225 -52q136 0 255 69q118 69 187 187t69 256q0 136 -69 255q-69 118 -187 187q-119 69 -255 69q-202 0 -348 -137l137 -138q31 -29 15 -69
t-60 -40h-448q-26 0 -45 19t-19 45v448q0 44 40 60t69 -15l130 -129q106 100 245 156q134 55 284 55q159 0 297 -61q142 -62 246 -165q103 -104 165 -246q61 -138 61 -297t-61 -297q-62 -143 -165 -246q-104 -104 -246 -165q-138 -61 -297 -61l1 3h-2z" />
    <glyph glyph-name="legal" unicode="&#xf0e3;" 
d="M1626 -203q-37 -37 -90 -37t-90 37l-363 364q-38 36 -38 90q0 53 43 96l-256 256l-126 -126q-14 -14 -33 -14t-33 14l12 -12l23 -25q7 -8 15 -27q7 -13 7 -33q0 -41 -28 -69l-17 -18l-17 -17q-5 -5 -10 -9.5t-10 -9.5q-30 -26 -70 -30q-41 0 -69 28l-408 408
q-28 28 -28 69q4 40 30 70q6 6 8 9t8 9l39 36q28 28 69 28q16 0 48 -13l9 -6q4 -3 6.5 -5t4.5 -4l6 -6l25 -25q-14 14 -14 33t14 33l348 348q14 14 33 14t33 -14l-13 12q-10 10 -12 13q-3 4 -5 6.5t-4 4.5q-7 7 -16 27q-7 14 -7 35q0 41 28 69l16 18l20 20l9 9t9 8
q30 26 70 30q41 0 69 -28l408 -408q28 -28 28 -69q-4 -40 -30 -70l-9 -9l-9 -9l-20 -19l-18 -16q-28 -28 -69 -28q-16 0 -48 13q-3 1 -9 6q-3 2 -10 9l-6 6q-4 4 -6 7t-12 13l-6 6q14 -14 14 -33t-14 -33l-126 -126l256 -256q43 43 96 43t90 -37l363 -363q37 -37 37 -90
t-37 -90l-108 -111v-2z" />
    <glyph glyph-name="dashboard" unicode="&#xf0e4;" 
d="M345 294q38 38 38 90t-38 90t-90 38t-90 -38q-37 -37 -37 -90q0 -54 37 -91t91 -37q53 0 90 37zM536 743q38 38 38 90t-38 90t-90 38t-90 -38q-37 -37 -37 -90q0 -54 37 -91t91 -37q53 0 90 37zM1102 736q6 26 -7 48q-14 22 -39 30q-26 7 -48 -6q-23 -14 -30 -39
l-101 -382q-62 -5 -108 -45q-46 -39 -63 -98q-20 -78 21 -146q40 -71 117 -90q78 -20 146 21q70 40 90 117q16 60 -6 117q-23 55 -72 90l100 381v2zM1622 297q38 38 38 90t-38 90t-90 38t-90 -38q-37 -37 -37 -90q0 -54 37 -91t91 -37q53 0 90 37zM981 938q38 38 38 90
t-38 90t-90 38t-90 -38q-37 -37 -37 -90q0 -54 37 -91t91 -37q53 0 90 37zM1428 747q38 38 38 90t-38 90t-90 38t-90 -38q-37 -37 -37 -90q0 -54 37 -91t91 -37q53 0 90 37zM1786 390q0 -261 -141 -483q-20 -29 -54 -29h-1402q-34 0 -54 29q-141 220 -141 483q0 177 71 348
q70 163 192 285q121 121 285 192q171 71 348 71t348 -71q163 -71 285 -192q121 -122 192 -285q71 -171 71 -348h-2h2z" />
    <glyph glyph-name="comment_alt" unicode="&#xf0e5;" 
d="M127 639q0 -111 72 -213q74 -104 202 -177l87 -50l-27 -96q-24 -94 -70 -171q152 63 275 171l43 38l57 -6q37 -5 69 -6q16 -1 31 -1.5t29 -0.5q204 0 381 69q178 70 282 189q105 118 105 255q0 136 -105 255q-103 118 -282 187q-173 70 -381 70q-207 0 -381 -70
q-179 -69 -282 -187q-104 -119 -104 -255v-1h-1zM890 -2q-16 0 -33 0.5t-35 1.5q-35 1 -76 6q-197 -176 -459 -243q-29 -8 -57 -12l-57 -9h-5q-13 0 -27 11q-11 10 -15 27v1q-3 4 -1 12l3 9q2 5 6 11l6 9l15 17l31 35l34 38q13 13 30 39q21 28 33 51q34 64 54 135
q-157 89 -248 220q-90 130 -90 282q0 174 120 321q119 147 326 233q210 86 450 86t450 -86q207 -86 326 -233q120 -147 120 -321t-120 -322q-120 -147 -326 -233q-201 -85 -450 -85h-3z" />
    <glyph glyph-name="comments_alt" unicode="&#xf0e6;" 
d="M129 766q0 -82 53 -159q52 -77 150 -132l97 -56l-35 -84q7 4 14 8.5t15 9.5t16 10.5t16 10.5l44 31l53 -10q20 -4 39.5 -6t38.5 -4q37 -3 74 -3q156 0 285 52q133 52 211 141q79 88 79 192t-79 192q-78 89 -211 141q-129 52 -285 52t-285 -52q-134 -53 -213 -141
q-78 -89 -78 -191v1zM708 254q-23 0 -44.5 1t-43.5 3q-44 4 -87 12q-125 -89 -279 -129q-28 -7 -86 -15h-3q-10 0 -21 8q-11 7 -12 21q-6 18 20 44l23 25q5 7 9.5 12t7.5 9t5 6l3 3q52 64 69 111q-125 72 -195 177q-71 107 -71 225q0 140 94 258t255 186q163 69 354 69
t353 -69q163 -68 258 -186q94 -118 94 -258t-94 -258t-258 -187q-166 -68 -354 -68l1 -1zM1529 103q21 -53 45 -84l17 -19q3 -3 4.5 -5t2.5 -3q3 -5 9 -12q3 -4 7.5 -8.5l9.5 -9.5l23 -25q26 -26 20 -44q-3 -14 -13 -21t-22 -6q-58 8 -86 15q-155 40 -279 129
q-44 -8 -87 -12q-22 -2 -43.5 -3t-44.5 -1q-271 0 -472 132q25 -2 48 -3q11 -1 21 -1h19q160 0 309 45q148 45 264 129q126 91 192 213q66 120 66 254q0 72 -23 152q127 -71 204 -177q75 -107 75 -230q0 -119 -70 -222q-71 -104 -195 -177v-1z" />
    <glyph glyph-name="bolt" unicode="&#xf0e7;" horiz-adv-x="896" 
d="M883 973q18 -19 7 -45l-540 -1157q-13 -25 -42 -25h-3h-5h-6q-16 4 -25 18q-9 13 -4 30l197 808l-406 -101q-1 -1 -12 -1q-16 0 -30 11q-18 15 -13 39l201 825q5 16 15 23q12 9 28 9h328q19 0 33 -12q13 -12 13 -29q0 -3 -5 -18l-171 -463l396 98q6 2 8 2h4q19 0 34 -15
l-3 3h1z" />
    <glyph glyph-name="sitemap" unicode="&#xf0e8;" 
d="M1792 -32q0 -41 -28 -69t-69 -28h-320q-41 0 -69 28t-28 69v320q0 41 28 69t69 28h96v192h-512v-192h96q41 0 69 -28t28 -69v-320q0 -41 -28 -69t-69 -28h-320q-41 0 -69 28t-28 69v320q0 41 28 69t69 28h96v192h-512v-192h96q41 0 69 -28t28 -69v-320q0 -41 -28 -69
t-69 -28h-320q-41 0 -69 28t-28 69v320q0 41 28 69t69 28h96v192q0 52 38 90t90 38h512v192h-96q-41 0 -69 28t-28 69v320q0 41 28 69t69 28h320q41 0 69 -28t28 -69v-320q0 -41 -28 -69t-69 -28h-96v-192h512q52 0 90 -38t38 -90v-192h96q41 0 69 -28t28 -69v-320v0z" />
    <glyph glyph-name="umbrella" unicode="&#xf0e9;" horiz-adv-x="1664" 
d="M895 128q0 -104 -76 -180t-180 -76t-180 76t-76 180q0 26 19 45t45 19t45 -19t19 -45q0 -50 39 -89t89 -39t89 39t39 89v580q64 22 129 0zM1658 674q0 -13 -9 -22t-22 -9q-14 0 -24 10q-50 46 -96 69q-43 22 -99 22q-66 0 -126 -36t-104 -98q-2 -4 -4 -7l-6 -9
q-4 -6 -6 -10q-3 -6 -7 -10q-8 -11 -9 -12q-11 -17 -27 -17q-18 0 -29 17q-2 1 -9 12q-3 3 -7 11t-6 11l-6 9q-2 2 -2.5 4t-1.5 4q-44 62 -104 98t-126 36t-126 -36t-104 -98q-2 -4 -4 -7l-6 -9q-4 -6 -6 -10q-3 -6 -7 -10q-8 -11 -9 -12q-11 -17 -29 -17q-16 0 -27 17
q-2 1 -9 12q-3 3 -7 11t-6 11l-6 9q-2 2 -2.5 4t-1.5 4q-44 62 -104 98t-126 36q-56 0 -99 -22q-47 -23 -96 -69q-10 -10 -24 -10q-13 0 -22 9t-9 23q0 6 1 7q45 183 172 319q126 135 296 204q169 69 363 69q290 0 522 -154q114 -76 194 -187q83 -113 116 -251q1 -1 1 -7
l-5 -1v-6zM886 1302q-14 1 -24.5 1.5t-18.5 0.5h-19h-19h-18.5t-24.5 -1v98q0 26 19 45t45 19t45 -19t19 -45l-2 -98z" />
    <glyph glyph-name="paste" unicode="&#xf0ea;" 
d="M1665 -129v640h-416q-41 0 -69 28t-28 69v416h-384l1 -1153h896zM1023 1373q0 14 -9 23t-22 9h-704q-13 0 -22 -9t-9 -22v-64q0 -13 9 -22t23 -9h704q14 0 23 9t9 23zM1578 637l-299 299v-299h299zM1792 -166q0 -41 -28 -69t-69 -28h-960q-41 0 -69 28t-28 69v160h-544
q-41 0 -69 28t-28 69v1344q0 41 28 69t69 28h1088q41 0 69 -28t28 -69v-328q22 -14 36 -27l408 -408q28 -29 48 -75q20 -52 20 -88z" />
    <glyph glyph-name="light_bulb" unicode="&#xf0eb;" horiz-adv-x="1024" 
d="M736 958q0 -20 -16 -27q-17 -8 -33 0q-16 7 -16 27q0 46 -54 72q-50 25 -105 25q-20 0 -27 16q-8 16 0 33q7 16 27 16q54 0 99 -16q49 -17 87 -54q38 -38 38 -90v-2zM894 958q0 71 -34 132q-35 61 -90 102q-115 85 -258 85q-142 0 -260 -85q-56 -41 -90 -102t-34 -132
q0 -100 68 -180l30 -33l31 -33q128 -153 141 -298h228q13 145 141 298l30 33l31 33q68 80 68 180v2zM1016 958q0 -156 -103 -268q-45 -50 -75 -87q-8 -10 -15 -21t-15 -23t-15 -25t-14 -27q-29 -56 -33 -108q47 -29 47 -81q0 -38 -25 -63q25 -25 25 -63q0 -53 -45 -81
q13 -22 13 -48q0 -44 -31 -69q-32 -26 -78 -26q-20 -44 -60 -69q-41 -26 -87 -26t-87 26q-41 25 -60 69q-46 0 -78 26q-31 25 -31 69q0 26 13 48q-45 28 -45 81q0 38 25 63q-25 25 -25 63q0 52 47 81q-5 52 -33 108q-30 58 -60 96q-7 8 -14.5 18t-16.5 21q-18 22 -42 48
q-103 112 -103 268q0 97 44 183q43 85 117 144q158 122 351 122q92 0 186 -32q91 -32 165 -90q76 -59 120 -144q44 -86 44 -183h-4h-2z" />
    <glyph glyph-name="exchange" unicode="&#xf0ec;" 
d="M1790 156q0 -13 -9 -22t-22 -9h-1376v-192q0 -13 -9 -22t-22 -9q-14 0 -24 10l-319 320q-9 9 -9 22q0 14 9 23l320 320q9 9 23 9t23 -9t9 -22v-192h1376q14 0 23 -9t9 -22zM1459 549q-9 -9 -23 -9q-13 0 -22 9t-9 23v192h-1376q-13 0 -22 9t-9 23v192q0 14 9 23t23 9
h1376v192q0 14 9 23t23 9t24 -10l319 -319q9 -9 9 -23t-9 -23z" />
    <glyph glyph-name="cloud_download" unicode="&#xf0ed;" horiz-adv-x="1920" 
d="M1277 606q0 14 -9 23t-23 9h-224v352q0 14 -9 23t-22 9h-192q-13 0 -22 -9t-9 -22v-352h-224q-13 0 -22 -9t-9 -22q0 -14 9 -23l352 -352q9 -9 23 -9t23 9l351 351q10 10 10 24zM1917 380q0 -159 -113 -272q-112 -112 -271 -112h-1088q-184 0 -318 131q-131 134 -131 318
q0 131 70 240t189 165q-1 10 -1 17.5v12.5v12q0 212 150 362t362 150q156 0 285 -87q130 -87 189 -231q71 62 165 62q106 0 181 -75t75 -181q0 -76 -41 -138q130 -32 213 -135q84 -104 84 -237l2 -3z" />
    <glyph glyph-name="cloud_upload" unicode="&#xf0ee;" horiz-adv-x="1920" 
d="M1280 671q0 14 -9 23l-352 352q-9 9 -23 9t-23 -9l-351 -351q-10 -10 -10 -24t9 -23t23 -9h224v-352q0 -13 9 -22t23 -9h192q14 0 23 9t9 23v352h224q14 0 23 9t9 23v-1zM1920 381q0 -159 -113 -272q-112 -112 -271 -112h-1088q-184 0 -318 131q-131 134 -131 318
q0 131 70 240t189 165q-1 10 -1 17.5v12.5v12q0 212 150 362t362 150q156 0 285 -87q130 -87 189 -231q71 62 165 62q106 0 181 -75t75 -181q0 -76 -41 -138q130 -32 213 -135q84 -104 84 -237l2 -3z" />
    <glyph glyph-name="user_md" unicode="&#xf0f0;" horiz-adv-x="1408" 
d="M320 256q26 0 45 -19t19 -45t-19 -45t-45 -19t-45 19t-19 45t19 45t45 19zM1409 127q0 -121 -73 -190q-74 -69 -195 -69h-874q-122 0 -195 69t-73 190q0 143 29 270q19 75 48 132q31 61 84 106q52 46 117 60q-22 -48 -22 -120v-203q-59 -20 -93 -69q-35 -50 -35 -111
q0 -79 56 -135t135 -56t135 56t56 135q0 61 -36 111q-36 49 -93 69v203q0 62 25 93q134 -104 294 -104t294 104q25 -31 25 -93v-64q-106 0 -181 -75t-75 -181v-89q-32 -29 -32 -71q0 -41 28 -69t69 -28t69 28t28 69q0 42 -32 71v89q0 52 38 90t90 38t90 -38t38 -90v-89
q-32 -29 -32 -71q0 -41 28 -69t69 -28t69 28t28 69q0 42 -32 71v89q0 70 -34 128q-35 58 -93 93v42q1 33 0 48q0 81 -22 129q65 -13 118 -57q53 -45 84 -106q7 -14 13.5 -29.5t12.5 -32.5q12 -34 21 -70q30 -120 30 -269l-2 -3zM1091 1018q0 -159 -113 -272
q-112 -112 -271 -112q-161 0 -273 112t-112 273q0 159 112 271q113 113 272 113q157 0 270 -113t113 -270z" />
    <glyph glyph-name="stethoscope" unicode="&#xf0f1;" horiz-adv-x="1408" 
d="M1216 768q26 0 45 19t19 45t-19 45t-45 19t-45 -19t-19 -45t19 -45t45 -19zM1407 830q0 -61 -35 -111q-34 -49 -93 -70v-395q0 -158 -132 -270q-131 -113 -315 -113t-318 113q-131 113 -131 270v132q-164 19 -273 129q-110 108 -110 252v512q0 26 19 45t45 19h5l11 -1
q16 30 48 48q30 18 65 18q52 0 90 -38t38 -90t-38 -90q-37 -37 -90 -37q-32 0 -63 18v-402q0 -106 94 -181t226 -75q130 0 225 75q94 75 94 181v402q-32 -18 -63 -18q-54 0 -91 37t-37 91q0 53 37 90q38 38 90 38q35 0 65 -18q31 -18 48 -48l11 2h5q26 0 45 -19t19 -45v-512
q0 -144 -110 -252q-110 -110 -273 -129v-132q0 -106 94 -181t226 -75q130 0 225 75q94 75 94 181v395q-59 21 -93 70q-35 50 -35 111q0 79 56 135t135 56t135 -56t56 -135l1 -1z" />
    <glyph glyph-name="suitcase" unicode="&#xf0f2;" 
d="M1152 1152v128h-512v-128h512zM288 -128h-64q-92 0 -158 66t-66 158v832q0 92 66 158t158 66h64v-1280zM1406 -128h-1024v1280h128v160q0 41 28 69t69 28h576q41 0 69 -28t28 -69v-160h126v-1280zM1790 96q0 -92 -66 -158t-158 -66h-64v1280h64q92 0 158 -66t66 -158
v-832z" />
    <glyph glyph-name="bell_alt" unicode="&#xf0f3;" 
d="M895 -144q-59 0 -102 43q-42 42 -42 101q0 16 -16 16t-16 -16q0 -73 51 -124q52 -52 126 -52q16 0 16 16t-16 16h-1zM1724 128q0 -52 -38 -90t-90 -38h-448q0 -106 -75 -181t-181 -75t-181 75t-75 181h-448q-52 0 -90 38t-38 90q27 23 49.5 44.5t41.5 42.5q42 49 85 120
q46 79 75 159q70 191 70 466q0 151 117 282t307 159q-8 24 -8 39q0 41 28 69t69 28t69 -28t28 -69q0 -15 -8 -39q190 -28 307 -159t117 -282q0 -271 69 -466q31 -86 75 -159q43 -71 85 -120q39 -44 91 -87h-2h-1z" />
    <glyph glyph-name="coffee" unicode="&#xf0f4;" horiz-adv-x="1920" 
d="M1408 706h64q79 0 135 56t56 135t-56 135t-135 56l-64 2v-384zM1792 130q0 -106 -75 -181t-181 -75h-1280q-106 0 -181 75t-75 181h1792zM1409 481q0 -92 -66 -158t-158 -66h-704q-92 0 -158 66t-66 158v736q0 26 19 45t45 19h1152q157 0 270 -113t113 -270
q0 -159 -113 -272q-112 -112 -271 -112l-63 -1v-32z" />
    <glyph glyph-name="food" unicode="&#xf0f5;" horiz-adv-x="1408" 
d="M642 832q0 -62 -36 -111q-36 -50 -93 -69v-779q0 -52 -38 -90t-90 -38h-128q-52 0 -90 38t-38 90v779q-57 19 -93 69q-36 49 -36 111v640q0 26 19 45t45 19t45 -19t19 -45v-416q0 -26 19 -45t45 -19t45 19t19 45v416q0 26 19 45t45 19t45 -19t19 -45v-416q0 -26 19 -45
t45 -19t45 19t19 45v416q0 26 19 45t45 19t45 -19t19 -45zM1409 -128q0 -52 -38 -90t-90 -38h-128q-52 0 -90 38t-38 90v512h-224q-13 0 -22 9t-9 23v800q0 132 94 226t226 94h256q26 0 45 -19t19 -45z" />
    <glyph glyph-name="file_text_alt" unicode="&#xf0f6;" horiz-adv-x="1536" 
d="M1470 1154q28 -29 48 -75q20 -52 20 -88v-1152q0 -41 -28 -69t-69 -28h-1344q-41 0 -69 28t-28 69v1600q0 41 28 69t69 28h896q36 0 88 -20q46 -20 75 -48zM1402 1022q-11 31 -21 42l-313 313q-11 10 -42 21l-1 -375zM1411 893h-416q-41 0 -69 28t-28 69v416h-768v-1536
l1281 -1v1024zM387 733q0 14 9 23t23 9h704q14 0 23 -9t9 -23v-64q0 -14 -9 -23t-23 -9h-704q-14 0 -23 9t-9 23v64zM1123 509q14 0 23 -9t9 -23v-64q0 -14 -9 -23t-23 -9h-704q-14 0 -23 9t-9 23v64q0 14 9 23t23 9h704zM1123 253q14 0 23 -9t9 -23v-64q0 -14 -9 -23
t-23 -9h-704q-14 0 -23 9t-9 23v64q0 14 9 23t23 9h704z" />
    <glyph glyph-name="building" unicode="&#xf0f7;" horiz-adv-x="1408" 
d="M382 158q0 -13 -9 -22t-22 -9h-64q-13 0 -22 9t-9 23v64q0 14 9 23t23 9h64q14 0 23 -9t9 -22zM380 412q0 -13 -9 -22t-22 -9h-64q-13 0 -22 9t-9 23v64q0 14 9 23t23 9h64q14 0 23 -9t9 -22zM634 410q0 -13 -9 -22t-22 -9h-64q-13 0 -22 9t-9 23v64q0 14 9 23t23 9h64
q14 0 23 -9t9 -22zM376 664q0 -13 -9 -22t-22 -9h-64q-13 0 -22 9t-9 23v64q0 14 9 23t23 9h64q14 0 23 -9t9 -22zM1142 150q0 -13 -9 -22t-22 -9h-64q-13 0 -22 9t-9 23v64q0 14 9 23t23 9h64q14 0 23 -9t9 -22zM884 404q0 -13 -9 -22t-22 -9h-64q-13 0 -22 9t-9 23v64
q0 14 9 23t23 9h64q14 0 23 -9t9 -22zM626 658q0 -13 -9 -22t-22 -9h-64q-13 0 -22 9t-9 23v64q0 14 9 23t23 9h64q14 0 23 -9t9 -22zM368 912q0 -13 -9 -22t-22 -9h-64q-13 0 -22 9t-9 23v64q0 14 9 23t23 9h64q14 0 23 -9t9 -22zM1134 398q0 -13 -9 -22t-22 -9h-64
q-13 0 -22 9t-9 23v64q0 14 9 23t23 9h64q14 0 23 -9t9 -22zM876 652q0 -13 -9 -22t-22 -9h-64q-13 0 -22 9t-9 23v64q0 14 9 23t23 9h64q14 0 23 -9t9 -22zM618 906q0 -13 -9 -22t-22 -9h-64q-13 0 -22 9t-9 23v64q0 14 9 23t23 9h64q14 0 23 -9t9 -22zM360 1160
q0 -13 -9 -22t-22 -9h-64q-13 0 -22 9t-9 23v64q0 14 9 23t23 9h64q14 0 23 -9t9 -22zM1126 646q0 -13 -9 -22t-22 -9h-64q-13 0 -22 9t-9 23v64q0 14 9 23t23 9h64q14 0 23 -9t9 -22zM868 900q0 -13 -9 -22t-22 -9h-64q-13 0 -22 9t-9 23v64q0 14 9 23t23 9h64q14 0 23 -9
t9 -22zM610 1154q0 -13 -9 -22t-22 -9h-64q-13 0 -22 9t-9 23v64q0 14 9 23t23 9h64q14 0 23 -9t9 -22zM1120 896q0 -13 -9 -22t-22 -9h-64q-13 0 -22 9t-9 23v64q0 14 9 23t23 9h64q14 0 23 -9t9 -22zM862 1150q0 -13 -9 -22t-22 -9h-64q-13 0 -22 9t-9 23v64q0 14 9 23
t23 9h64q14 0 23 -9t9 -22zM1116 1148q0 -13 -9 -22t-22 -9h-64q-13 0 -22 9t-9 23v64q0 14 9 23t23 9h64q14 0 23 -9t9 -22zM1244 -165v1536h-1152v-1536h384v224q0 14 9 23t23 9h320q14 0 23 -9t9 -22v-225h384zM1372 -229q0 -26 -19 -45t-45 -19h-1280q-26 0 -45 19
t-19 45v1664q0 26 19 45t45 19h1280q26 0 45 -19t19 -45v-1664z" />
    <glyph glyph-name="hospital" unicode="&#xf0f8;" horiz-adv-x="1408" 
d="M382 158q0 -13 -9 -22t-22 -9h-64q-13 0 -22 9t-9 23v64q0 14 9 23t23 9h64q14 0 23 -9t9 -22zM380 412q0 -13 -9 -22t-22 -9h-64q-13 0 -22 9t-9 23v64q0 14 9 23t23 9h64q14 0 23 -9t9 -22zM634 410q0 -13 -9 -22t-22 -9h-64q-13 0 -22 9t-9 23v64q0 14 9 23t23 9h64
q14 0 23 -9t9 -22zM376 664q0 -13 -9 -22t-22 -9h-64q-13 0 -22 9t-9 23v64q0 14 9 23t23 9h64q14 0 23 -9t9 -22zM1142 150q0 -13 -9 -22t-22 -9h-64q-13 0 -22 9t-9 23v64q0 14 9 23t23 9h64q14 0 23 -9t9 -22zM884 404q0 -13 -9 -22t-22 -9h-64q-13 0 -22 9t-9 23v64
q0 14 9 23t23 9h64q14 0 23 -9t9 -22zM626 658q0 -13 -9 -22t-22 -9h-64q-13 0 -22 9t-9 23v64q0 14 9 23t23 9h64q14 0 23 -9t9 -22zM1136 400q0 -13 -9 -22t-22 -9h-64q-13 0 -22 9t-9 23v64q0 14 9 23t23 9h64q14 0 23 -9t9 -22zM878 654q0 -13 -9 -22t-22 -9h-64
q-13 0 -22 9t-9 23v64q0 14 9 23t23 9h64q14 0 23 -9t9 -22zM1132 652q0 -13 -9 -22t-22 -9h-64q-13 0 -22 9t-9 23v64q0 14 9 23t23 9h64q14 0 23 -9t9 -22zM1262 -149v1152h-256v-32q0 -41 -28 -69t-69 -28h-448q-41 0 -69 28t-28 69v32h-256v-1152h384v224q0 14 9 23
t23 9h320q14 0 23 -9t9 -22l2 -225h384zM874 1351q0 14 -9 23t-22 9h-64q-13 0 -22 -9t-9 -22v-96h-128v96q0 14 -9 23t-22 9h-64q-13 0 -22 -9t-9 -22v-320q0 -13 9 -22t23 -9h64q14 0 23 9t9 23v96h128v-96q0 -13 9 -22t23 -9h64q14 0 23 9t9 23zM1384 -217q0 -26 -19 -45
t-45 -19h-1280q-26 0 -45 19t-19 45v1280q0 26 19 45t45 19h320v288q0 41 28 69t69 28h448q41 0 69 -28t28 -69v-288h320q26 0 45 -19t19 -45z" />
    <glyph glyph-name="ambulance" unicode="&#xf0f9;" horiz-adv-x="1920" 
d="M601 38q38 38 38 90t-38 90t-90 38t-90 -38q-37 -37 -37 -90q0 -54 37 -91t91 -37q53 0 90 37zM638 641v256h-158q-14 -2 -21 -9l-195 -195q-8 -12 -9 -22v-30h383zM1495 39q38 38 38 90t-38 90t-90 38t-90 -38q-37 -37 -37 -90q0 -54 37 -91t91 -37q53 0 90 37z
M1661 994q0 14 -9 23t-23 9h-224v224q0 14 -9 23t-23 9h-192q-14 0 -23 -9t-9 -23v-224h-224q-14 0 -23 -9t-9 -23v-192q0 -14 9 -23t23 -9h224v-224q0 -14 9 -23t23 -9h192q14 0 23 9t9 23v224h224q14 0 23 9t9 23v192zM1917 194q0 -26 -19 -45t-45 -19h-192
q0 -106 -75 -181t-181 -75t-181 75t-75 181h-384q0 -106 -75 -181t-181 -75t-181 75t-75 181h-128q-26 0 -45 19t-19 45t19 45t45 19v416q0 28 13 57q13 31 33 51l198 198q19 19 51 33q29 13 57 13h160v320q0 26 19 45t45 19h1152q26 0 45 -19t19 -45v-1152z" />
    <glyph glyph-name="medkit" unicode="&#xf0fa;" 
d="M1280 608q0 14 -9 23t-23 9h-224v224q0 14 -9 23t-23 9h-192q-14 0 -23 -9t-9 -23v-224h-224q-14 0 -23 -9t-9 -23v-192q0 -14 9 -23t23 -9h224v-224q0 -14 9 -23t23 -9h192q14 0 23 9t9 23v224h224q14 0 23 9t9 23v192zM1152 1152v128h-512v-128h512zM256 -128h-32
q-92 0 -158 66t-66 158v832q0 92 66 158t158 66h32v-1280zM1438 -128h-1088v1280h160v160q0 41 28 69t69 28h576q41 0 69 -28t28 -69v-160h158v-1280zM1790 96q0 -92 -66 -158t-158 -66h-32v1280h32q92 0 158 -66t66 -158v-832z" />
    <glyph glyph-name="fighter_jet" unicode="&#xf0fb;" horiz-adv-x="1920" 
d="M1919 574q-2 -32 -288 -96l-352 -32l-224 -64h-64l-293 -352h69q30 0 45 -4q19 -4 19 -12t-19 -12q-15 -4 -45 -4h-96h-160h-64v32h64v416h-160l-192 -224h-96l-32 32v192h32v32h128v8l-192 24v128l192 24v8h-128v32h-32v192l32 32h96l192 -224h160v416h-64v32h64h160h96
q30 0 45 -4q19 -4 19 -12t-19 -12q-15 -4 -45 -4h-69l293 -352h64l224 -64l352 -32q30 -7 57 -13t51 -12q50 -13 86 -24q76 -24 87 -35l6 -11z" />
    <glyph glyph-name="beer" unicode="&#xf0fc;" horiz-adv-x="1664" 
d="M640 1024h-256v-256q0 -54 37 -91t91 -37h128v384zM1665 -1h-1152v192l128 192h-128q-161 0 -273 112t-112 273v320l-64 64l32 128h480l32 128h960l32 -192l-64 -32v-800l129 -193v-192z" />
    <glyph glyph-name="h_sign" unicode="&#xf0fd;" horiz-adv-x="1536" 
d="M1280 1088q0 26 -19 45t-45 19h-128q-26 0 -45 -19t-19 -45v-320h-512v320q0 26 -19 45t-45 19h-128q-26 0 -45 -19t-19 -45v-896q0 -26 19 -45t45 -19h128q26 0 45 19t19 45v320h512v-320q0 -26 19 -45t45 -19h128q26 0 45 19t19 45v896zM1536 160q0 -119 -85 -203
q-84 -85 -203 -85h-960q-119 0 -204 85q-84 84 -84 203v960q0 119 84 203q85 85 204 85h960q119 0 203 -85q85 -84 85 -203v-960z" />
    <glyph glyph-name="f0fe" unicode="&#xf0fe;" horiz-adv-x="1536" 
d="M1280 704q0 26 -19 45t-45 19h-320v320q0 26 -19 45t-45 19h-128q-26 0 -45 -19t-19 -45v-320h-320q-26 0 -45 -19t-19 -45v-128q0 -26 19 -45t45 -19h320v-320q0 -26 19 -45t45 -19h128q26 0 45 19t19 45v320h320q26 0 45 19t19 45v128zM1536 160q0 -119 -85 -203
q-84 -85 -203 -85h-960q-119 0 -204 85q-84 84 -84 203v960q0 119 84 203q85 85 204 85h960q119 0 203 -85q85 -84 85 -203v-960z" />
    <glyph glyph-name="double_angle_left" unicode="&#xf100;" horiz-adv-x="1024" 
d="M567 89q-10 -10 -24 -10t-24 10l-466 466q-10 10 -10 24t10 24l466 466q10 10 24 10t24 -10l50 -50q10 -10 10 -24t-10 -24l-393 -393l393 -393q10 -10 10 -24t-10 -24zM951 91q-10 -10 -24 -10t-24 10l-466 466q-10 10 -10 24t10 24l466 466q10 10 24 10t24 -10l50 -50
q10 -10 10 -24t-10 -24l-393 -393l393 -393q10 -10 10 -24t-10 -24z" />
    <glyph glyph-name="double_angle_right" unicode="&#xf101;" horiz-adv-x="1024" 
d="M119 85q-10 -10 -24 -10t-24 10l-50 50q-10 10 -10 24t10 24l393 393l-393 393q-10 10 -10 24t10 24l50 50q10 10 24 10t24 -10l466 -466q10 -10 10 -24t-10 -24zM503 83q-10 -10 -24 -10t-24 10l-50 50q-10 10 -10 24t10 24l393 393l-393 393q-10 10 -10 24t10 24l50 50
q10 10 24 10t24 -10l466 -466q10 -10 10 -24t-10 -24z" />
    <glyph glyph-name="double_angle_up" unicode="&#xf102;" horiz-adv-x="1152" 
d="M1017 151q-10 -10 -24 -10t-24 10l-393 393l-393 -393q-10 -10 -24 -10t-24 10l-50 50q-10 10 -10 24t10 24l466 466q10 10 24 10t24 -10l466 -466q10 -10 10 -24t-10 -24zM1019 535q-10 -10 -24 -10t-24 10l-393 393l-393 -393q-10 -10 -24 -10t-24 10l-50 50
q-10 10 -10 24t10 24l466 466q10 10 24 10t24 -10l466 -466q10 -10 10 -24t-10 -24z" />
    <glyph glyph-name="double_angle_down" unicode="&#xf103;" horiz-adv-x="1152" 
d="M597 183q-10 -10 -24 -10t-24 10l-466 466q-10 10 -10 24t10 24l50 50q10 10 24 10t24 -10l393 -393l393 393q10 10 24 10t24 -10l50 -50q10 -10 10 -24t-10 -24zM595 567q-10 -10 -24 -10t-24 10l-466 466q-10 10 -10 24t10 24l50 50q10 10 24 10t24 -10l393 -393
l393 393q10 10 24 10t24 -10l50 -50q10 -10 10 -24t-10 -24z" />
    <glyph glyph-name="angle_left" unicode="&#xf104;" horiz-adv-x="640" 
d="M617 185q10 -10 10 -24t-10 -24l-50 -50q-10 -10 -24 -10t-24 10l-466 466q-10 10 -10 24t10 24l466 466q10 10 24 10t24 -10l50 -50q10 -10 10 -24t-10 -24l-393 -391z" />
    <glyph glyph-name="angle_right" unicode="&#xf105;" horiz-adv-x="640" 
d="M119 85q-10 -10 -24 -10t-24 10l-50 50q-10 10 -10 24t10 24l393 393l-393 393q-10 10 -10 24t10 24l50 50q10 10 24 10t24 -10l466 -466q10 -10 10 -24t-10 -24l-466 -468v0z" />
    <glyph glyph-name="angle_up" unicode="&#xf106;" horiz-adv-x="1152" 
d="M1017 279q-10 -10 -24 -10t-24 10l-393 393l-393 -393q-10 -10 -24 -10t-24 10l-50 50q-10 10 -10 24t10 24l466 466q10 10 24 10t24 -10l466 -466q10 -10 10 -24t-10 -24l-48 -50v0z" />
    <glyph glyph-name="angle_down" unicode="&#xf107;" horiz-adv-x="1152" 
d="M597 311q-10 -10 -24 -10t-24 10l-466 466q-10 10 -10 24t10 24l50 50q10 10 24 10t24 -10l393 -393l393 393q10 10 24 10t24 -10l50 -50q10 -10 10 -24t-10 -24l-468 -466v0z" />
    <glyph glyph-name="desktop" unicode="&#xf108;" horiz-adv-x="1920" 
d="M1790 1374q0 14 -9 23t-22 9h-1600q-13 0 -22 -9t-9 -22v-832q0 -13 9 -22t23 -9h1600q14 0 23 9t9 23zM1918 288q0 -66 -47 -113t-113 -47h-544q0 -40 32 -115t32 -78q0 -26 -19 -45t-45 -19h-512q-26 0 -45 19t-19 45q0 4 32 77t32 114h-544q-66 0 -113 47t-47 113
v1088q0 66 47 113t113 47h1600q66 0 113 -47t47 -113v-1087v1z" />
    <glyph glyph-name="laptop" unicode="&#xf109;" horiz-adv-x="1920" 
d="M416 256q-66 0 -113 47t-47 113v704q0 66 47 113t113 47h1088q66 0 113 -47t47 -113v-704q0 -66 -47 -113t-113 -47h-1088zM382 414q0 -13 9 -22t23 -9h1088q14 0 23 9t9 23v704q0 14 -9 23t-22 9h-1088q-13 0 -22 -9t-9 -22zM1920 190v-96q0 -39 -47 -68
q-46 -28 -114 -28h-1600q-68 0 -114 28q-47 29 -47 68v96h160h1602h160zM1040 94q16 0 16 16t-16 16h-160q-16 0 -16 -16t16 -16h160z" />
    <glyph glyph-name="tablet" unicode="&#xf10a;" horiz-adv-x="1152" 
d="M576 64q26 0 45 19t19 45t-19 45t-45 19t-45 -19t-19 -45t19 -45t45 -19zM1022 1246q0 14 -9 23t-22 9h-832q-13 0 -22 -9t-9 -22v-960q0 -13 9 -22t23 -9h832q14 0 23 9t9 23zM1150 158q0 -66 -47 -113t-113 -47h-832q-66 0 -113 47t-47 113v1088q0 66 47 113t113 47
h832q66 0 113 -47t47 -113v-1088z" />
    <glyph glyph-name="mobile_phone" unicode="&#xf10b;" horiz-adv-x="768" 
d="M440 71q24 24 24 57t-24 56q-23 24 -56 24t-57 -24q-23 -23 -23 -56q0 -31 23 -57q26 -23 57 -23q33 0 56 23zM670 990q0 14 -9 23t-22 9h-512q-13 0 -22 -9t-9 -22v-704q0 -13 9 -22t23 -9h512q14 0 23 9t9 23zM302 1150q-16 0 -16 -16t16 -16h160q16 0 16 16t-16 16
h-160zM766 126q0 -52 -38 -90t-90 -38h-512q-52 0 -90 38t-38 90v1024q0 52 38 90t90 38h512q52 0 90 -38t38 -90v-1024z" />
    <glyph glyph-name="circle_blank" unicode="&#xf10c;" horiz-adv-x="1536" 
d="M1041 1111q-124 73 -273 73t-273 -73q-125 -74 -198 -198t-73 -273t73 -273q73 -125 198 -198q124 -73 273 -73t273 73t198 198q73 124 73 273t-73 273q-74 124 -198 198zM1432 1026q103 -175 103 -385q0 -212 -103 -387q-104 -176 -279 -279t-385 -103q-212 0 -387 103
q-176 103 -279 279q-103 175 -103 387q0 210 103 385t279 279q175 103 387 103q210 0 385 -103q177 -103 280 -280z" />
    <glyph glyph-name="quote_left" unicode="&#xf10d;" horiz-adv-x="1664" 
d="M766 193q0 -79 -56 -135t-135 -56h-384q-79 0 -135 56t-56 135v704q0 136 69 255q69 118 187 187t256 69h64q26 0 45 -19t19 -45v-128q0 -26 -19 -45t-45 -19h-64q-106 0 -181 -75t-75 -181v-32q0 -41 28 -69t69 -28h224q79 0 135 -56t56 -135l-2 -384v1zM1660 194
q0 -79 -56 -135t-135 -56h-384q-79 0 -135 56t-56 135v704q0 136 69 255q69 118 187 187t256 69h64q26 0 45 -19t19 -45v-128q0 -26 -19 -45t-45 -19h-64q-106 0 -181 -75t-75 -181v-32q0 -41 28 -69t69 -28h224q79 0 135 -56t56 -135l-2 -384v1z" />
    <glyph glyph-name="quote_right" unicode="&#xf10e;" horiz-adv-x="1664" 
d="M769 512q0 -138 -69 -256t-187 -187q-119 -69 -255 -69h-64q-26 0 -45 19t-19 45v128q0 26 19 45t45 19h64q106 0 181 75t75 181v32q0 41 -28 69t-69 28h-224q-79 0 -135 56t-56 135v384q0 79 56 135t135 56h384q79 0 135 -56t56 -135l2 -704h-1zM1666 512
q0 -138 -69 -256t-187 -187q-119 -69 -255 -69h-64q-26 0 -45 19t-19 45v128q0 26 19 45t45 19h64q106 0 181 75t75 181v32q0 41 -28 69t-69 28h-224q-79 0 -135 56t-56 135v384q0 79 56 135t135 56h384q79 0 135 -56t56 -135l2 -704h-1z" />
    <glyph glyph-name="spinner" unicode="&#xf110;" 
d="M399 13q-52 0 -90 38t-38 90q0 53 37 90q38 38 90 38t90 -38t38 -90t-38 -90q-37 -37 -90 -37zM897 -193q-52 0 -90 38q-37 37 -37 90t37 90q38 38 90 38t90 -38t38 -90t-38 -90t-90 -38zM322 638q0 -52 -38 -90q-37 -37 -90 -37q-54 0 -91 37t-37 91q0 53 37 90
q38 38 90 38t90 -38t38 -90zM1397 12q-54 0 -91 37t-37 91q0 53 37 90q38 38 90 38t90 -38t38 -90t-38 -90t-90 -38h1zM401 1296q66 0 113 -47t47 -113t-47 -113t-113 -47t-113 47t-47 113t47 113t113 47zM1732 637q0 -52 -38 -90q-37 -37 -90 -37q-54 0 -91 37t-37 91
q0 53 37 90q38 38 90 38t90 -38t38 -90zM900 1533q79 0 135 -56t56 -135t-56 -135t-135 -56t-135 56t-56 135t56 135t135 56zM1623 1134q0 -93 -66 -159q-68 -65 -159 -65t-159 65q-65 68 -65 159t65 159q66 66 159 66q92 0 158 -66t66 -158z" />
    <glyph glyph-name="circle" unicode="&#xf111;" horiz-adv-x="1536" 
d="M1432 1026q103 -175 103 -385q0 -212 -103 -387q-104 -176 -279 -279t-385 -103q-212 0 -387 103q-176 103 -279 279q-103 175 -103 387q0 210 103 385t279 279q175 103 387 103q210 0 385 -103q177 -103 280 -280l-1 1v0z" />
    <glyph glyph-name="reply" unicode="&#xf112;" 
d="M1792 413q0 -169 -127 -450q-26 -62 -36 -75q-12 -17 -28 -17q-15 0 -24 10t-9 25q0 7 3 27q3 19 3 24q2 40 3 68q1 15 1.5 28.5t0.5 25.5q0 295 -146 420q-94 82 -239 111q-131 28 -330 28h-224v-256q1 -40 -39 -58q-42 -18 -69 14l-512 512q-19 19 -19 45t19 45
l512 512q27 32 69 14q40 -18 39 -58v-256h224q713 0 875 -403q53 -138 53 -333v-3v0z" />
    <glyph glyph-name="github_alt" unicode="&#xf113;" horiz-adv-x="1664" 
d="M626 403q42 -141 -43 -240q-30 -34 -72 -34q-40 0 -72 32q-32 31 -45 78q-39 141 43 240q31 34 73 34q40 0 72 -33q31 -33 45 -78zM1265 404q42 -141 -43 -240q-30 -34 -72 -34q-40 0 -72 32q-32 31 -45 78q-39 141 43 240q31 34 73 34q40 0 72 -33q31 -33 45 -78z
M1437 320q0 120 -69 204t-187 84q-41 0 -195 -21q-19 -2 -37.5 -4t-38.5 -4q-39 -3 -81 -3t-81 3q-20 2 -38.5 4t-37.5 4q-152 21 -195 21q-118 0 -187 -84t-69 -204q0 -87 31 -150q31 -66 82 -106q49 -38 123 -60q120 -36 289 -36h168q169 0 289 36q73 22 123 60
q49 40 81 108q31 63 31 150l-2 -1zM1665 490q0 -209 -61 -330q-37 -73 -103 -130q-65 -56 -144 -87q-77 -32 -171 -48q-92 -17 -171 -21l-84 -3q-21 -1 -42 -1h-42q-78 0 -142 3q-17 1 -35 2t-37 3t-37.5 4t-38.5 4q-83 9 -152 30q-115 31 -208 93q-92 61 -135 156
q-62 127 -62 331q0 239 136 396q-27 82 -27 171q0 116 51 218q110 0 189 -40q82 -39 189 -123q154 35 309 35q140 0 279 -32q100 80 186 121q82 39 189 39q51 -102 51 -218q0 -87 -27 -168q136 -160 136 -399l3 -2z" />
    <glyph glyph-name="folder_close_alt" unicode="&#xf114;" horiz-adv-x="1664" 
d="M1538 926q0 41 -28 69t-69 28h-704q-41 0 -69 28t-28 69v64q0 41 -28 69t-69 28h-320q-41 0 -69 -28t-28 -69v-960q0 -41 28 -69t69 -28h1216q41 0 69 28t28 69zM1666 222q0 -92 -66 -158t-158 -66h-1216q-92 0 -158 66t-66 158v960q0 92 66 158t158 66h320q92 0 158 -66
t66 -158v-32h672q92 0 158 -66t66 -158v-704z" />
    <glyph glyph-name="folder_open_alt" unicode="&#xf115;" horiz-adv-x="1920" 
d="M1781 603q0 35 -53 35h-1088q-43 0 -86 -22q-47 -23 -72 -51l-294 -363q-18 -24 -18 -40q0 -35 53 -35h1088q43 0 86 22q46 22 72 54l294 363q18 22 18 39v-1v-1zM1410 924q0 41 -28 69t-69 28h-576q-41 0 -69 28t-28 69v64q0 41 -28 69t-69 28h-320q-41 0 -69 -28
t-28 -69v-853l256 315q43 52 117 87q76 35 141 35l770 -2v160zM1912 600q0 -62 -46 -120l-295 -363q-43 -53 -116 -88q-69 -34 -140 -34h-1088q-92 0 -158 66t-66 158v960q0 92 66 158t158 66h320q92 0 158 -66t66 -158v-32h544q92 0 158 -66t66 -158v-160h192q56 0 99 -25
q45 -26 66 -69q15 -32 15 -68z" />
    <glyph glyph-name="expand_alt" unicode="&#xf116;" 
 />
    <glyph glyph-name="collapse_alt" unicode="&#xf117;" 
 />
    <glyph glyph-name="smile" unicode="&#xf118;" horiz-adv-x="1536" 
d="M1133 461q-38 -122 -138 -195q-101 -74 -228 -74t-228 74q-101 73 -138 195q-8 26 4 48q12 24 38 32t48 -4q24 -12 32 -38q25 -80 93 -130q67 -49 153 -49q84 0 151 49t93 129q8 26 32 38q22 12 48 4q25 -7 37 -31q12 -22 4 -48l-2 -1zM640 895q0 -52 -38 -90
q-37 -37 -90 -37q-54 0 -91 37t-37 91q0 53 37 90q38 38 90 38t90 -38t38 -90zM1153 894q0 -52 -38 -90q-37 -37 -90 -37q-54 0 -91 37t-37 91q0 53 37 90q38 38 90 38t90 -38t38 -90zM1357 390q51 118 51 249q0 130 -51 249q-102 239 -341 341q-119 51 -249 51
q-131 0 -249 -51q-238 -103 -340 -342q-51 -119 -51 -249q0 -131 51 -249q103 -237 340 -340q118 -51 249 -51q130 0 249 51q239 102 342 340zM1432 1025q103 -175 103 -385q0 -212 -103 -387q-104 -176 -279 -279t-385 -103q-212 0 -387 103q-176 103 -279 279
q-103 175 -103 387q0 210 103 385t279 279q175 103 387 103q210 0 385 -103q177 -103 280 -280z" />
    <glyph glyph-name="frown" unicode="&#xf119;" horiz-adv-x="1536" 
d="M1131 306q8 -26 -4 -48q-12 -24 -37 -31q-26 -8 -48 4q-24 12 -32 38q-26 79 -93 129q-68 50 -150 50q-84 0 -152 -50t-93 -129q-8 -26 -30 -38t-48 -4t-38 32q-12 22 -4 48q37 121 138 195t228 74t228 -74q100 -74 138 -195l-1 -1h-2zM638 894q0 -52 -38 -90
q-37 -37 -90 -37q-54 0 -91 37t-37 91q0 53 37 90q38 38 90 38t90 -38t38 -90zM1151 893q0 -52 -38 -90q-37 -37 -90 -37q-54 0 -91 37t-37 91q0 53 37 90q38 38 90 38t90 -38t38 -90zM1355 389q51 118 51 249q0 130 -51 249q-102 239 -341 341q-119 51 -249 51
q-131 0 -249 -51q-238 -103 -340 -342q-51 -119 -51 -249q0 -131 51 -249q103 -237 340 -340q118 -51 249 -51q130 0 249 51q239 102 342 340zM1430 1024q103 -175 103 -385q0 -212 -103 -387q-104 -176 -279 -279t-385 -103q-212 0 -387 103q-176 103 -279 279
q-103 175 -103 387q0 210 103 385t279 279q175 103 387 103q210 0 385 -103q177 -103 280 -280z" />
    <glyph glyph-name="meh" unicode="&#xf11a;" horiz-adv-x="1536" 
d="M448 384q-26 0 -45 19t-19 45t19 45t45 19h640q26 0 45 -19t19 -45t-19 -45t-45 -19h-640zM641 895q0 -52 -38 -90q-37 -37 -90 -37q-54 0 -91 37t-37 91q0 53 37 90q38 38 90 38t90 -38t38 -90zM1154 894q0 -52 -38 -90q-37 -37 -90 -37q-54 0 -91 37t-37 91q0 53 37 90
q38 38 90 38t90 -38t38 -90zM1358 390q51 118 51 249q0 130 -51 249q-102 239 -341 341q-119 51 -249 51q-131 0 -249 -51q-238 -103 -340 -342q-51 -119 -51 -249q0 -131 51 -249q103 -237 340 -340q118 -51 249 -51q130 0 249 51q239 102 342 340zM1433 1025
q103 -175 103 -385q0 -212 -103 -387q-104 -176 -279 -279t-385 -103q-212 0 -387 103q-176 103 -279 279q-103 175 -103 387q0 210 103 385t279 279q175 103 387 103q210 0 385 -103q177 -103 280 -280z" />
    <glyph glyph-name="gamepad" unicode="&#xf11b;" horiz-adv-x="1920" 
d="M832 576q0 14 -9 23t-23 9h-192v192q0 14 -9 23t-23 9h-128q-14 0 -23 -9t-9 -23v-192h-192q-14 0 -23 -9t-9 -23v-128q0 -14 9 -23t23 -9h192v-192q0 -14 9 -23t23 -9h128q14 0 23 9t9 23v192h192q14 0 23 9t9 23v128zM1369 294q38 38 38 90t-38 90t-90 38t-90 -38
q-37 -37 -37 -90q0 -54 37 -91t91 -37q53 0 90 37zM1624 551q38 38 38 90t-38 90t-90 38t-90 -38q-37 -37 -37 -90q0 -54 37 -91t91 -37q53 0 90 37zM1406 2q-192 0 -338 128h-220q-146 -128 -338 -128q-212 0 -362 150t-150 362t150 362t362 150h896q212 0 362 -150
t150 -362t-150 -362t-362 -150z" />
    <glyph glyph-name="keyboard" unicode="&#xf11c;" horiz-adv-x="1920" 
d="M384 272q0 -16 -16 -16h-96q-16 0 -16 16v96q0 16 16 16h96q16 0 16 -16v-96zM512 528q0 -16 -16 -16h-224q-16 0 -16 16v96q0 16 16 16h224q16 0 16 -16v-96zM384 784q0 -16 -16 -16h-96q-16 0 -16 16v96q0 16 16 16h96q16 0 16 -16v-96zM1408 272q0 -16 -16 -16h-864
q-16 0 -16 16v96q0 16 16 16h864q16 0 16 -16v-96zM768 528q0 -16 -16 -16h-96q-16 0 -16 16v96q0 16 16 16h96q16 0 16 -16v-96zM640 784q0 -16 -16 -16h-96q-16 0 -16 16v96q0 16 16 16h96q16 0 16 -16v-96zM1024 528q0 -16 -16 -16h-96q-16 0 -16 16v96q0 16 16 16h96
q16 0 16 -16v-96zM896 784q0 -16 -16 -16h-96q-16 0 -16 16v96q0 16 16 16h96q16 0 16 -16v-96zM1280 528q0 -16 -16 -16h-96q-16 0 -16 16v96q0 16 16 16h96q16 0 16 -16v-96zM1664 272q0 -16 -16 -16h-96q-16 0 -16 16v96q0 16 16 16h96q16 0 16 -16v-96zM1152 784
q0 -16 -16 -16h-96q-16 0 -16 16v96q0 16 16 16h96q16 0 16 -16v-96zM1408 784q0 -16 -16 -16h-96q-16 0 -16 16v96q0 16 16 16h96q16 0 16 -16v-96zM1664 528q0 -16 -16 -16h-224q-16 0 -16 16v96q0 16 16 16h112v240q0 16 16 16h96q16 0 16 -16v-352zM1792 1024h-1664
v-896h1664v896zM1921 127q0 -52 -38 -90q-37 -37 -90 -37h-1664q-54 0 -91 37t-37 91v896q0 53 37 90q38 38 90 38h1664q52 0 90 -38t38 -90z" />
    <glyph glyph-name="flag_alt" unicode="&#xf11d;" 
d="M1660 1105q-169 -91 -306 -91q-78 0 -145 32q-96 49 -184 76q-80 28 -177 28q-174 0 -403 -127v-599q249 113 433 113q115 0 201 -34q55 -20 78 -30q5 -2 13 -5.5t19 -8.5t23.5 -10.5t28.5 -13.5l28 -14q43 -22 102 -22q120 0 293 92l-3 615zM317 1278q0 -74 -64 -111
v-1266q0 -14 -9 -23t-23 -9h-64q-14 0 -23 9t-9 23v1266q-64 37 -64 111q0 53 37 90q38 38 90 38t90 -38t38 -90h1zM1786 453q0 -39 -35 -57q-8 -3 -18 -9q-218 -116 -369 -116q-84 0 -159 35l-28 14q-65 33 -99 48q-98 43 -204 43q-98 0 -236 -44q-134 -44 -228 -102
q-15 -9 -33 -9q-12 0 -33 8q-32 20 -32 56v742q0 36 31 55q69 40 192 93q160 69 309 69q117 0 210 -31q97 -32 210 -87q37 -19 90 -19q123 0 310 112l31 17q31 16 63 -2q31 -19 31 -55l-4 -762z" />
    <glyph glyph-name="flag_checkered" unicode="&#xf11e;" 
d="M832 727q-182 -17 -384 -117v-185q207 97 384 111v191zM832 1151q-173 -8 -384 -126v-189q213 109 384 117v198zM1663 674q-236 -116 -384 -71v224q-20 6 -39 15q-5 1 -12 6q-4 2 -9 5t-12 6l-35 17l-31 15q-27 13 -35 15l-32 13q-23 9 -72 21q-54 14 -123 14
q-23 0 -48 -3v-222h19q97 0 192 -29q43 -14 93 -33q47 -19 106 -48q19 -9 39 -15v-188q46 -17 91 -17q120 0 293 92v184zM1663 1106q-169 -91 -306 -91q-38 0 -78 8v-196q148 -42 384 90v189zM320 1279q0 -74 -64 -111v-1266q0 -14 -9 -23t-23 -9h-64q-14 0 -23 9t-9 23
v1266q-64 37 -64 111q0 53 37 90q38 38 90 38t90 -38t38 -90h1zM1789 454q0 -39 -35 -57q-8 -3 -18 -9q-218 -116 -369 -116q-84 0 -159 35l-28 14q-65 33 -99 48q-98 43 -204 43q-98 0 -236 -44q-134 -44 -228 -102q-15 -9 -33 -9q-12 0 -33 8q-32 20 -32 56v742
q0 36 31 55q69 40 192 93q160 69 309 69q117 0 210 -31q97 -32 210 -87q37 -19 90 -19q123 0 310 112l31 17q31 16 63 -2q31 -19 31 -55l-4 -762z" />
    <glyph glyph-name="terminal" unicode="&#xf120;" horiz-adv-x="1664" 
d="M119 85q-10 -10 -24 -10t-24 10l-50 50q-10 10 -10 24t10 24l393 393l-393 393q-10 10 -10 24t10 24l50 50q10 10 24 10t24 -10l466 -466q10 -10 10 -24t-10 -24zM1664 30q0 -14 -9 -23t-23 -9h-960q-14 0 -23 9t-9 23v64q0 14 9 23t23 9h960q14 0 23 -9t9 -23v-64z" />
    <glyph glyph-name="code" unicode="&#xf121;" horiz-adv-x="1920" 
d="M567 89q-10 -10 -24 -10t-24 10l-466 466q-10 10 -10 24t10 24l466 466q10 10 24 10t24 -10l50 -50q10 -10 10 -24t-10 -24l-393 -393l393 -393q10 -10 10 -24t-10 -24zM835 -87q-4 -13 -16 -19q-14 -6 -24 -2l-62 17q-13 4 -19 16t-2 25l373 1291q5 14 15 20q14 6 24 2
l62 -17q14 -5 20 -15q6 -12 2 -25l-374 -1292zM1399 85q-10 -10 -24 -10t-24 10l-50 50q-10 10 -10 24t10 24l393 393l-393 393q-10 10 -10 24t10 24l50 50q10 10 24 10t24 -10l466 -466q10 -10 10 -24t-10 -24z" />
    <glyph glyph-name="reply_all" unicode="&#xf122;" 
d="M639 384q0 -44 -39 -60q-18 -5 -24 -5q-27 0 -45 19l-512 512q-19 19 -19 45t19 45l512 512q28 31 70 15q39 -17 39 -59v-69l-397 -398q-19 -19 -19 -45t19 -45l397 -398zM1788 418q0 -50 -17 -135q-17 -75 -39 -138q-23 -65 -48 -126q-7 -16 -13.5 -31.5t-14.5 -32.5
t-15.5 -33t-15.5 -33t-27 -17q-8 0 -9 1q-25 7 -24 34q43 399 -105 565q-65 71 -171 110q-108 40 -267 54v-251q0 -44 -39 -60q-18 -5 -24 -5q-27 0 -45 19l-512 512q-19 19 -19 45t19 45l512 512q28 31 70 15q39 -17 39 -59v-262q413 -29 599 -221q169 -172 169 -510l-1 2
h-2z" />
    <glyph glyph-name="star_half_empty" unicode="&#xf123;" horiz-adv-x="1664" 
d="M1443 829l-356 52l-66 10l-30 60l-159 322v-963l59 -31l318 -168l-60 355l-12 66l49 47zM1358 -16q4 -33 -6 -51q-11 -18 -33 -18q-17 0 -39 12l-449 236l-449 -236q-23 -12 -39 -12q-23 0 -33 18q-11 18 -6 51l86 500l-364 354q-32 32 -23 59q9 28 54 36l502 73l225 455
q20 41 48 41t49 -41l225 -455l502 -73q45 -8 54 -33q9 -27 -24 -59l-366 -355z" />
    <glyph glyph-name="location_arrow" unicode="&#xf124;" horiz-adv-x="1408" 
d="M759 -96q-17 -35 -57 -35h-4l-10 2q-23 4 -36 24q-13 16 -13 39v576h-576q-20 0 -40 14q-17 13 -21 36q-5 23 4 42t29 30l1280 640q13 7 30 7q27 0 45 -19q15 -14 18 -33q3 -21 -7 -40l-640 -1282z" />
    <glyph glyph-name="crop" unicode="&#xf125;" horiz-adv-x="1664" 
d="M1152 256v595l-595 -595h595zM1107 896h-595v-595zM1662 34q0 -14 -9 -23t-23 -9h-224v-224q0 -14 -9 -23t-23 -9h-192q-14 0 -23 9t-9 23v224h-864q-14 0 -23 9t-9 23v864h-224q-14 0 -23 9t-9 23v192q0 14 9 23t23 9h224v224q0 14 9 23t23 9h192q14 0 23 -9t9 -23v-224
h851l246 247q10 9 24 9q13 0 24 -9q9 -11 9 -24q0 -14 -9 -24l-247 -246v-851h224q14 0 23 -9t9 -23z" />
    <glyph glyph-name="code_fork" unicode="&#xf126;" horiz-adv-x="1024" 
d="M192 -32q41 0 69 28t28 69t-28 69t-69 28t-69 -28t-28 -69t28 -69t69 -28zM192 1120q41 0 69 28t28 69t-28 69t-69 28t-69 -28t-28 -69t28 -69t69 -28zM832 992q41 0 69 28t28 69t-28 69t-69 28t-69 -28t-28 -69t28 -69t69 -28zM1023 1085q0 -50 -26 -97q-26 -44 -69 -69
q-2 -287 -225 -414q-67 -37 -203 -81q-129 -42 -171 -71q-41 -32 -41 -99v-26q43 -26 69 -69q26 -47 26 -97q0 -79 -56 -135t-135 -56t-135 56t-56 135q0 50 26 97q25 43 69 69v820q-44 25 -69 69q-26 47 -26 97q0 79 56 135t135 56t135 -56t56 -135q0 -50 -26 -97
q-26 -44 -69 -69v-497q58 26 154 57q28 8 47 15q11 4 21 7.5t20 7.5q94 37 129 72q83 80 78 212q-44 25 -69 69q-26 47 -26 97q0 79 56 135t135 56t135 -56t56 -135l-1 -2v-1z" />
    <glyph glyph-name="unlink" unicode="&#xf127;" horiz-adv-x="1664" 
d="M180 9q-23 -18 -45 0q-9 10 -9 24q0 13 9 24l256 256q10 9 24 9q13 0 24 -9q9 -11 9 -24q0 -14 -9 -24zM605 -96q0 -20 -16 -27q-17 -8 -33 0q-16 7 -16 27v320q0 20 16 27t33 0q16 -7 16 -27v-320zM29 416q-20 0 -27 16q-8 16 0 33q7 16 27 16h320q20 0 27 -16
q7 -17 0 -33t-27 -16h-320zM1643 318q0 -122 -85 -204l-147 -146q-83 -83 -203 -83q-122 0 -204 85l-334 335q-20 19 -42 57l239 18l273 -274q25 -26 69 -27q41 0 68 27l147 146q28 28 28 67q0 41 -28 69l-274 275l18 239q37 -23 57 -42l336 -336q84 -86 84 -204v-1z
M517 1299q-28 28 -69 28t-69 -27l-147 -146q-28 -28 -28 -67q0 -41 28 -69l274 -274l-18 -240q-38 22 -57 42l-336 336q-84 85 -84 204q0 122 85 204l147 146q83 83 203 83q122 0 204 -85l334 -335q19 -20 42 -57l-238 -18zM1310 927q-20 0 -27 16q-8 16 0 33q7 16 27 16
h320q20 0 27 -16q7 -17 0 -33t-27 -16h-320zM1118 1183q0 -20 -16 -27q-17 -8 -33 0q-16 7 -16 27v320q0 20 16 27t33 0q16 -7 16 -27v-320zM1266 1096q-23 -18 -45 0q-9 10 -9 24q0 13 9 24l256 256q10 9 24 9q13 0 24 -9q9 -11 9 -24q0 -14 -9 -24z" />
    <glyph glyph-name="question" unicode="&#xf128;" horiz-adv-x="1024" 
d="M704 40q0 -16 -12 -28t-28 -12h-240q-16 0 -28 12t-12 28v240q0 16 12 28t28 12h240q16 0 28 -12t12 -28v-240zM1018 883q0 -102 -51 -178q-23 -33 -55 -60q-39 -34 -57 -44l-61 -35q-41 -23 -69 -66q-27 -42 -27 -67q0 -18 -12 -33t-27 -15h-240q-14 0 -24 18
q-11 20 -11 39v45q0 82 65 156q64 73 143 108q58 27 84 56q24 28 24 75q0 42 -47 74t-107 32q-64 0 -108 -29q-39 -29 -108 -115q-13 -16 -31 -16q-10 0 -24 8l-164 125q-13 10 -16 25q-3 13 5 27q161 266 464 266q79 0 160 -30q77 -28 148 -83q67 -53 108 -129
q40 -76 40 -157l-2 2v1z" />
    <glyph glyph-name="_279" unicode="&#xf129;" horiz-adv-x="640" 
d="M640 64q0 -26 -19 -45t-45 -19h-512q-26 0 -45 19t-19 45v128q0 26 19 45t45 19h64v384h-64q-26 0 -45 19t-19 45v128q0 26 19 45t45 19h384q26 0 45 -19t19 -45v-576h64q26 0 45 -19t19 -45v-128zM512 1152q0 -26 -19 -45t-45 -19h-256q-26 0 -45 19t-19 45v192
q0 26 19 45t45 19h256q26 0 45 -19t19 -45v-192z" />
    <glyph glyph-name="exclamation" unicode="&#xf12a;" horiz-adv-x="640" 
d="M512 64q0 -26 -19 -45t-45 -19h-256q-26 0 -45 19t-19 45v224q0 26 19 45t45 19h256q26 0 45 -19t19 -45v-224zM516 576q-2 -26 -21 -45t-45 -19h-256q-26 0 -45 19q-20 19 -21 45l-28 768q-1 25 17 45q18 19 44 19h320q26 0 44 -19q18 -20 17 -45z" />
    <glyph glyph-name="superscript" unicode="&#xf12b;" horiz-adv-x="1536" 
d="M895 -2h-248l-159 252l-24 42q-9 14 -11 21h-3l-9 -21q-4 -7 -7.5 -13t-6.5 -11t-6 -9.5t-5 -8.5l-155 -250h-258v167h128l197 291l-185 272h-137v168h276l139 -228q1 -2 24 -42q9 -14 11 -21h3q1 6 12 21l25 42l140 228h257v-168h-125l-184 -267l204 -296h108zM1532 636
h-514l-3 27q-4 20 -4 45q0 60 26 117q24 48 59 80q8 8 18 16.5t21 17.5t24 18.5t27 19.5q13 10 24.5 18t22.5 15t20 12.5t17 10.5q91 54 91 118q0 38 -29 62t-71 24q-51 0 -97 -39q-12 -11 -36 -39l-105 92q25 37 63 66q83 65 188 65q109 0 177 -60q68 -59 68 -158
q0 -57 -25 -103q-16 -30 -40 -54q-25 -27 -43 -40q-7 -6 -24 -16q-8 -5 -16.5 -10.5t-18.5 -12.5q-8 -5 -17 -11t-19 -12l-45 -27q-40 -22 -67 -52t-30 -62h232v80l127 2z" />
    <glyph glyph-name="subscript" unicode="&#xf12c;" horiz-adv-x="1536" 
d="M895 -2h-248l-159 252l-24 42q-9 14 -11 21h-3l-9 -21q-4 -7 -7.5 -13t-6.5 -11t-6 -9.5t-5 -8.5l-155 -250h-258v167h128l197 291l-185 272h-137v168h276l139 -228q1 -2 24 -42q9 -14 11 -21h3q1 6 12 21l25 42l140 228h257v-168h-125l-184 -267l204 -296h108z
M1531 -260h-514l-4 27q-3 45 -3 46q0 60 26 117q24 48 59 80q8 8 18 16.5t21 17.5t24 18.5t27 19.5q13 10 24.5 18t22.5 15t20 12.5t17 10.5q91 54 91 118q0 38 -29 62t-71 24q-51 0 -97 -39q-12 -11 -36 -39l-105 92q25 37 63 66q80 65 188 65q109 0 177 -60
q68 -59 68 -158q0 -65 -33 -117q-33 -53 -86 -89q-5 -4 -11 -7.5t-13 -8.5t-15 -10t-18 -10t-18 -10l-16 -10t-14.5 -9t-12.5 -8q-13 -8 -25.5 -17t-24.5 -19q-23 -18 -40 -42q-13 -19 -15 -44h232v80h124z" />
    <glyph glyph-name="_283" unicode="&#xf12d;" horiz-adv-x="1920" 
d="M1232 512h-768l-336 -384h768zM1909 1205q15 -35 9 -72q-6 -38 -31 -66l-896 -1024q-38 -44 -96 -44h-768q-38 0 -69 21q-32 21 -48 55q-15 34 -9 72t31 66l896 1024q38 44 96 44h768q37 0 69 -21t48 -55z" />
    <glyph glyph-name="puzzle_piece" unicode="&#xf12e;" horiz-adv-x="1664" 
d="M1663 442q0 -81 -45 -135q-44 -54 -123 -54q-76 0 -137 55q-59 56 -126 56q-110 0 -110 -124q0 -46 16 -114q16 -76 15 -115v-5q-30 0 -33 -1q-14 -2 -99 -12q-68 -11 -120 -15q-26 -2 -49.5 -3t-43.5 -1q-65 0 -105 28t-40 82q0 68 55 126q56 62 56 137q0 79 -54 123
q-54 45 -135 45q-86 0 -144 -46q-59 -45 -59 -127t48 -148q49 -61 49 -102q0 -47 -46 -90q-38 -35 -117 -35q-95 0 -245 24q-6 1 -27 3q-21 1 -27 3l-13 2q-2 0 -3 1q-2 0 -2 1v1024q1 0 36 -6q8 -2 15 -2.5t12 -1.5q10 -2 12 -3q150 -24 245 -24q79 0 117 35q46 43 46 90
q0 41 -49 102q-48 66 -48 148t59 127q58 46 144 46q80 0 134 -45q54 -44 54 -123q0 -75 -56 -137q-55 -58 -55 -126q0 -52 41 -81q40 -28 105 -28q64 0 180 15q120 17 163 18v-2q0 -2 -6 -36q-2 -8 -2.5 -15t-1.5 -12q-2 -11 -3 -12q-24 -150 -24 -245q0 -79 35 -117
q43 -46 90 -46q37 0 102 48q64 49 147 49q82 0 127 -59q46 -58 46 -144l-1 5v-1z" />
    <glyph glyph-name="microphone" unicode="&#xf130;" horiz-adv-x="1152" 
d="M1153 706q0 -222 -148 -385q-147 -163 -364 -187v-132h256q26 0 45 -19t19 -45t-19 -45t-45 -19h-640q-26 0 -45 19t-19 45t19 45t45 19h256v132q-218 24 -366 187q-147 163 -147 384v128q0 26 19 45t45 19t45 -19t19 -45v-128q0 -184 131 -318q134 -131 318 -131
t315 131q132 132 132 317v128q0 26 19 45t45 19t45 -19t19 -45zM897 706q0 -132 -94 -226t-226 -94t-226 94t-94 226v512q0 132 94 226t226 94t226 -94t94 -226v-512z" />
    <glyph glyph-name="microphone_off" unicode="&#xf131;" horiz-adv-x="1408" 
d="M170 491q-42 103 -42 213v128q0 26 19 45t45 19t45 -19t19 -45v-128q0 -53 15 -113zM1023 705q0 -132 -94 -226t-226 -94q-58 0 -108 19l-96 -96q97 -51 205 -51q184 0 315 131q132 132 132 317v128q0 26 19 45t45 19t45 -19t19 -45v-128q0 -222 -148 -385
q-147 -163 -364 -187v-132h256q26 0 45 -19t19 -45t-19 -45t-45 -19h-640q-26 0 -45 19t-19 45t19 45t45 19h256v132q-125 13 -234 81l-254 -254q-10 -10 -24 -10t-24 10l-82 82q-10 10 -10 24t10 24l1234 1234q10 10 24 10t24 -10l82 -82q10 -10 10 -24t-10 -24l-361 -361z
M384 1218q0 132 94 226t226 94q100 0 183 -59q82 -59 117 -153l-620 -620v512z" />
    <glyph glyph-name="shield" unicode="&#xf132;" horiz-adv-x="1280" 
d="M640 1215v-1137q58 31 111 66q52 34 102 72q235 184 235 360v640zM1276 576q0 -90 -34 -171q-58 -148 -201 -277q-116 -104 -247 -180q-53 -32 -90 -51q-3 -2 -7 -4t-9 -4t-11 -5l-14 -7q-26 -14 -51 0q-17 7 -27 12q-11 4 -15 6l-45 24q-11 6 -22.5 12.5t-22.5 13.5
q-14 8 -28.5 17t-29.5 19t-30.5 20.5t-31.5 21.5q-47 32 -127 102q-68 61 -117 126q-53 70 -84 156q-32 87 -32 168v768q0 26 19 45t45 19h1152q26 0 45 -19t19 -45l-3 -766z" />
    <glyph glyph-name="calendar_empty" unicode="&#xf133;" horiz-adv-x="1664" 
d="M1536 -128v1024h-1408v-1024h1408zM512 1376q0 14 -9 23t-23 9h-64q-14 0 -23 -9t-9 -23v-288q0 -14 9 -23t23 -9h64q14 0 23 9t9 23v288zM1280 1376q0 14 -9 23t-23 9h-64q-14 0 -23 -9t-9 -23v-288q0 -14 9 -23t23 -9h64q14 0 23 9t9 23v288zM1664 -128q0 -52 -38 -90
t-90 -38h-1408q-52 0 -90 38t-38 90v1280q0 52 38 90t90 38h128v96q0 66 47 113t113 47h64q66 0 113 -47t47 -113v-96h384v96q0 66 47 113t113 47h64q66 0 113 -47t47 -113v-96h128q52 0 90 -38t38 -90v-1280z" />
    <glyph glyph-name="fire_extinguisher" unicode="&#xf134;" horiz-adv-x="1408" 
d="M448 1280q26 0 45 19t19 45t-19 45t-45 19t-45 -19t-19 -45t19 -45t45 -19zM1407 1059q0 -16 -12 -25q-7 -7 -21 -7q-5 0 -6 1l-448 96q-25 4 -25 30h-256v-102q111 -23 183 -111q73 -88 73 -204v-800q0 -26 -19 -45t-45 -19h-512q-26 0 -45 19t-19 45v800q0 103 62 189
q63 85 162 115v111h-32q-58 0 -111 -22q-58 -23 -95 -54q-35 -29 -66 -66q-42 -51 -54 -78q-17 -35 -57 -35q-17 0 -30 7q-22 12 -31 37t3 49q5 8 11 17t12 19t13.5 20.5t15.5 21.5q29 39 60 70q85 85 195 120q-25 40 -25 87q0 66 47 113t113 47t113 -47t47 -113
q0 -28 -14 -64h302q0 26 25 30l448 96q1 1 6 1q14 0 21 -7q12 -9 12 -25z" />
    <glyph glyph-name="rocket" unicode="&#xf135;" horiz-adv-x="1664" 
d="M1344 992q41 0 69 28t28 69t-28 69t-69 28t-69 -28t-28 -69t28 -69t69 -28zM1663 1374q0 -254 -76 -431q-75 -182 -253 -360q-43 -41 -91 -85q-24 -22 -49.5 -44.5t-53.5 -45.5l-20 -379q-2 -17 -15 -27l-384 -224q-7 -4 -16 -4q-14 0 -24 9l-64 64q-14 13 -9 33l85 276
l-281 281l-276 -85q-1 -1 -9 -1q-14 0 -23 9l-64 64q-17 20 -5 39l224 384q10 13 27 15l379 20q23 28 45.5 54t44.5 50q43 48 86 92q187 187 357 258q174 71 432 71q13 0 24 -9q10 -9 10 -22l1 -2h-2z" />
    <glyph glyph-name="maxcdn" unicode="&#xf136;" 
d="M1248 1l178 832q13 55 -15 87q-27 33 -83 33h-169l-204 -953h-334l204 953h-286l-204 -953h-334l204 953l-153 327h1276q103 0 189 -40q88 -41 147 -114q60 -72 81 -168t0 -195l-163 -762h-334z" />
    <glyph glyph-name="chevron_sign_left" unicode="&#xf137;" horiz-adv-x="1536" 
d="M1011 243q19 19 19 45t-19 45l-307 307l307 307q19 19 19 45t-19 45l-102 102q-19 19 -45 19t-45 -19l-454 -454q-19 -19 -19 -45t19 -45l454 -454q19 -19 45 -19t45 19zM1432 1026q103 -175 103 -385q0 -212 -103 -387q-104 -176 -279 -279t-385 -103q-212 0 -387 103
q-176 103 -279 279q-103 175 -103 387q0 210 103 385t279 279q175 103 387 103q210 0 385 -103q177 -103 280 -280z" />
    <glyph glyph-name="chevron_sign_right" unicode="&#xf138;" horiz-adv-x="1536" 
d="M1171 595q19 19 19 45t-19 45l-454 454q-19 19 -45 19t-45 -19l-102 -102q-19 -19 -19 -45t19 -45l307 -307l-307 -307q-19 -19 -19 -45t19 -45l102 -102q19 -19 45 -19t45 19zM1432 1026q103 -175 103 -385q0 -212 -103 -387q-104 -176 -279 -279t-385 -103
q-212 0 -387 103q-176 103 -279 279q-103 175 -103 387q0 210 103 385t279 279q175 103 387 103q210 0 385 -103q177 -103 280 -280z" />
    <glyph glyph-name="chevron_sign_up" unicode="&#xf139;" horiz-adv-x="1536" 
d="M1267 499q19 19 19 45t-19 45l-454 454q-19 19 -45 19t-45 -19l-454 -454q-19 -19 -19 -45t19 -45l102 -102q19 -19 45 -19t45 19l307 307l307 -307q19 -19 45 -19t45 19zM1432 1026q103 -175 103 -385q0 -212 -103 -387q-104 -176 -279 -279t-385 -103q-212 0 -387 103
q-176 103 -279 279q-103 175 -103 387q0 210 103 385t279 279q175 103 387 103q210 0 385 -103q177 -103 280 -280z" />
    <glyph glyph-name="chevron_sign_down" unicode="&#xf13a;" horiz-adv-x="1536" 
d="M1267 691q19 19 19 45t-19 45l-102 102q-19 19 -45 19t-45 -19l-307 -307l-307 307q-19 19 -45 19t-45 -19l-102 -102q-19 -19 -19 -45t19 -45l454 -454q19 -19 45 -19t45 19zM1432 1026q103 -175 103 -385q0 -212 -103 -387q-104 -176 -279 -279t-385 -103
q-212 0 -387 103q-176 103 -279 279q-103 175 -103 387q0 210 103 385t279 279q175 103 387 103q210 0 385 -103q177 -103 280 -280z" />
    <glyph glyph-name="html5" unicode="&#xf13b;" horiz-adv-x="1408" 
d="M1146 1114h-884l47 -534h612l-22 -228l-197 -53l-196 53l-13 140h-175l22 -278l362 -100h4v1l359 99l50 544h-644l-15 181h674zM1408 1408l-128 -1438l-578 -162l-574 162l-128 1438h1408z" />
    <glyph glyph-name="css3" unicode="&#xf13c;" 
d="M1780 1408l-266 -1333l-804 -267l-698 267l71 356h297l-29 -147l422 -161l486 161l68 339h-1208l58 297h1209l38 191h-1208l59 297h1505z" />
    <glyph glyph-name="anchor" unicode="&#xf13d;" 
d="M896 1216q26 0 45 19t19 45t-19 45t-45 19t-45 -19t-19 -45t19 -45t45 -19zM1787 -1q0 -22 -20 -30q-3 -1 -8 -1h-4q-14 0 -24 9l-93 93q-119 -143 -318 -225q-200 -84 -429 -84q-231 0 -430 84q-200 82 -318 225l-93 -93q-9 -9 -23 -9h-4q-2 0 -8 2q-20 8 -20 30v352
q0 14 9 23t23 9h352q22 0 30 -20q7 -20 -6 -36l-100 -100q67 -91 189 -154q124 -62 273 -81v647h-192q-26 0 -45 19t-19 45v128q0 26 19 45t45 19h192v163q-59 34 -93 93q-34 58 -34 129q0 106 75 181t181 75t181 -75t75 -181q0 -71 -34 -129q-35 -59 -93 -93v-163h192
q26 0 45 -19t19 -45v-128q0 -26 -19 -45t-45 -19h-192v-647q148 19 271 81q123 63 190 154l-100 100q-14 16 -6 36t30 20h352q14 0 23 -9t9 -23z" />
    <glyph glyph-name="unlock_alt" unicode="&#xf13e;" horiz-adv-x="1152" 
d="M1057 768q41 0 69 -28t28 -69v-576q0 -41 -28 -69t-69 -28h-960q-41 0 -69 28t-28 69v576q0 41 28 69t69 28h32v320q0 184 131 315q132 132 317 132q184 0 315 -132q132 -131 132 -315q0 -26 -19 -45t-45 -19h-64q-26 0 -45 19t-19 45q0 106 -75 181t-181 75t-181 -75
t-75 -181v-320l736 1z" />
    <glyph glyph-name="bullseye" unicode="&#xf140;" horiz-adv-x="1536" 
d="M768 896q106 0 181 -75t75 -181t-75 -181t-181 -75t-181 75t-75 181t75 181t181 75zM1037 370q113 113 113 272q0 157 -113 270t-270 113q-159 0 -272 -113q-112 -112 -112 -271q0 -161 112 -273t273 -112q159 0 271 112zM766 1154q212 0 362 -150t150 -362t-150 -362
t-362 -150t-362 150t-150 362t150 362t362 150zM1354 394q51 118 51 249q0 130 -51 249q-102 239 -341 341q-119 51 -249 51q-131 0 -249 -51q-238 -103 -340 -342q-51 -119 -51 -249q0 -131 51 -249q103 -237 340 -340q118 -51 249 -51q130 0 249 51q239 102 342 340z
M1429 1029q103 -175 103 -385q0 -212 -103 -387q-104 -176 -279 -279t-385 -103q-212 0 -387 103q-176 103 -279 279q-103 175 -103 387q0 210 103 385t279 279q175 103 387 103q210 0 385 -103q177 -103 280 -280z" />
    <glyph glyph-name="ellipsis_horizontal" unicode="&#xf141;" horiz-adv-x="1408" 
d="M384 608q0 -41 -28 -69t-69 -28h-192q-41 0 -69 28t-28 69v192q0 41 28 69t69 28h192q41 0 69 -28t28 -69v-192zM896 608q0 -41 -28 -69t-69 -28h-192q-41 0 -69 28t-28 69v192q0 41 28 69t69 28h192q41 0 69 -28t28 -69v-192zM1408 608q0 -41 -28 -69t-69 -28h-192
q-41 0 -69 28t-28 69v192q0 41 28 69t69 28h192q41 0 69 -28t28 -69v-192z" />
    <glyph glyph-name="ellipsis_vertical" unicode="&#xf142;" horiz-adv-x="384" 
d="M384 96q0 -41 -28 -69t-69 -28h-192q-41 0 -69 28t-28 69v192q0 41 28 69t69 28h192q41 0 69 -28t28 -69v-192zM384 608q0 -41 -28 -69t-69 -28h-192q-41 0 -69 28t-28 69v192q0 41 28 69t69 28h192q41 0 69 -28t28 -69v-192zM384 1120q0 -41 -28 -69t-69 -28h-192
q-41 0 -69 28t-28 69v192q0 41 28 69t69 28h192q41 0 69 -28t28 -69v-192z" />
    <glyph glyph-name="_303" unicode="&#xf143;" horiz-adv-x="1536" 
d="M473 166q38 38 38 90t-38 90t-90 38t-90 -38q-37 -37 -37 -90q0 -54 37 -91t91 -37q53 0 90 37zM862 163q-14 232 -177 396q-164 163 -396 177q-14 1 -24 -9t-10 -24v-128q0 -13 9 -22q7 -8 21 -10q154 -11 264 -120q109 -110 120 -264q2 -14 10 -21q9 -9 22 -9h128
q14 0 24 10t9 24l-2 2zM1247 160q-5 151 -57 297q-51 141 -140 261q-131 179 -332 287t-429 114q-14 2 -23 -9q-10 -10 -10 -24v-128q0 -13 9 -22q7 -8 21 -10q205 -8 378 -111q174 -104 278 -278q103 -173 111 -378q2 -14 10 -21q9 -9 22 -9h128q14 0 24 10q11 9 9 23
l-1 -1zM1536 159q0 -119 -85 -203q-84 -85 -203 -85h-960q-119 0 -204 85q-84 84 -84 203v960q0 119 84 203q85 85 204 85h960q119 0 203 -85q85 -84 85 -203v-960z" />
    <glyph glyph-name="play_sign" unicode="&#xf144;" horiz-adv-x="1536" 
d="M381 1306q175 103 387 103q210 0 385 -103q177 -103 280 -280q103 -175 103 -385q0 -212 -103 -387q-104 -176 -279 -279t-385 -103q-212 0 -387 103q-176 103 -279 279q-103 175 -103 387q0 210 103 385t279 279zM1150 586q32 18 32 55t-32 55l-544 320q-31 19 -64 1
q-32 -20 -32 -56v-640q0 -36 32 -56q21 -8 33 -8q17 0 32 9l544 320h-1z" />
    <glyph glyph-name="ticket" unicode="&#xf145;" 
d="M1340 768l-572 -572l-316 316l572 572zM1431 723q19 19 19 45t-19 45l-362 362q-18 18 -45 18t-45 -18l-618 -618q-19 -19 -19 -45t19 -45l362 -362q18 -18 45 -18t45 18zM795 -166q-37 -37 -91 -37q-53 0 -90 37l-126 126q56 56 56 135t-56 135t-135 56t-135 -56
l-125 126q-37 37 -37 90q0 54 37 91l907 906q37 37 90 37q54 0 91 -37l125 -125q-56 -56 -56 -135t56 -135t135 -56t135 56l126 -125q37 -37 37 -91q0 -53 -37 -90z" />
    <glyph glyph-name="minus_sign_alt" unicode="&#xf146;" horiz-adv-x="1536" 
d="M1280 704q0 26 -19 45t-45 19h-896q-26 0 -45 -19t-19 -45v-128q0 -26 19 -45t45 -19h896q26 0 45 19t19 45v128zM1536 160q0 -119 -85 -203q-84 -85 -203 -85h-960q-119 0 -204 85q-84 84 -84 203v960q0 119 84 203q85 85 204 85h960q119 0 203 -85q85 -84 85 -203v-960
z" />
    <glyph glyph-name="check_minus" unicode="&#xf147;" horiz-adv-x="1408" 
d="M1152 672q0 -14 -9 -23t-23 -9h-832q-14 0 -23 9t-9 23v64q0 14 9 23t23 9h832q14 0 23 -9t9 -23v-64zM1280 1120q0 66 -47 113t-113 47h-832q-66 0 -113 -47t-47 -113v-832q0 -66 47 -113t113 -47h832q66 0 113 47t47 113v832zM1408 288q0 -119 -85 -204
q-84 -84 -203 -84h-832q-119 0 -204 84q-84 85 -84 204v832q0 119 84 203q85 85 204 85h832q119 0 203 -85q85 -84 85 -203v-832z" />
    <glyph glyph-name="level_up" unicode="&#xf148;" horiz-adv-x="1024" 
d="M1019 932q-18 -37 -58 -37h-192v-864q0 -14 -9 -23t-23 -9h-704q-23 0 -30 18q-8 20 4 35l160 192q9 11 25 11h320v640h-192q-40 0 -58 37q-17 37 9 69l320 384q18 22 49 22t49 -22l320 -384q27 -32 9 -68l1 -1v0z" />
    <glyph glyph-name="level_down" unicode="&#xf149;" horiz-adv-x="1024" 
d="M735 1279q14 0 23 -9t9 -23v-863h192q40 0 58 -37q18 -38 -9 -69l-320 -384q-18 -22 -49 -22t-49 22l-320 384q-26 31 -9 69q18 37 58 37h192v640h-320q-13 0 -24 11l-160 192q-13 13 -4 34q9 19 29 19l703 -1v0z" />
    <glyph glyph-name="check_sign" unicode="&#xf14a;" horiz-adv-x="1536" 
d="M1299 851q19 19 19 45t-19 45l-102 102q-19 19 -45 19t-45 -19l-467 -467l-211 211q-19 19 -45 19t-45 -19l-102 -102q-19 -19 -19 -45t19 -45l358 -358q19 -19 45 -19t45 19zM1536 160q0 -119 -85 -203q-84 -85 -203 -85h-960q-119 0 -204 85q-84 84 -84 203v960
q0 119 84 203q85 85 204 85h960q119 0 203 -85q85 -84 85 -203v-960z" />
    <glyph glyph-name="edit_sign" unicode="&#xf14b;" horiz-adv-x="1536" 
d="M556 276l-52 -52h-56v96h-96v56l52 52zM524 497q-17 -17 -30 -3q-14 13 3 30l291 291q16 16 30 3q13 -14 -3 -30zM1088 672l-288 288l-544 -544v-288h288zM1246 826q28 28 28 69t-28 69l-152 152q-28 28 -69 28t-69 -28l-92 -92l290 -290zM1538 158q0 -119 -85 -203
q-84 -85 -203 -85h-960q-119 0 -204 85q-84 84 -84 203v960q0 119 84 203q85 85 204 85h960q119 0 203 -85q85 -84 85 -203v-960z" />
    <glyph glyph-name="_312" unicode="&#xf14c;" horiz-adv-x="1536" 
d="M1281 1087q0 26 -19 45t-45 19h-480q-44 0 -60 -39q-16 -42 15 -70l144 -144l-534 -534q-19 -19 -19 -45t19 -45l102 -102q19 -19 45 -19t45 19l534 534l144 -144q18 -19 45 -19q6 0 24 5q39 16 39 60l-1 480zM1537 159q0 -119 -85 -203q-84 -85 -203 -85h-960
q-119 0 -204 85q-84 84 -84 203v960q0 119 84 203q85 85 204 85h960q119 0 203 -85q85 -84 85 -203v-960z" />
    <glyph glyph-name="share_sign" unicode="&#xf14d;" horiz-adv-x="1536" 
d="M1356 785q19 19 19 45t-19 45l-352 352q-29 31 -69 15t-40 -60v-160q-110 0 -216 -20q-179 -35 -276 -129q-88 -85 -121 -204q-26 -104 -26 -222q0 -180 167 -404q10 -12 24 -12q7 0 13 3q22 9 19 33q-44 355 63 474q46 52 130 76t224 24v-160q0 -44 40 -60q17 -5 24 -5
q26 0 45 19l352 350h-1zM1535 158q0 -119 -85 -203q-84 -85 -203 -85h-960q-119 0 -204 85q-84 84 -84 203v960q0 119 84 203q85 85 204 85h960q119 0 203 -85q85 -84 85 -203v-960z" />
    <glyph glyph-name="compass" unicode="&#xf14e;" horiz-adv-x="1536" 
d="M896 576l-256 128v-256zM1024 497l-512 -256v542l512 256v-542zM1239 367q73 124 73 273t-73 273q-74 124 -198 198q-124 73 -273 73t-273 -73q-125 -74 -198 -198t-73 -273t73 -273q73 -125 198 -198q124 -73 273 -73t273 73t198 198zM1432 1026q103 -175 103 -385
q0 -212 -103 -387q-104 -176 -279 -279t-385 -103q-212 0 -387 103q-176 103 -279 279q-103 175 -103 387q0 210 103 385t279 279q175 103 387 103q210 0 385 -103q177 -103 280 -280z" />
    <glyph glyph-name="collapse" unicode="&#xf150;" horiz-adv-x="1536" 
d="M1144 861q18 -34 -5 -66l-320 -448q-20 -27 -51 -27q-33 0 -52 27l-320 448q-23 32 -5 66q17 35 57 35h640q40 0 57 -35h-1zM1277 1118q0 14 -9 23t-22 9h-960q-13 0 -22 -9t-9 -22v-960q0 -13 9 -22t23 -9h960q14 0 23 9t9 23zM1533 158q0 -119 -85 -203
q-84 -85 -203 -85h-960q-119 0 -204 85q-84 84 -84 203v960q0 119 84 203q85 85 204 85h960q119 0 203 -85q85 -84 85 -203v-960z" />
    <glyph glyph-name="collapse_top" unicode="&#xf151;" horiz-adv-x="1536" 
d="M1146 419q-17 -35 -57 -35h-640q-40 0 -57 35q-18 34 5 66l320 448q19 27 52 27q31 0 51 -27l320 -448q23 -32 5 -66h1zM1279 1118q0 14 -9 23t-22 9h-960q-13 0 -22 -9t-9 -22v-960q0 -13 9 -22t23 -9h960q14 0 23 9t9 23zM1535 158q0 -119 -85 -203q-84 -85 -203 -85
h-960q-119 0 -204 85q-84 84 -84 203v960q0 119 84 203q85 85 204 85h960q119 0 203 -85q85 -84 85 -203v-960z" />
    <glyph glyph-name="_317" unicode="&#xf152;" horiz-adv-x="1536" 
d="M613 267q-32 -23 -66 -5q-35 17 -35 57v640q0 40 35 57q34 18 66 -5l448 -320q27 -20 27 -51q0 -33 -27 -52l-448 -320v-1zM1280 1119q0 14 -9 23t-23 9h-960q-14 0 -23 -9t-9 -23v-960q0 -14 9 -23t23 -9h960q14 0 23 9t9 23v960zM1536 159q0 -119 -85 -203
q-84 -85 -203 -85h-960q-119 0 -204 85q-84 84 -84 203v960q0 119 84 203q85 85 204 85h960q119 0 203 -85q85 -84 85 -203v-960z" />
    <glyph glyph-name="eur" unicode="&#xf153;" horiz-adv-x="1024" 
d="M1011 71q3 -12 -3 -22t-17 -15l-5 -1q-20 -9 -81 -21q-62 -12 -131 -12q-234 0 -409 130t-238 352h-95q-13 0 -22 9t-9 23v113q0 14 9 23t23 9h66q-1 16 -1 30v27t0.5 24.5t1.5 22.5h-67q-14 0 -23 9t-9 23v114q0 14 9 23t23 9h98q67 211 243 339q179 128 402 128
q95 0 195 -23q11 -3 20 -15q6 -11 3 -24l-43 -159q-3 -13 -14 -19t-24 -2l-4 1q-61 16 -136 16q-126 0 -226 -64q-101 -65 -150 -177h468q16 0 25 -12q10 -12 7 -26l-24 -114q-5 -26 -32 -26h-488q-3 -38 0 -105h459q13 0 24 -12q9 -12 6 -27l-24 -112q-2 -11 -12 -18
q-7 -7 -20 -7h-387q48 -117 149 -186q104 -68 228 -68q69 0 154 22l5 2q14 5 26 -3t15 -21l32 -160z" />
    <glyph glyph-name="gbp" unicode="&#xf154;" horiz-adv-x="1024" 
d="M1019 29q0 -14 -9 -23t-23 -9h-956q-14 0 -23 9t-9 23v150q0 14 9 23t23 9h97v383h-95q-14 0 -23 9t-9 23v131q0 14 9 23t23 9h95v223q0 171 123 282q124 111 315 111q184 0 336 -125q7 -8 9 -21q1 -12 -6 -22l-103 -127q-9 -11 -22 -12q-14 -2 -24 6q-5 5 -9 8
q-3 2 -7 5t-9 7q-24 16 -69 33q-48 18 -93 18q-85 0 -138 -47q-52 -46 -52 -123v-215h305q14 0 23 -9t9 -23v-131q0 -13 -9 -22t-22 -9h-305v-379h414v181q0 14 9 23t23 9h162q14 0 23 -9t9 -22l-1 -369v-1z" />
    <glyph glyph-name="usd" unicode="&#xf155;" horiz-adv-x="1024" 
d="M975 349q0 -155 -100 -264q-101 -110 -258 -135v-175q0 -14 -9 -23t-23 -9h-135q-13 0 -22 9t-9 23v175q-122 16 -228 75q-39 20 -74 48q-47 37 -63 57q-17 23 -2 42l103 135q7 10 24 12q15 1 24 -9l2 -2q112 -101 243 -126q46 -8 75 -8q81 0 142 43q62 44 62 122
q0 50 -49 95q-19 19 -57 37q-23 10 -39 18q-17 7 -27 12q-5 2 -12.5 5.5t-17.5 8.5t-22 10t-26 10l-62 25l-61 26q-44 19 -63 30q-7 4 -13.5 8t-13.5 9t-13.5 9.5t-13.5 9.5q-32 19 -51 39q-5 5 -10.5 11t-11.5 12t-12 13.5t-13 15.5q-62 79 -66 204q0 138 98 242t255 134
v180q0 14 9 23t23 9h135q14 0 23 -9t9 -23v-176q110 -12 197 -57q34 -17 63 -36q37 -26 54 -42q17 -20 5 -39l-81 -146q-8 -14 -24 -15q-14 -3 -27 7q-14 13 -54 39q-97 67 -219 70q-98 0 -156 -43q-60 -44 -60 -111q-7 -61 77 -123q10 -8 24 -15q7 -4 15 -7.5t18 -8.5
l61 -27l70 -27q42 -17 81 -33q19 -8 75 -36q48 -23 75 -42q82 -56 114 -114q45 -77 45 -170l-1 -2h-2z" />
    <glyph glyph-name="inr" unicode="&#xf156;" horiz-adv-x="898" 
d="M898 964q0 -14 -9 -23t-23 -9h-168q-23 -144 -129 -234q-107 -92 -276 -111q44 -47 94 -103t107 -123t121.5 -144t136.5 -166q13 -17 3 -33q-8 -18 -29 -18h-195q-16 0 -25 12q-76 92 -144.5 172.5t-130.5 151.5q-123 141 -222 246q-9 9 -9 22v127q0 14 9 23t23 9h112
q134 0 213 43t102 126h-427q-14 0 -23 9t-9 23v102q0 14 9 23t23 9h413q-57 113 -268 113h-145q-13 0 -22 9t-9 23v133q0 14 9 23t23 9h832q14 0 23 -9t9 -23v-102q0 -14 -9 -23t-23 -9h-233q46 -62 63 -144h171q14 0 23 -9t9 -23l-1 -104z" />
    <glyph glyph-name="jpy" unicode="&#xf157;" horiz-adv-x="1027" 
d="M424 -4q-13 0 -22 9t-9 23v330h-288q-13 0 -22 9t-9 23v103q0 14 9 23t23 9h288v85h-288q-13 0 -22 9t-9 23v104q0 14 9 23t23 9h214l-321 578q-8 16 0 33q10 16 28 16h194q18 0 29 -18l215 -425q3 -6 8 -16.5t12 -26.5t16 -36t20 -46l30 68l28 61l191 420q7 19 30 19
h191q17 0 27 -16q9 -13 1 -31l-313 -579h215q14 0 23 -9t9 -22v-104q0 -14 -9 -23t-22 -9h-290v-85h290q14 0 23 -9t9 -22v-103q0 -14 -9 -23t-22 -9h-290v-330q0 -13 -9 -22t-22 -9l-179 -4v0z" />
    <glyph glyph-name="rub" unicode="&#xf158;" horiz-adv-x="1280" 
d="M487 747h320q106 0 171 62t65 162t-65 162t-171 62h-320v-448zM486 416h505q14 0 23 -9t9 -23v-128q0 -14 -9 -23t-23 -9h-505v-192q0 -14 -9 -23t-22 -9h-167q-14 0 -23 9t-9 23v192h-224q-14 0 -23 9t-9 23v128q0 14 9 23t23 9h224v118h-224q-14 0 -23 9t-9 23v149
q0 14 9 23t23 9h224v629q0 14 9 23t23 9h539q199 0 327 -122q127 -121 127 -315t-127 -315q-128 -122 -327 -122h-341v-118z" />
    <glyph glyph-name="krw" unicode="&#xf159;" 
d="M436 640l75 -300q1 0 1 -3t1 -3l1 3v4l81 299h-159zM665 896h-292l32 -128h225zM961 768l-35 128h-70l-34 -128h139zM1187 639l81 -299q0 -4 2 -6v3l1 3l78 299h-162zM1415 895h-297l34 -128h230zM1790 671q0 -14 -9 -23t-23 -9h-213l-164 -616q-8 -24 -30 -24h-159
q-23 0 -30 24l-166 616h-209l-167 -616q-8 -24 -30 -24h-159q-24 0 -30 24l-160 616h-208q-14 0 -23 9t-9 23v64q0 14 9 23t23 9h175l-33 128h-142q-14 0 -23 9t-9 23v64q0 14 9 23t23 9h109l-89 344q-4 16 6 28t27 12h137q25 0 30 -24l90 -360h359l97 360q7 24 30 24h126
q22 0 30 -24l98 -360h365l93 360q4 24 30 24h137q15 0 26 -12q10 -12 6 -28l-91 -344h111q14 0 23 -9t9 -23v-64q0 -14 -9 -23t-23 -9h-145l-34 -128h179q14 0 23 -9t9 -23l-3 -64h1z" />
    <glyph glyph-name="btc" unicode="&#xf15a;" horiz-adv-x="1280" 
d="M1166 895q18 -181 -131 -258q121 -29 177 -105q56 -77 44 -210q-13 -138 -97 -214q-42 -38 -97 -60q-104 -41 -267 -48v-255h-154v251h-78h-26t-18 1v-252h-154v255h-28h-13t-12 1h-55h-200l31 183h111q49 0 57 51v402h16q-2 1 -16 1v287q-14 68 -89 68h-111v164l212 -1
h62h21t14 1v252h154v-247q28 1 49.5 1.5t36.5 0.5h36v245h154v-252q157 -13 253 -69q107 -62 119 -192l1 -2zM952 350q0 68 -52 111q-39 31 -123 48q-30 6 -74 9t-69 3h-35h-15.5t-14.5 -1t-13 -1h-12h-22v-338h18h9.5t9.5 -1h48h29h13t11 1q70 4 115 12q55 10 102 36
q74 39 74 121h1zM881 826q0 62 -43 99q-32 30 -102 45q-53 12 -120 10h-29h-13t-11 -1h-39v-307h16h8.5t9.5 -1h47q10 2 24 2h26q31 1 54 6q70 13 99 30q73 46 73 117h1h-1z" />
    <glyph glyph-name="file" unicode="&#xf15b;" horiz-adv-x="1536" 
d="M1024 1496q22 -14 36 -28l408 -408q14 -14 28 -36h-472v472zM896 992q0 -41 28 -69t69 -28h544v-1056q0 -41 -28 -69t-69 -28h-1344q-41 0 -69 28t-28 69v1600q0 41 28 69t69 28h800v-544z" />
    <glyph glyph-name="file_text" unicode="&#xf15c;" horiz-adv-x="1536" 
d="M1468 1060q14 -14 28 -36h-472v472q22 -14 36 -28zM1536 -160q0 -41 -28 -69t-69 -28h-1344q-41 0 -69 28t-28 69v1600q0 41 28 69t69 28h800v-544q0 -41 28 -69t69 -28h544v-1056zM1152 224q0 14 -9 23t-23 9h-704q-14 0 -23 -9t-9 -23v-64q0 -14 9 -23t23 -9h704
q14 0 23 9t9 23v64zM1152 480q0 14 -9 23t-23 9h-704q-14 0 -23 -9t-9 -23v-64q0 -14 9 -23t23 -9h704q14 0 23 9t9 23v64zM1152 736q0 14 -9 23t-23 9h-704q-14 0 -23 -9t-9 -23v-64q0 -14 9 -23t23 -9h704q14 0 23 9t9 23v64z" />
    <glyph glyph-name="sort_by_alphabet" unicode="&#xf15d;" horiz-adv-x="1664" 
d="M1366 1129l-72 218l-12 47v8v5v3v3h-4l-3 -20q0 -9 -11 -47l-75 -217h177zM735 96q0 -14 -10 -24l-319 -319q-11 -9 -24 -9q-14 0 -24 9l-320 320q-14 16 -6 36t30 20h192v1376q0 14 9 23t23 9h192q14 0 23 -9t9 -23v-1376h192q14 0 23 -9t9 -23v-1h1zM1570 -257h-584v90
l369 529q12 18 21 27l11 9v3h-7h-7q-12 -3 -30 -3h-232v-115h-120v229h567v-89l-369 -530l-21 -26l-11 -11v-2l14 2q8 2 14 2h17h248v119l121 -1zM1659 767h-288v106h75l-47 144h-243l-47 -144h75v-106h-287v106h70l230 662h162l230 -662h70v-106z" />
    <glyph glyph-name="_329" unicode="&#xf15e;" horiz-adv-x="1664" 
d="M1366 105l-72 218l-12 47v8v5v3v3h-4l-3 -20q0 -9 -11 -47l-75 -217h177zM735 96q0 -14 -10 -24l-319 -319q-11 -9 -24 -9q-14 0 -24 9l-320 320q-14 16 -6 36t30 20h192v1376q0 14 9 23t23 9h192q14 0 23 -9t9 -23v-1376h192q14 0 23 -9t9 -23v-1h1zM1660 -256h-288v106
h75l-47 144h-243l-47 -144h75v-106h-287v106h70l230 662h162l230 -662h70v-106zM1571 767h-584v90l369 529q12 18 21 27l11 9v3h-7h-7q-12 -3 -30 -3h-232v-115h-120v229h567v-89l-369 -530l-21 -26l-11 -10v-3l14 3q3 1 30 1h248v119l121 -1v-233z" />
    <glyph glyph-name="sort_by_attributes" unicode="&#xf160;" 
d="M737 95q0 -14 -10 -24l-319 -319q-11 -9 -24 -9q-14 0 -24 9l-320 320q-14 16 -6 36t30 20h192v1376q0 14 9 23t23 9h192q14 0 23 -9t9 -23v-1376h192q14 0 23 -9t9 -23v-1h1zM1793 -225q0 -14 -9 -23t-23 -9h-832q-14 0 -23 9t-9 23v192q0 14 9 23t23 9h832q14 0 23 -9
t9 -23v-192zM1601 287q0 -14 -9 -23t-23 -9h-640q-14 0 -23 9t-9 23v192q0 14 9 23t23 9h640q14 0 23 -9t9 -23v-192zM1409 799q0 -14 -9 -23t-23 -9h-448q-14 0 -23 9t-9 23v192q0 14 9 23t23 9h448q14 0 23 -9t9 -23v-192zM1217 1311q0 -14 -9 -23t-23 -9h-256
q-14 0 -23 9t-9 23v192q0 14 9 23t23 9h256q14 0 23 -9t9 -23v-192z" />
    <glyph glyph-name="sort_by_attributes_alt" unicode="&#xf161;" 
d="M1216 -224q0 -14 -9 -23t-23 -9h-256q-14 0 -23 9t-9 23v192q0 14 9 23t23 9h256q14 0 23 -9t9 -23v-192zM737 95q0 -14 -10 -24l-319 -319q-11 -9 -24 -9q-14 0 -24 9l-320 320q-14 16 -6 36t30 20h192v1376q0 14 9 23t23 9h192q14 0 23 -9t9 -23v-1376h192q14 0 23 -9
t9 -23v-1h1zM1409 287q0 -14 -9 -23t-23 -9h-448q-14 0 -23 9t-9 23v192q0 14 9 23t23 9h448q14 0 23 -9t9 -23v-192zM1601 799q0 -14 -9 -23t-23 -9h-640q-14 0 -23 9t-9 23v192q0 14 9 23t23 9h640q14 0 23 -9t9 -23v-192zM1793 1311q0 -14 -9 -23t-23 -9h-832
q-14 0 -23 9t-9 23v192q0 14 9 23t23 9h832q14 0 23 -9t9 -23v-192z" />
    <glyph glyph-name="sort_by_order" unicode="&#xf162;" horiz-adv-x="1536" 
d="M1341 221q0 63 -44 116t-102 53q-51 0 -82 -36q-31 -34 -31 -93q0 -58 38 -96q37 -37 105 -37q51 0 86 27t35 68l-4 -1zM732 93q0 -14 -10 -24l-319 -319q-11 -9 -24 -9q-14 0 -24 9l-320 320q-14 16 -6 36t30 20h192v1376q0 14 9 23t23 9h192q14 0 23 -9t9 -23v-1376
h192q14 0 23 -9t9 -23v-1h1zM1481 164q0 -78 -21 -151q-21 -71 -62 -135q-41 -62 -108 -99t-153 -37q-66 0 -108 16q-24 7 -42 15l39 113q12 -8 30 -12q33 -13 75 -13q84 0 134 59q49 58 66 144h-2q-21 -23 -61 -36q-44 -14 -85 -14q-105 0 -173 71q-67 70 -67 174
q0 103 72 177q72 73 181 73q121 0 204 -95q82 -94 82 -252h1zM1452 767h-469v114h167v432v18v17v16h-2l-7 -12q-4 -8 -26 -30l-62 -58l-82 86l192 185h123v-654h166v-114z" />
    <glyph glyph-name="sort_by_order_alt" unicode="&#xf163;" horiz-adv-x="1536" 
d="M1341 1245q0 63 -44 116t-102 53q-51 0 -82 -36q-31 -34 -31 -93q0 -58 38 -96q37 -37 105 -37q51 0 86 27t35 68l-4 -1zM732 93q0 -14 -10 -24l-319 -319q-11 -9 -24 -9q-14 0 -24 9l-320 320q-14 16 -6 36t30 20h192v1376q0 14 9 23t23 9h192q14 0 23 -9t9 -23v-1376
h192q14 0 23 -9t9 -23v-1h1zM1453 -259h-469v114h167v432v18v17v16h-2l-7 -12q-4 -8 -26 -30l-62 -58l-82 86l192 185h123v-654h166v-114zM1481 1186q0 -78 -21 -151q-21 -71 -62 -135q-41 -62 -108 -99t-153 -37q-66 0 -108 16q-24 7 -42 15l39 113q12 -8 30 -12
q33 -13 75 -13q86 0 135 58t66 147h-2q-21 -23 -61 -36q-44 -14 -85 -14q-105 0 -173 71q-67 70 -67 174q0 103 72 177q72 73 181 73q121 0 204 -95q82 -94 82 -252v-1z" />
    <glyph glyph-name="_334" unicode="&#xf164;" horiz-adv-x="1664" 
d="M256 192q0 26 -19 45t-45 19q-27 0 -45 -19q-18 -20 -18 -45q0 -27 18 -45t45 -18q25 0 45 18q19 18 19 45zM416 64q0 -26 -19 -45t-45 -19h-288q-26 0 -45 19t-19 45v640q0 26 19 45t45 19h288q26 0 45 -19t19 -45v-640zM1601 698q0 -89 -55 -150q15 -44 15 -75
q3 -77 -43 -138q16 -56 0 -117q-15 -56 -54 -93q9 -113 -49 -180q-65 -77 -198 -78h-36h-76h-17q-73 0 -144 16q-74 13 -123 30l-120 39q-121 43 -158 45q-26 1 -45 21q-19 18 -19 44v641q0 26 18 44q20 20 43 21q22 1 75 60q49 52 102 120q17 22 31.5 40t27.5 33t23.5 27
t18.5 20q16 16 30 48q2 7 4.5 13t4.5 12l4 12t4 11l14 61l12 61q18 66 54 102q19 19 45 19q133 0 183 -77q28 -42 36 -95q6 -35 6 -84q0 -43 -10 -76q-11 -44 -18 -60q-2 -5 -4.5 -10.5t-5.5 -12.5t-7 -15l-9 -18q-26 -50 -30 -63h277q78 0 135 -57t57 -135l1 -3v-3z" />
    <glyph glyph-name="_335" unicode="&#xf165;" horiz-adv-x="1664" 
d="M256 960q0 27 -19 45q-20 18 -45 18q-27 0 -45 -18t-18 -45q0 -26 18 -45t45 -19q26 0 45 19t19 45zM416 448q0 -26 -19 -45t-45 -19h-288q-26 0 -45 19t-19 45v640q0 26 19 45t45 19h288q26 0 45 -19t19 -45v-640zM1536 592q55 -61 55 -150q-2 -80 -57 -135
q-56 -57 -134 -57h-277q4 -14 30 -63l27 -57q29 -67 29 -135v-24q0 -12 -1 -15v-7.5t-1 -9.5q-2 -11 -3 -27q-5 -32 -12 -51q-19 -57 -64 -85q-55 -37 -142 -37q-26 0 -45 19t-33 50q-4 8 -7 15.5t-5 13.5q-4 12 -6 23l-12 61l-14 61q-5 21 -18 51q-14 28 -30 45
q-8 8 -18.5 20t-23.5 27q-24 29 -58 73q-53 67 -102 120q-53 58 -75 60q-23 1 -43 21q-18 18 -18 44v641q0 26 19 44q19 19 45 21q37 2 158 45l120 39q49 16 123 30q71 16 144 16h17h76h36q133 -2 198 -78q58 -67 49 -180q39 -38 54 -93q16 -62 0 -117q46 -61 43 -138
q0 -33 -15 -76l-2 -1z" />
    <glyph glyph-name="youtube_sign" unicode="&#xf166;" horiz-adv-x="1536" 
d="M919 390q0 50 -29 50q-17 0 -33 -16v-224q16 -16 33 -16q29 0 29 49v157zM1169 355v34q0 51 -33 51t-33 -51v-34h66zM532 551h-80v-423h-74v423h-78v70h232v-70zM733 129h-67v40q-39 -45 -76 -45q-33 0 -42 28q-6 16 -6 54v290h66v-270q0 -26 1 -27q1 -15 15 -15
q20 0 42 31v280l67 1v-367zM984 238q0 -55 -7 -72q-12 -42 -53 -42q-35 0 -68 41v-36h-67v493h67v-161q31 40 69 40q41 0 53 -42q7 -17 7 -74zM1235 244v-24v-9.5t-1 -9.5q-3 -22 -15 -40q-27 -40 -80 -40q-52 0 -81 38q-21 27 -21 86v129q0 58 20 87q29 38 80 38t78 -38
q21 -29 21 -86v-76h-133v-65q0 -51 34 -51q24 0 30 26v2v8v10v13v13l69 -2zM784 921q0 -51 -32 -51t-32 51v156q0 52 32 52t32 -52v-156zM1313 360q0 46 -1 85t-3 71q-5 64 -15 105q-11 46 -42 74q-35 32 -76 36q-137 15 -411 15q-275 0 -411 -15q-44 -5 -75 -33
q-33 -30 -43 -73q-20 -94 -20 -261q0 -170 20 -261q10 -43 43 -73q35 -32 76 -36q136 -15 412 -15q274 0 411 15q41 4 76 36q33 30 43 73q20 91 20 261l-2 -2zM647 1306h-75l-51 -195l-53 195h-78l3 -6q2 -6 3 -10t5 -12t5 -13l9 -27l24 -69q19 -57 30 -96q10 -38 15 -62
v-201h74l-1 201zM846 1059q0 58 -21 87q-29 38 -78 38q-51 0 -78 -38q-21 -29 -21 -87v-130q0 -59 21 -87q27 -38 78 -38q49 0 78 38q21 27 21 87v130zM1095 808v370h-67v-283q-22 -31 -42 -31q-15 0 -16 16q-1 1 -1 27v272h-67v-293q0 -37 6 -55q10 -27 42 -27q36 0 77 45
l1 -41h67zM1531 152q0 -119 -85 -203q-84 -85 -203 -85h-960q-119 0 -204 85q-84 84 -84 203v960q0 119 84 203q85 85 204 85h960q119 0 203 -85q85 -84 85 -203v-960z" />
    <glyph glyph-name="youtube" unicode="&#xf167;" horiz-adv-x="1536" 
d="M971 81q0 -67 -39 -67q-23 0 -45 22v301q22 22 45 22q39 0 39 -67v-211zM1219 245v46q0 68 45 68t45 -68v-46h-90zM450 509v94h-312v-94h105v-569h100v569h107zM720 -62v494h-89v-378q-30 -42 -57 -42q-18 0 -21 21q-1 1 -1 36v364h-89v-391q0 -43 8 -72q12 -37 58 -37
q48 0 102 61v-55zM1059 283q0 73 -9 99q-17 56 -71 56q-50 0 -93 -54v217h-89v-663h89v48q45 -55 93 -55q56 0 72 55q9 27 9 100zM1304 107v-38q0 -17 -1 -22q-8 -36 -39 -36q-46 0 -46 69v87h179v103q0 79 -27 117q-39 51 -106 51q-68 0 -107 -51q-28 -37 -28 -117v-173
q0 -78 29 -116q39 -51 108 -51q72 0 108 53q18 27 21 54q2 8 2 21v38v12zM787 1217q0 69 -43 69t-43 -69v-210q0 -70 43 -70t43 70v210zM1506 256q0 -227 -26 -351q-14 -59 -57 -99t-102 -46q-185 -21 -555 -21q-371 0 -555 21q-59 6 -102 46q-44 40 -57 99q-26 121 -26 351
q0 227 26 351q13 58 57 99q43 40 102 48q95 11 232 15q69 2 149 3.5t173 1.5t173 -1.5t149 -3.5q139 -5 233 -15q58 -7 103 -48q43 -41 57 -99q26 -121 26 -351h1h-1zM610 1532l-121 -399v-271h-100v271q-4 17 -9 39t-13 48t-17.5 57.5t-21.5 67.5l-65 187h106l71 -263
l68 263h102zM878 1024q0 -81 -28 -118q-38 -51 -105 -51q-68 0 -105 51q-28 37 -28 118v175q0 80 28 117q37 51 105 51q67 0 105 -51q28 -37 28 -117v-175zM1213 863h-91v55q-53 -62 -102 -62q-47 0 -60 37q-8 29 -8 75v394h91v-367q0 -35 1 -36q3 -22 21 -22q27 0 57 43
v381l91 1v-499z" />
    <glyph glyph-name="xing" unicode="&#xf168;" horiz-adv-x="1408" 
d="M339 413q-27 -46 -65 -46h-239q-19 0 -30 17q-11 16 0 36l253 448q1 0 0 1l-161 279q-12 22 -1 37q9 15 32 15h239q40 0 66 -45l164 -286zM1404 1511q10 -16 0 -37l-528 -934v-1l336 -615q10 -21 0 -37q-11 -15 -33 -15h-239q-42 0 -66 45l-339 622l531 942q25 45 64 45
h241q22 0 31 -15h2z" />
    <glyph glyph-name="xing_sign" unicode="&#xf169;" horiz-adv-x="1536" 
d="M686 770q0 1 -126 222q-21 34 -52 34h-184q-18 0 -26 -11t0 -29l125 -216v-1l-196 -346q-9 -14 0 -27q7 -13 24 -13h185q30 0 50 36zM1311 1268q-8 12 -24 12h-187q-28 0 -48 -35l-411 -729l262 -481q20 -35 51 -35h184q16 0 24 12q8 14 -1 27l-260 476v1l409 723
q7 16 0 28v1h1zM1538 160q0 -119 -85 -203q-84 -85 -203 -85h-960q-119 0 -204 85q-84 84 -84 203v960q0 119 84 203q85 85 204 85h960q119 0 203 -85q85 -84 85 -203v-960z" />
    <glyph glyph-name="youtube_play" unicode="&#xf16a;" 
d="M1195 658l-484 253v-503zM893 1262h77t80 -1q81 -2 168 -3q157 -5 231 -9l73 -4h2q1 -1 6 -1h9q6 -2 18 -3q6 -1 13.5 -1.5t15.5 -2.5q25 -5 57 -21q31 -17 60 -45q7 -8 15 -18q11 -12 30 -58q19 -47 27 -102q7 -64 12 -137l6 -113v-40v-136q1 -146 -18 -291
q-8 -56 -24 -99q-16 -41 -32 -60l-14 -17q-31 -34 -87 -58q-11 -5 -30 -9l-22 -5l-27 -3q-5 -1 -7.5 -1h-3.5q-123 -11 -279 -15q-78 -2 -164.5 -3t-183.5 -1q-207 1 -360 6q-137 5 -200 9l-49 4l-36 4l-27 3q-13 1 -28 6q-65 20 -107 63l-16 18q-12 20 -29 59
q-20 45 -27 102q-2 21 -4 40t-4 36t-3 32t-2 28q-2 16 -3 45q-2 30 -3 70v40v136q-2 145 18 291q7 57 24 99q18 45 32 62l14 17q36 38 88 60q19 7 51 12q18 5 39 5q250 18 627 18l-1 -5z" />
    <glyph glyph-name="dropbox" unicode="&#xf16b;" 
d="M896 524l-342 -285l-490 319l338 271zM1388 166l-490 -293v-1l-1 1l-1 -1v1l-489 293v108l147 -96l342 284v2l1 -1l1 1v-2l343 -284l147 96v-108zM896 1133l-494 -304l-338 270l490 319zM1728 558l-489 -319l-343 285l494 305zM1728 1099l-338 -270l-494 304l343 285z
" />
    <glyph glyph-name="stackexchange" unicode="&#xf16c;" horiz-adv-x="1536" 
d="M1449 384v-640h-1438v640h160v-480h1118v480h160zM380 585l783 -165l-33 -156l-783 164zM517 948l725 -339l-67 -145l-725 338zM753 1281l614 -513l-102 -123l-614 513zM1525 895l-128 -96l-477 641l128 96zM330 224h800v-159h-800v159z" />
    <glyph glyph-name="instagram" unicode="&#xf16d;" horiz-adv-x="1536" 
d="M768 384q106 0 181 75t75 181t-75 181t-181 75t-181 -75t-75 -181t75 -181t181 -75zM768 1034q164 0 279 -115t115 -279t-115 -279t-279 -115t-279 115t-115 279t115 279t279 115zM1178 1142q38 0 65 -27t27 -65t-27 -65t-65 -27t-65 27t-27 65t27 65t65 27zM314 1239
q-104 -42 -146 -146q-23 -65 -29 -175l-3 -96v-106q1 -11 1 -21.5v-20.5v-34v-34v-20.5t-1 -21.5v-105l3 -97q6 -109 29 -174q42 -104 146 -146q65 -23 174 -29l97 -3h105q11 1 21.5 1h20.5h35h34h20.5t21.5 -1h106l96 3q110 6 175 29q104 42 146 146q22 60 27 174
q3 61 3 97q1 36 0 105v77v76q1 70 0 106q0 36 -3 96q-5 114 -27 174q-42 104 -146 146q-60 22 -174 27q-60 3 -96 3q-36 1 -106 0h-76h-77q-69 1 -105 0q-36 0 -97 -3q-114 -5 -174 -27l-1 1v-1zM1528 321q-11 -209 -123 -321q-114 -114 -322 -124q-50 -2 -129 -3
q-40 -1 -87 -1h-102t-102 0.5t-87 1.5q-80 1 -129 3q-209 11 -321 124q-113 112 -124 321q-2 49 -3 129q-1 40 -1 87v102t0.5 102t1.5 87q1 79 3 129q10 208 124 322q112 112 321 123q49 1 129 3q40 1 87 1.5t102 0.5h102t87 -1q79 -2 129 -3q208 -10 322 -123
q113 -114 123 -322q1 -50 3 -129q1 -40 1.5 -87t0.5 -102v-102t-1 -87q-2 -80 -3 -129z" />
    <glyph glyph-name="flickr" unicode="&#xf16e;" horiz-adv-x="1536" 
d="M1248 1408q119 0 203 -85q85 -84 85 -203v-960q0 -119 -85 -203q-84 -85 -203 -85h-960q-119 0 -204 85q-84 84 -84 203v960q0 119 84 203q85 85 204 85h960zM486 428q88 0 150 62t62 150t-62 150t-150 62t-150 -62t-62 -150t62 -150t150 -62zM1050 428q88 0 150 62
t62 150t-62 150t-150 62t-150 -62t-62 -150t62 -150t150 -62z" />
    <glyph glyph-name="adn" unicode="&#xf170;" horiz-adv-x="1536" 
d="M969 608h-402l201 306zM1227 384l-459 691l-459 -691h94l104 160h522l104 -160h94zM1432 1026q103 -175 103 -385q0 -212 -103 -387q-104 -176 -279 -279t-385 -103q-212 0 -387 103q-176 103 -279 279q-103 175 -103 387q0 210 103 385t279 279q175 103 387 103
q210 0 385 -103q177 -103 280 -280z" />
    <glyph glyph-name="f171" unicode="&#xf171;" horiz-adv-x="1408" 
d="M816 678q8 -63 -51 -101t-111 -6q-38 14 -53 56q-15 40 -1 84q13 43 51 57q36 18 72 12q38 -6 65 -36t27 -67l1 2v-1zM924 701q-14 107 -113 164t-197 13q-65 -29 -101 -89q-37 -58 -34 -129q4 -92 78 -156q73 -64 166 -57q91 7 153 84q61 75 51 168l-2 2h-1zM1164 1243
q-20 27 -56 44q-35 16 -57 21q-11 2 -21.5 4t-19.5 4t-16.5 3t-14.5 2q-294 47 -566 -3l-66 -12q-26 -6 -57 -24q-32 -18 -48 -42q28 -28 75 -46q49 -19 73 -22q7 -2 21 -3q4 -1 14 -1q4 0 8.5 -0.5t9.5 -1.5t9.5 -1.5t9.5 -0.5h9t8 -1q232 -28 448 0q67 8 89 12q25 4 72 21
q46 18 75 47l4 2zM1221 210q-2 -8 -4 -17t-4 -19t-3.5 -20.5t-3.5 -21.5q-11 -65 -15 -84q-8 -36 -30 -72q-23 -35 -57 -54q-87 -50 -189 -72q-176 -42 -403 -4q-89 17 -158 45q-86 36 -126 105q-26 97 -57 291l6 16l18 9q223 -148 507 -148q285 0 508 148q21 -6 24 -23
q3 -12 -5 -45q-8 -34 -8 -36l1 1zM1400 1167q-7 -45 -17 -107t-24 -143t-31 -182t-38 -222q-5 -32 -27 -57q-20 -23 -39 -36q-16 -11 -58 -34q-250 -126 -609 -88q-249 27 -394 139q-31 25 -43 61l-9 34l-6 40l-5 35l-27 150q-2 10 -3.5 21t-3.5 23t-4.5 25.5t-4.5 27.5
q-11 57 -12 66q-5 22 -12 75q-2 13 -3.5 24t-3.5 20t-2.5 16t-1.5 12q-10 65 -21 158q6 50 49 87q16 15 45 30q34 19 93 42q118 46 312 64q375 37 676 -50q156 -47 215 -122q29 -38 11 -105h-1z" />
    <glyph glyph-name="bitbucket_sign" unicode="&#xf172;" horiz-adv-x="1536" 
d="M847 667q0 43 -41 66q-42 23 -77 0q-43 -19 -43 -73q1 -52 45 -70q39 -23 81 4t36 72zM930 682q7 -66 -36 -121t-111 -61t-120 40q-53 47 -56 113q-1 49 26 93q27 43 72 63q70 31 141 -9q70 -41 81 -117h3v-1zM1104 1071q-20 -20 -54 -33q-28 -13 -54 -16q-14 -2 -30 -3
l-33 -3q-155 -20 -324 0l-63 9q-23 4 -54 15q-33 13 -54 33q13 19 36 31q25 13 87 24q201 34 408 0q33 -5 51 -9q23 -3 44 -16q26 -14 38 -30l1 1zM1147 323q0 -1 5 27q13 40 -14 48q-160 -106 -366 -106t-366 106l-12 -6l-5 -12q25 -150 42 -210q46 -81 204 -108
q249 -46 428 53q34 19 49 51q13 31 21 87l6 40q2 9 3.5 17t3.5 15zM1278 1016q9 52 -8 75q-43 55 -156 88q-216 63 -487 36q-136 -12 -226 -46q-11 -5 -20 -8.5t-17 -6.5q-16 -6 -22 -10q-27 -14 -48 -34q-26 -23 -30 -54q4 -41 18 -138q4 -27 12 -69q4 -21 8.5 -46.5
t9.5 -54.5l24 -137q0 -4 1 -6q1 -5 3 -12l3 -15q4 -30 6 -36q10 -34 33 -55q106 -80 285 -99q259 -29 441 63q19 10 26 15q10 7 14 8q43 27 51 69q13 72 24 136.5t21 123.5q19 117 33 213v1zM1542 156q0 -119 -85 -203q-84 -85 -203 -85h-960q-119 0 -204 85q-84 84 -84 203
v960q0 119 84 203q85 85 204 85h960q119 0 203 -85q85 -84 85 -203v-960z" />
    </font>
</defs>
</svg>
